<svg width="68" height="53" viewBox="0 0 68 53" fill="none" xmlns="http://www.w3.org/2000/svg">
<path d="M1.26 41.6H4.8C5.688 41.6 6.476 41.776 7.164 42.128C7.852 42.48 8.384 42.976 8.76 43.616C9.144 44.248 9.336 44.976 9.336 45.8C9.336 46.624 9.144 47.356 8.76 47.996C8.384 48.628 7.852 49.12 7.164 49.472C6.476 49.824 5.688 50 4.8 50H1.26V41.6ZM4.728 48.956C5.408 48.956 6.004 48.824 6.516 48.56C7.036 48.296 7.436 47.928 7.716 47.456C7.996 46.976 8.136 46.424 8.136 45.8C8.136 45.176 7.996 44.628 7.716 44.156C7.436 43.676 7.036 43.304 6.516 43.04C6.004 42.776 5.408 42.644 4.728 42.644H2.46V48.956H4.728ZM13.3221 43.58C14.2021 43.58 14.8741 43.796 15.3381 44.228C15.8101 44.66 16.0461 45.304 16.0461 46.16V50H14.9541V49.16C14.7621 49.456 14.4861 49.684 14.1261 49.844C13.7741 49.996 13.3541 50.072 12.8661 50.072C12.1541 50.072 11.5821 49.9 11.1501 49.556C10.7261 49.212 10.5141 48.76 10.5141 48.2C10.5141 47.64 10.7181 47.192 11.1261 46.856C11.5341 46.512 12.1821 46.34 13.0701 46.34H14.8941V46.112C14.8941 45.616 14.7501 45.236 14.4621 44.972C14.1741 44.708 13.7501 44.576 13.1901 44.576C12.8141 44.576 12.4461 44.64 12.0861 44.768C11.7261 44.888 11.4221 45.052 11.1741 45.26L10.6941 44.396C11.0221 44.132 11.4141 43.932 11.8701 43.796C12.3261 43.652 12.8101 43.58 13.3221 43.58ZM13.0581 49.184C13.4981 49.184 13.8781 49.088 14.1981 48.896C14.5181 48.696 14.7501 48.416 14.8941 48.056V47.168H13.1181C12.1421 47.168 11.6541 47.496 11.6541 48.152C11.6541 48.472 11.7781 48.724 12.0261 48.908C12.2741 49.092 12.6181 49.184 13.0581 49.184ZM20.0019 50.072C19.4819 50.072 18.9819 50.004 18.5019 49.868C18.0219 49.724 17.6459 49.544 17.3739 49.328L17.8539 48.416C18.1339 48.616 18.4739 48.776 18.8739 48.896C19.2739 49.016 19.6779 49.076 20.0859 49.076C21.0939 49.076 21.5979 48.788 21.5979 48.212C21.5979 48.02 21.5299 47.868 21.3939 47.756C21.2579 47.644 21.0859 47.564 20.8779 47.516C20.6779 47.46 20.3899 47.4 20.0139 47.336C19.5019 47.256 19.0819 47.164 18.7539 47.06C18.4339 46.956 18.1579 46.78 17.9259 46.532C17.6939 46.284 17.5779 45.936 17.5779 45.488C17.5779 44.912 17.8179 44.452 18.2979 44.108C18.7779 43.756 19.4219 43.58 20.2299 43.58C20.6539 43.58 21.0779 43.632 21.5019 43.736C21.9259 43.84 22.2739 43.98 22.5459 44.156L22.0539 45.068C21.5339 44.732 20.9219 44.564 20.2179 44.564C19.7299 44.564 19.3579 44.644 19.1019 44.804C18.8459 44.964 18.7179 45.176 18.7179 45.44C18.7179 45.648 18.7899 45.812 18.9339 45.932C19.0779 46.052 19.2539 46.14 19.4619 46.196C19.6779 46.252 19.9779 46.316 20.3619 46.388C20.8739 46.476 21.2859 46.572 21.5979 46.676C21.9179 46.772 22.1899 46.94 22.4139 47.18C22.6379 47.42 22.7499 47.756 22.7499 48.188C22.7499 48.764 22.5019 49.224 22.0059 49.568C21.5179 49.904 20.8499 50.072 20.0019 50.072ZM27.5857 43.58C28.3937 43.58 29.0337 43.816 29.5057 44.288C29.9857 44.752 30.2257 45.436 30.2257 46.34V50H29.0737V46.472C29.0737 45.856 28.9257 45.392 28.6297 45.08C28.3337 44.768 27.9097 44.612 27.3577 44.612C26.7337 44.612 26.2417 44.796 25.8817 45.164C25.5217 45.524 25.3417 46.044 25.3417 46.724V50H24.1897V41.096H25.3417V44.54C25.5817 44.236 25.8937 44 26.2777 43.832C26.6697 43.664 27.1057 43.58 27.5857 43.58ZM35.7296 43.58C36.3456 43.58 36.8976 43.716 37.3856 43.988C37.8736 44.26 38.2536 44.64 38.5256 45.128C38.8056 45.616 38.9456 46.18 38.9456 46.82C38.9456 47.46 38.8056 48.028 38.5256 48.524C38.2536 49.012 37.8736 49.392 37.3856 49.664C36.8976 49.936 36.3456 50.072 35.7296 50.072C35.2576 50.072 34.8256 49.98 34.4336 49.796C34.0416 49.612 33.7176 49.344 33.4616 48.992V50H32.3576V41.096H33.5096V44.6C33.7656 44.264 34.0856 44.012 34.4696 43.844C34.8536 43.668 35.2736 43.58 35.7296 43.58ZM35.6336 49.064C36.0416 49.064 36.4056 48.972 36.7256 48.788C37.0536 48.596 37.3096 48.332 37.4936 47.996C37.6856 47.652 37.7816 47.26 37.7816 46.82C37.7816 46.38 37.6856 45.992 37.4936 45.656C37.3096 45.312 37.0536 45.048 36.7256 44.864C36.4056 44.68 36.0416 44.588 35.6336 44.588C35.2336 44.588 34.8696 44.68 34.5416 44.864C34.2136 45.048 33.9576 45.312 33.7736 45.656C33.5896 45.992 33.4976 46.38 33.4976 46.82C33.4976 47.26 33.5896 47.652 33.7736 47.996C33.9576 48.332 34.2136 48.596 34.5416 48.788C34.8696 48.972 35.2336 49.064 35.6336 49.064ZM43.2613 50.072C42.6293 50.072 42.0613 49.932 41.5573 49.652C41.0533 49.372 40.6573 48.988 40.3693 48.5C40.0893 48.004 39.9493 47.444 39.9493 46.82C39.9493 46.196 40.0893 45.64 40.3693 45.152C40.6573 44.656 41.0533 44.272 41.5573 44C42.0613 43.72 42.6293 43.58 43.2613 43.58C43.8933 43.58 44.4573 43.72 44.9533 44C45.4573 44.272 45.8493 44.656 46.1293 45.152C46.4173 45.64 46.5613 46.196 46.5613 46.82C46.5613 47.444 46.4173 48.004 46.1293 48.5C45.8493 48.988 45.4573 49.372 44.9533 49.652C44.4573 49.932 43.8933 50.072 43.2613 50.072ZM43.2613 49.064C43.6693 49.064 44.0333 48.972 44.3533 48.788C44.6813 48.596 44.9373 48.332 45.1213 47.996C45.3053 47.652 45.3973 47.26 45.3973 46.82C45.3973 46.38 45.3053 45.992 45.1213 45.656C44.9373 45.312 44.6813 45.048 44.3533 44.864C44.0333 44.68 43.6693 44.588 43.2613 44.588C42.8533 44.588 42.4853 44.68 42.1573 44.864C41.8373 45.048 41.5813 45.312 41.3893 45.656C41.2053 45.992 41.1133 46.38 41.1133 46.82C41.1133 47.26 41.2053 47.652 41.3893 47.996C41.5813 48.332 41.8373 48.596 42.1573 48.788C42.4853 48.972 42.8533 49.064 43.2613 49.064ZM50.4119 43.58C51.2919 43.58 51.9639 43.796 52.4279 44.228C52.8999 44.66 53.1359 45.304 53.1359 46.16V50H52.0439V49.16C51.8519 49.456 51.5759 49.684 51.2159 49.844C50.8639 49.996 50.4439 50.072 49.9559 50.072C49.2439 50.072 48.6719 49.9 48.2399 49.556C47.8159 49.212 47.6039 48.76 47.6039 48.2C47.6039 47.64 47.8079 47.192 48.2159 46.856C48.6239 46.512 49.2719 46.34 50.1599 46.34H51.9839V46.112C51.9839 45.616 51.8399 45.236 51.5519 44.972C51.2639 44.708 50.8399 44.576 50.2799 44.576C49.9039 44.576 49.5359 44.64 49.1759 44.768C48.8159 44.888 48.5119 45.052 48.2639 45.26L47.7839 44.396C48.1119 44.132 48.5039 43.932 48.9599 43.796C49.4159 43.652 49.8999 43.58 50.4119 43.58ZM50.1479 49.184C50.5879 49.184 50.9679 49.088 51.2879 48.896C51.6079 48.696 51.8399 48.416 51.9839 48.056V47.168H50.2079C49.2319 47.168 48.7439 47.496 48.7439 48.152C48.7439 48.472 48.8679 48.724 49.1159 48.908C49.3639 49.092 49.7079 49.184 50.1479 49.184ZM56.3718 44.708C56.5718 44.34 56.8678 44.06 57.2598 43.868C57.6518 43.676 58.1278 43.58 58.6878 43.58V44.696C58.6238 44.688 58.5358 44.684 58.4238 44.684C57.7998 44.684 57.3078 44.872 56.9478 45.248C56.5958 45.616 56.4198 46.144 56.4198 46.832V50H55.2678V43.64H56.3718V44.708ZM66.049 41.096V50H64.945V48.992C64.689 49.344 64.365 49.612 63.973 49.796C63.581 49.98 63.149 50.072 62.677 50.072C62.061 50.072 61.509 49.936 61.021 49.664C60.533 49.392 60.149 49.012 59.869 48.524C59.597 48.028 59.461 47.46 59.461 46.82C59.461 46.18 59.597 45.616 59.869 45.128C60.149 44.64 60.533 44.26 61.021 43.988C61.509 43.716 62.061 43.58 62.677 43.58C63.133 43.58 63.553 43.668 63.937 43.844C64.321 44.012 64.641 44.264 64.897 44.6V41.096H66.049ZM62.773 49.064C63.173 49.064 63.537 48.972 63.865 48.788C64.193 48.596 64.449 48.332 64.633 47.996C64.817 47.652 64.909 47.26 64.909 46.82C64.909 46.38 64.817 45.992 64.633 45.656C64.449 45.312 64.193 45.048 63.865 44.864C63.537 44.68 63.173 44.588 62.773 44.588C62.365 44.588 61.997 44.68 61.669 44.864C61.349 45.048 61.093 45.312 60.901 45.656C60.717 45.992 60.625 46.38 60.625 46.82C60.625 47.26 60.717 47.652 60.901 47.996C61.093 48.332 61.349 48.596 61.669 48.788C61.997 48.972 62.365 49.064 62.773 49.064Z" fill="#F9F9F9"/>
<path d="M1.26 41.6H4.8C5.688 41.6 6.476 41.776 7.164 42.128C7.852 42.48 8.384 42.976 8.76 43.616C9.144 44.248 9.336 44.976 9.336 45.8C9.336 46.624 9.144 47.356 8.76 47.996C8.384 48.628 7.852 49.12 7.164 49.472C6.476 49.824 5.688 50 4.8 50H1.26V41.6ZM4.728 48.956C5.408 48.956 6.004 48.824 6.516 48.56C7.036 48.296 7.436 47.928 7.716 47.456C7.996 46.976 8.136 46.424 8.136 45.8C8.136 45.176 7.996 44.628 7.716 44.156C7.436 43.676 7.036 43.304 6.516 43.04C6.004 42.776 5.408 42.644 4.728 42.644H2.46V48.956H4.728ZM13.3221 43.58C14.2021 43.58 14.8741 43.796 15.3381 44.228C15.8101 44.66 16.0461 45.304 16.0461 46.16V50H14.9541V49.16C14.7621 49.456 14.4861 49.684 14.1261 49.844C13.7741 49.996 13.3541 50.072 12.8661 50.072C12.1541 50.072 11.5821 49.9 11.1501 49.556C10.7261 49.212 10.5141 48.76 10.5141 48.2C10.5141 47.64 10.7181 47.192 11.1261 46.856C11.5341 46.512 12.1821 46.34 13.0701 46.34H14.8941V46.112C14.8941 45.616 14.7501 45.236 14.4621 44.972C14.1741 44.708 13.7501 44.576 13.1901 44.576C12.8141 44.576 12.4461 44.64 12.0861 44.768C11.7261 44.888 11.4221 45.052 11.1741 45.26L10.6941 44.396C11.0221 44.132 11.4141 43.932 11.8701 43.796C12.3261 43.652 12.8101 43.58 13.3221 43.58ZM13.0581 49.184C13.4981 49.184 13.8781 49.088 14.1981 48.896C14.5181 48.696 14.7501 48.416 14.8941 48.056V47.168H13.1181C12.1421 47.168 11.6541 47.496 11.6541 48.152C11.6541 48.472 11.7781 48.724 12.0261 48.908C12.2741 49.092 12.6181 49.184 13.0581 49.184ZM20.0019 50.072C19.4819 50.072 18.9819 50.004 18.5019 49.868C18.0219 49.724 17.6459 49.544 17.3739 49.328L17.8539 48.416C18.1339 48.616 18.4739 48.776 18.8739 48.896C19.2739 49.016 19.6779 49.076 20.0859 49.076C21.0939 49.076 21.5979 48.788 21.5979 48.212C21.5979 48.02 21.5299 47.868 21.3939 47.756C21.2579 47.644 21.0859 47.564 20.8779 47.516C20.6779 47.46 20.3899 47.4 20.0139 47.336C19.5019 47.256 19.0819 47.164 18.7539 47.06C18.4339 46.956 18.1579 46.78 17.9259 46.532C17.6939 46.284 17.5779 45.936 17.5779 45.488C17.5779 44.912 17.8179 44.452 18.2979 44.108C18.7779 43.756 19.4219 43.58 20.2299 43.58C20.6539 43.58 21.0779 43.632 21.5019 43.736C21.9259 43.84 22.2739 43.98 22.5459 44.156L22.0539 45.068C21.5339 44.732 20.9219 44.564 20.2179 44.564C19.7299 44.564 19.3579 44.644 19.1019 44.804C18.8459 44.964 18.7179 45.176 18.7179 45.44C18.7179 45.648 18.7899 45.812 18.9339 45.932C19.0779 46.052 19.2539 46.14 19.4619 46.196C19.6779 46.252 19.9779 46.316 20.3619 46.388C20.8739 46.476 21.2859 46.572 21.5979 46.676C21.9179 46.772 22.1899 46.94 22.4139 47.18C22.6379 47.42 22.7499 47.756 22.7499 48.188C22.7499 48.764 22.5019 49.224 22.0059 49.568C21.5179 49.904 20.8499 50.072 20.0019 50.072ZM27.5857 43.58C28.3937 43.58 29.0337 43.816 29.5057 44.288C29.9857 44.752 30.2257 45.436 30.2257 46.34V50H29.0737V46.472C29.0737 45.856 28.9257 45.392 28.6297 45.08C28.3337 44.768 27.9097 44.612 27.3577 44.612C26.7337 44.612 26.2417 44.796 25.8817 45.164C25.5217 45.524 25.3417 46.044 25.3417 46.724V50H24.1897V41.096H25.3417V44.54C25.5817 44.236 25.8937 44 26.2777 43.832C26.6697 43.664 27.1057 43.58 27.5857 43.58ZM35.7296 43.58C36.3456 43.58 36.8976 43.716 37.3856 43.988C37.8736 44.26 38.2536 44.64 38.5256 45.128C38.8056 45.616 38.9456 46.18 38.9456 46.82C38.9456 47.46 38.8056 48.028 38.5256 48.524C38.2536 49.012 37.8736 49.392 37.3856 49.664C36.8976 49.936 36.3456 50.072 35.7296 50.072C35.2576 50.072 34.8256 49.98 34.4336 49.796C34.0416 49.612 33.7176 49.344 33.4616 48.992V50H32.3576V41.096H33.5096V44.6C33.7656 44.264 34.0856 44.012 34.4696 43.844C34.8536 43.668 35.2736 43.58 35.7296 43.58ZM35.6336 49.064C36.0416 49.064 36.4056 48.972 36.7256 48.788C37.0536 48.596 37.3096 48.332 37.4936 47.996C37.6856 47.652 37.7816 47.26 37.7816 46.82C37.7816 46.38 37.6856 45.992 37.4936 45.656C37.3096 45.312 37.0536 45.048 36.7256 44.864C36.4056 44.68 36.0416 44.588 35.6336 44.588C35.2336 44.588 34.8696 44.68 34.5416 44.864C34.2136 45.048 33.9576 45.312 33.7736 45.656C33.5896 45.992 33.4976 46.38 33.4976 46.82C33.4976 47.26 33.5896 47.652 33.7736 47.996C33.9576 48.332 34.2136 48.596 34.5416 48.788C34.8696 48.972 35.2336 49.064 35.6336 49.064ZM43.2613 50.072C42.6293 50.072 42.0613 49.932 41.5573 49.652C41.0533 49.372 40.6573 48.988 40.3693 48.5C40.0893 48.004 39.9493 47.444 39.9493 46.82C39.9493 46.196 40.0893 45.64 40.3693 45.152C40.6573 44.656 41.0533 44.272 41.5573 44C42.0613 43.72 42.6293 43.58 43.2613 43.58C43.8933 43.58 44.4573 43.72 44.9533 44C45.4573 44.272 45.8493 44.656 46.1293 45.152C46.4173 45.64 46.5613 46.196 46.5613 46.82C46.5613 47.444 46.4173 48.004 46.1293 48.5C45.8493 48.988 45.4573 49.372 44.9533 49.652C44.4573 49.932 43.8933 50.072 43.2613 50.072ZM43.2613 49.064C43.6693 49.064 44.0333 48.972 44.3533 48.788C44.6813 48.596 44.9373 48.332 45.1213 47.996C45.3053 47.652 45.3973 47.26 45.3973 46.82C45.3973 46.38 45.3053 45.992 45.1213 45.656C44.9373 45.312 44.6813 45.048 44.3533 44.864C44.0333 44.68 43.6693 44.588 43.2613 44.588C42.8533 44.588 42.4853 44.68 42.1573 44.864C41.8373 45.048 41.5813 45.312 41.3893 45.656C41.2053 45.992 41.1133 46.38 41.1133 46.82C41.1133 47.26 41.2053 47.652 41.3893 47.996C41.5813 48.332 41.8373 48.596 42.1573 48.788C42.4853 48.972 42.8533 49.064 43.2613 49.064ZM50.4119 43.58C51.2919 43.58 51.9639 43.796 52.4279 44.228C52.8999 44.66 53.1359 45.304 53.1359 46.16V50H52.0439V49.16C51.8519 49.456 51.5759 49.684 51.2159 49.844C50.8639 49.996 50.4439 50.072 49.9559 50.072C49.2439 50.072 48.6719 49.9 48.2399 49.556C47.8159 49.212 47.6039 48.76 47.6039 48.2C47.6039 47.64 47.8079 47.192 48.2159 46.856C48.6239 46.512 49.2719 46.34 50.1599 46.34H51.9839V46.112C51.9839 45.616 51.8399 45.236 51.5519 44.972C51.2639 44.708 50.8399 44.576 50.2799 44.576C49.9039 44.576 49.5359 44.64 49.1759 44.768C48.8159 44.888 48.5119 45.052 48.2639 45.26L47.7839 44.396C48.1119 44.132 48.5039 43.932 48.9599 43.796C49.4159 43.652 49.8999 43.58 50.4119 43.58ZM50.1479 49.184C50.5879 49.184 50.9679 49.088 51.2879 48.896C51.6079 48.696 51.8399 48.416 51.9839 48.056V47.168H50.2079C49.2319 47.168 48.7439 47.496 48.7439 48.152C48.7439 48.472 48.8679 48.724 49.1159 48.908C49.3639 49.092 49.7079 49.184 50.1479 49.184ZM56.3718 44.708C56.5718 44.34 56.8678 44.06 57.2598 43.868C57.6518 43.676 58.1278 43.58 58.6878 43.58V44.696C58.6238 44.688 58.5358 44.684 58.4238 44.684C57.7998 44.684 57.3078 44.872 56.9478 45.248C56.5958 45.616 56.4198 46.144 56.4198 46.832V50H55.2678V43.64H56.3718V44.708ZM66.049 41.096V50H64.945V48.992C64.689 49.344 64.365 49.612 63.973 49.796C63.581 49.98 63.149 50.072 62.677 50.072C62.061 50.072 61.509 49.936 61.021 49.664C60.533 49.392 60.149 49.012 59.869 48.524C59.597 48.028 59.461 47.46 59.461 46.82C59.461 46.18 59.597 45.616 59.869 45.128C60.149 44.64 60.533 44.26 61.021 43.988C61.509 43.716 62.061 43.58 62.677 43.58C63.133 43.58 63.553 43.668 63.937 43.844C64.321 44.012 64.641 44.264 64.897 44.6V41.096H66.049ZM62.773 49.064C63.173 49.064 63.537 48.972 63.865 48.788C64.193 48.596 64.449 48.332 64.633 47.996C64.817 47.652 64.909 47.26 64.909 46.82C64.909 46.38 64.817 45.992 64.633 45.656C64.449 45.312 64.193 45.048 63.865 44.864C63.537 44.68 63.173 44.588 62.773 44.588C62.365 44.588 61.997 44.68 61.669 44.864C61.349 45.048 61.093 45.312 60.901 45.656C60.717 45.992 60.625 46.38 60.625 46.82C60.625 47.26 60.717 47.652 60.901 47.996C61.093 48.332 61.349 48.596 61.669 48.788C61.997 48.972 62.365 49.064 62.773 49.064Z" fill="#F9F9F9"/>
<path d="M1.26 41.6H4.8C5.688 41.6 6.476 41.776 7.164 42.128C7.852 42.48 8.384 42.976 8.76 43.616C9.144 44.248 9.336 44.976 9.336 45.8C9.336 46.624 9.144 47.356 8.76 47.996C8.384 48.628 7.852 49.12 7.164 49.472C6.476 49.824 5.688 50 4.8 50H1.26V41.6ZM4.728 48.956C5.408 48.956 6.004 48.824 6.516 48.56C7.036 48.296 7.436 47.928 7.716 47.456C7.996 46.976 8.136 46.424 8.136 45.8C8.136 45.176 7.996 44.628 7.716 44.156C7.436 43.676 7.036 43.304 6.516 43.04C6.004 42.776 5.408 42.644 4.728 42.644H2.46V48.956H4.728ZM13.3221 43.58C14.2021 43.58 14.8741 43.796 15.3381 44.228C15.8101 44.66 16.0461 45.304 16.0461 46.16V50H14.9541V49.16C14.7621 49.456 14.4861 49.684 14.1261 49.844C13.7741 49.996 13.3541 50.072 12.8661 50.072C12.1541 50.072 11.5821 49.9 11.1501 49.556C10.7261 49.212 10.5141 48.76 10.5141 48.2C10.5141 47.64 10.7181 47.192 11.1261 46.856C11.5341 46.512 12.1821 46.34 13.0701 46.34H14.8941V46.112C14.8941 45.616 14.7501 45.236 14.4621 44.972C14.1741 44.708 13.7501 44.576 13.1901 44.576C12.8141 44.576 12.4461 44.64 12.0861 44.768C11.7261 44.888 11.4221 45.052 11.1741 45.26L10.6941 44.396C11.0221 44.132 11.4141 43.932 11.8701 43.796C12.3261 43.652 12.8101 43.58 13.3221 43.58ZM13.0581 49.184C13.4981 49.184 13.8781 49.088 14.1981 48.896C14.5181 48.696 14.7501 48.416 14.8941 48.056V47.168H13.1181C12.1421 47.168 11.6541 47.496 11.6541 48.152C11.6541 48.472 11.7781 48.724 12.0261 48.908C12.2741 49.092 12.6181 49.184 13.0581 49.184ZM20.0019 50.072C19.4819 50.072 18.9819 50.004 18.5019 49.868C18.0219 49.724 17.6459 49.544 17.3739 49.328L17.8539 48.416C18.1339 48.616 18.4739 48.776 18.8739 48.896C19.2739 49.016 19.6779 49.076 20.0859 49.076C21.0939 49.076 21.5979 48.788 21.5979 48.212C21.5979 48.02 21.5299 47.868 21.3939 47.756C21.2579 47.644 21.0859 47.564 20.8779 47.516C20.6779 47.46 20.3899 47.4 20.0139 47.336C19.5019 47.256 19.0819 47.164 18.7539 47.06C18.4339 46.956 18.1579 46.78 17.9259 46.532C17.6939 46.284 17.5779 45.936 17.5779 45.488C17.5779 44.912 17.8179 44.452 18.2979 44.108C18.7779 43.756 19.4219 43.58 20.2299 43.58C20.6539 43.58 21.0779 43.632 21.5019 43.736C21.9259 43.84 22.2739 43.98 22.5459 44.156L22.0539 45.068C21.5339 44.732 20.9219 44.564 20.2179 44.564C19.7299 44.564 19.3579 44.644 19.1019 44.804C18.8459 44.964 18.7179 45.176 18.7179 45.44C18.7179 45.648 18.7899 45.812 18.9339 45.932C19.0779 46.052 19.2539 46.14 19.4619 46.196C19.6779 46.252 19.9779 46.316 20.3619 46.388C20.8739 46.476 21.2859 46.572 21.5979 46.676C21.9179 46.772 22.1899 46.94 22.4139 47.18C22.6379 47.42 22.7499 47.756 22.7499 48.188C22.7499 48.764 22.5019 49.224 22.0059 49.568C21.5179 49.904 20.8499 50.072 20.0019 50.072ZM27.5857 43.58C28.3937 43.58 29.0337 43.816 29.5057 44.288C29.9857 44.752 30.2257 45.436 30.2257 46.34V50H29.0737V46.472C29.0737 45.856 28.9257 45.392 28.6297 45.08C28.3337 44.768 27.9097 44.612 27.3577 44.612C26.7337 44.612 26.2417 44.796 25.8817 45.164C25.5217 45.524 25.3417 46.044 25.3417 46.724V50H24.1897V41.096H25.3417V44.54C25.5817 44.236 25.8937 44 26.2777 43.832C26.6697 43.664 27.1057 43.58 27.5857 43.58ZM35.7296 43.58C36.3456 43.58 36.8976 43.716 37.3856 43.988C37.8736 44.26 38.2536 44.64 38.5256 45.128C38.8056 45.616 38.9456 46.18 38.9456 46.82C38.9456 47.46 38.8056 48.028 38.5256 48.524C38.2536 49.012 37.8736 49.392 37.3856 49.664C36.8976 49.936 36.3456 50.072 35.7296 50.072C35.2576 50.072 34.8256 49.98 34.4336 49.796C34.0416 49.612 33.7176 49.344 33.4616 48.992V50H32.3576V41.096H33.5096V44.6C33.7656 44.264 34.0856 44.012 34.4696 43.844C34.8536 43.668 35.2736 43.58 35.7296 43.58ZM35.6336 49.064C36.0416 49.064 36.4056 48.972 36.7256 48.788C37.0536 48.596 37.3096 48.332 37.4936 47.996C37.6856 47.652 37.7816 47.26 37.7816 46.82C37.7816 46.38 37.6856 45.992 37.4936 45.656C37.3096 45.312 37.0536 45.048 36.7256 44.864C36.4056 44.68 36.0416 44.588 35.6336 44.588C35.2336 44.588 34.8696 44.68 34.5416 44.864C34.2136 45.048 33.9576 45.312 33.7736 45.656C33.5896 45.992 33.4976 46.38 33.4976 46.82C33.4976 47.26 33.5896 47.652 33.7736 47.996C33.9576 48.332 34.2136 48.596 34.5416 48.788C34.8696 48.972 35.2336 49.064 35.6336 49.064ZM43.2613 50.072C42.6293 50.072 42.0613 49.932 41.5573 49.652C41.0533 49.372 40.6573 48.988 40.3693 48.5C40.0893 48.004 39.9493 47.444 39.9493 46.82C39.9493 46.196 40.0893 45.64 40.3693 45.152C40.6573 44.656 41.0533 44.272 41.5573 44C42.0613 43.72 42.6293 43.58 43.2613 43.58C43.8933 43.58 44.4573 43.72 44.9533 44C45.4573 44.272 45.8493 44.656 46.1293 45.152C46.4173 45.64 46.5613 46.196 46.5613 46.82C46.5613 47.444 46.4173 48.004 46.1293 48.5C45.8493 48.988 45.4573 49.372 44.9533 49.652C44.4573 49.932 43.8933 50.072 43.2613 50.072ZM43.2613 49.064C43.6693 49.064 44.0333 48.972 44.3533 48.788C44.6813 48.596 44.9373 48.332 45.1213 47.996C45.3053 47.652 45.3973 47.26 45.3973 46.82C45.3973 46.38 45.3053 45.992 45.1213 45.656C44.9373 45.312 44.6813 45.048 44.3533 44.864C44.0333 44.68 43.6693 44.588 43.2613 44.588C42.8533 44.588 42.4853 44.68 42.1573 44.864C41.8373 45.048 41.5813 45.312 41.3893 45.656C41.2053 45.992 41.1133 46.38 41.1133 46.82C41.1133 47.26 41.2053 47.652 41.3893 47.996C41.5813 48.332 41.8373 48.596 42.1573 48.788C42.4853 48.972 42.8533 49.064 43.2613 49.064ZM50.4119 43.58C51.2919 43.58 51.9639 43.796 52.4279 44.228C52.8999 44.66 53.1359 45.304 53.1359 46.16V50H52.0439V49.16C51.8519 49.456 51.5759 49.684 51.2159 49.844C50.8639 49.996 50.4439 50.072 49.9559 50.072C49.2439 50.072 48.6719 49.9 48.2399 49.556C47.8159 49.212 47.6039 48.76 47.6039 48.2C47.6039 47.64 47.8079 47.192 48.2159 46.856C48.6239 46.512 49.2719 46.34 50.1599 46.34H51.9839V46.112C51.9839 45.616 51.8399 45.236 51.5519 44.972C51.2639 44.708 50.8399 44.576 50.2799 44.576C49.9039 44.576 49.5359 44.64 49.1759 44.768C48.8159 44.888 48.5119 45.052 48.2639 45.26L47.7839 44.396C48.1119 44.132 48.5039 43.932 48.9599 43.796C49.4159 43.652 49.8999 43.58 50.4119 43.58ZM50.1479 49.184C50.5879 49.184 50.9679 49.088 51.2879 48.896C51.6079 48.696 51.8399 48.416 51.9839 48.056V47.168H50.2079C49.2319 47.168 48.7439 47.496 48.7439 48.152C48.7439 48.472 48.8679 48.724 49.1159 48.908C49.3639 49.092 49.7079 49.184 50.1479 49.184ZM56.3718 44.708C56.5718 44.34 56.8678 44.06 57.2598 43.868C57.6518 43.676 58.1278 43.58 58.6878 43.58V44.696C58.6238 44.688 58.5358 44.684 58.4238 44.684C57.7998 44.684 57.3078 44.872 56.9478 45.248C56.5958 45.616 56.4198 46.144 56.4198 46.832V50H55.2678V43.64H56.3718V44.708ZM66.049 41.096V50H64.945V48.992C64.689 49.344 64.365 49.612 63.973 49.796C63.581 49.98 63.149 50.072 62.677 50.072C62.061 50.072 61.509 49.936 61.021 49.664C60.533 49.392 60.149 49.012 59.869 48.524C59.597 48.028 59.461 47.46 59.461 46.82C59.461 46.18 59.597 45.616 59.869 45.128C60.149 44.64 60.533 44.26 61.021 43.988C61.509 43.716 62.061 43.58 62.677 43.58C63.133 43.58 63.553 43.668 63.937 43.844C64.321 44.012 64.641 44.264 64.897 44.6V41.096H66.049ZM62.773 49.064C63.173 49.064 63.537 48.972 63.865 48.788C64.193 48.596 64.449 48.332 64.633 47.996C64.817 47.652 64.909 47.26 64.909 46.82C64.909 46.38 64.817 45.992 64.633 45.656C64.449 45.312 64.193 45.048 63.865 44.864C63.537 44.68 63.173 44.588 62.773 44.588C62.365 44.588 61.997 44.68 61.669 44.864C61.349 45.048 61.093 45.312 60.901 45.656C60.717 45.992 60.625 46.38 60.625 46.82C60.625 47.26 60.717 47.652 60.901 47.996C61.093 48.332 61.349 48.596 61.669 48.788C61.997 48.972 62.365 49.064 62.773 49.064Z" fill="#F9F9F9"/>
<path d="M1.26 41.6H4.8C5.688 41.6 6.476 41.776 7.164 42.128C7.852 42.48 8.384 42.976 8.76 43.616C9.144 44.248 9.336 44.976 9.336 45.8C9.336 46.624 9.144 47.356 8.76 47.996C8.384 48.628 7.852 49.12 7.164 49.472C6.476 49.824 5.688 50 4.8 50H1.26V41.6ZM4.728 48.956C5.408 48.956 6.004 48.824 6.516 48.56C7.036 48.296 7.436 47.928 7.716 47.456C7.996 46.976 8.136 46.424 8.136 45.8C8.136 45.176 7.996 44.628 7.716 44.156C7.436 43.676 7.036 43.304 6.516 43.04C6.004 42.776 5.408 42.644 4.728 42.644H2.46V48.956H4.728ZM13.3221 43.58C14.2021 43.58 14.8741 43.796 15.3381 44.228C15.8101 44.66 16.0461 45.304 16.0461 46.16V50H14.9541V49.16C14.7621 49.456 14.4861 49.684 14.1261 49.844C13.7741 49.996 13.3541 50.072 12.8661 50.072C12.1541 50.072 11.5821 49.9 11.1501 49.556C10.7261 49.212 10.5141 48.76 10.5141 48.2C10.5141 47.64 10.7181 47.192 11.1261 46.856C11.5341 46.512 12.1821 46.34 13.0701 46.34H14.8941V46.112C14.8941 45.616 14.7501 45.236 14.4621 44.972C14.1741 44.708 13.7501 44.576 13.1901 44.576C12.8141 44.576 12.4461 44.64 12.0861 44.768C11.7261 44.888 11.4221 45.052 11.1741 45.26L10.6941 44.396C11.0221 44.132 11.4141 43.932 11.8701 43.796C12.3261 43.652 12.8101 43.58 13.3221 43.58ZM13.0581 49.184C13.4981 49.184 13.8781 49.088 14.1981 48.896C14.5181 48.696 14.7501 48.416 14.8941 48.056V47.168H13.1181C12.1421 47.168 11.6541 47.496 11.6541 48.152C11.6541 48.472 11.7781 48.724 12.0261 48.908C12.2741 49.092 12.6181 49.184 13.0581 49.184ZM20.0019 50.072C19.4819 50.072 18.9819 50.004 18.5019 49.868C18.0219 49.724 17.6459 49.544 17.3739 49.328L17.8539 48.416C18.1339 48.616 18.4739 48.776 18.8739 48.896C19.2739 49.016 19.6779 49.076 20.0859 49.076C21.0939 49.076 21.5979 48.788 21.5979 48.212C21.5979 48.02 21.5299 47.868 21.3939 47.756C21.2579 47.644 21.0859 47.564 20.8779 47.516C20.6779 47.46 20.3899 47.4 20.0139 47.336C19.5019 47.256 19.0819 47.164 18.7539 47.06C18.4339 46.956 18.1579 46.78 17.9259 46.532C17.6939 46.284 17.5779 45.936 17.5779 45.488C17.5779 44.912 17.8179 44.452 18.2979 44.108C18.7779 43.756 19.4219 43.58 20.2299 43.58C20.6539 43.58 21.0779 43.632 21.5019 43.736C21.9259 43.84 22.2739 43.98 22.5459 44.156L22.0539 45.068C21.5339 44.732 20.9219 44.564 20.2179 44.564C19.7299 44.564 19.3579 44.644 19.1019 44.804C18.8459 44.964 18.7179 45.176 18.7179 45.44C18.7179 45.648 18.7899 45.812 18.9339 45.932C19.0779 46.052 19.2539 46.14 19.4619 46.196C19.6779 46.252 19.9779 46.316 20.3619 46.388C20.8739 46.476 21.2859 46.572 21.5979 46.676C21.9179 46.772 22.1899 46.94 22.4139 47.18C22.6379 47.42 22.7499 47.756 22.7499 48.188C22.7499 48.764 22.5019 49.224 22.0059 49.568C21.5179 49.904 20.8499 50.072 20.0019 50.072ZM27.5857 43.58C28.3937 43.58 29.0337 43.816 29.5057 44.288C29.9857 44.752 30.2257 45.436 30.2257 46.34V50H29.0737V46.472C29.0737 45.856 28.9257 45.392 28.6297 45.08C28.3337 44.768 27.9097 44.612 27.3577 44.612C26.7337 44.612 26.2417 44.796 25.8817 45.164C25.5217 45.524 25.3417 46.044 25.3417 46.724V50H24.1897V41.096H25.3417V44.54C25.5817 44.236 25.8937 44 26.2777 43.832C26.6697 43.664 27.1057 43.58 27.5857 43.58ZM35.7296 43.58C36.3456 43.58 36.8976 43.716 37.3856 43.988C37.8736 44.26 38.2536 44.64 38.5256 45.128C38.8056 45.616 38.9456 46.18 38.9456 46.82C38.9456 47.46 38.8056 48.028 38.5256 48.524C38.2536 49.012 37.8736 49.392 37.3856 49.664C36.8976 49.936 36.3456 50.072 35.7296 50.072C35.2576 50.072 34.8256 49.98 34.4336 49.796C34.0416 49.612 33.7176 49.344 33.4616 48.992V50H32.3576V41.096H33.5096V44.6C33.7656 44.264 34.0856 44.012 34.4696 43.844C34.8536 43.668 35.2736 43.58 35.7296 43.58ZM35.6336 49.064C36.0416 49.064 36.4056 48.972 36.7256 48.788C37.0536 48.596 37.3096 48.332 37.4936 47.996C37.6856 47.652 37.7816 47.26 37.7816 46.82C37.7816 46.38 37.6856 45.992 37.4936 45.656C37.3096 45.312 37.0536 45.048 36.7256 44.864C36.4056 44.68 36.0416 44.588 35.6336 44.588C35.2336 44.588 34.8696 44.68 34.5416 44.864C34.2136 45.048 33.9576 45.312 33.7736 45.656C33.5896 45.992 33.4976 46.38 33.4976 46.82C33.4976 47.26 33.5896 47.652 33.7736 47.996C33.9576 48.332 34.2136 48.596 34.5416 48.788C34.8696 48.972 35.2336 49.064 35.6336 49.064ZM43.2613 50.072C42.6293 50.072 42.0613 49.932 41.5573 49.652C41.0533 49.372 40.6573 48.988 40.3693 48.5C40.0893 48.004 39.9493 47.444 39.9493 46.82C39.9493 46.196 40.0893 45.64 40.3693 45.152C40.6573 44.656 41.0533 44.272 41.5573 44C42.0613 43.72 42.6293 43.58 43.2613 43.58C43.8933 43.58 44.4573 43.72 44.9533 44C45.4573 44.272 45.8493 44.656 46.1293 45.152C46.4173 45.64 46.5613 46.196 46.5613 46.82C46.5613 47.444 46.4173 48.004 46.1293 48.5C45.8493 48.988 45.4573 49.372 44.9533 49.652C44.4573 49.932 43.8933 50.072 43.2613 50.072ZM43.2613 49.064C43.6693 49.064 44.0333 48.972 44.3533 48.788C44.6813 48.596 44.9373 48.332 45.1213 47.996C45.3053 47.652 45.3973 47.26 45.3973 46.82C45.3973 46.38 45.3053 45.992 45.1213 45.656C44.9373 45.312 44.6813 45.048 44.3533 44.864C44.0333 44.68 43.6693 44.588 43.2613 44.588C42.8533 44.588 42.4853 44.68 42.1573 44.864C41.8373 45.048 41.5813 45.312 41.3893 45.656C41.2053 45.992 41.1133 46.38 41.1133 46.82C41.1133 47.26 41.2053 47.652 41.3893 47.996C41.5813 48.332 41.8373 48.596 42.1573 48.788C42.4853 48.972 42.8533 49.064 43.2613 49.064ZM50.4119 43.58C51.2919 43.58 51.9639 43.796 52.4279 44.228C52.8999 44.66 53.1359 45.304 53.1359 46.16V50H52.0439V49.16C51.8519 49.456 51.5759 49.684 51.2159 49.844C50.8639 49.996 50.4439 50.072 49.9559 50.072C49.2439 50.072 48.6719 49.9 48.2399 49.556C47.8159 49.212 47.6039 48.76 47.6039 48.2C47.6039 47.64 47.8079 47.192 48.2159 46.856C48.6239 46.512 49.2719 46.34 50.1599 46.34H51.9839V46.112C51.9839 45.616 51.8399 45.236 51.5519 44.972C51.2639 44.708 50.8399 44.576 50.2799 44.576C49.9039 44.576 49.5359 44.64 49.1759 44.768C48.8159 44.888 48.5119 45.052 48.2639 45.26L47.7839 44.396C48.1119 44.132 48.5039 43.932 48.9599 43.796C49.4159 43.652 49.8999 43.58 50.4119 43.58ZM50.1479 49.184C50.5879 49.184 50.9679 49.088 51.2879 48.896C51.6079 48.696 51.8399 48.416 51.9839 48.056V47.168H50.2079C49.2319 47.168 48.7439 47.496 48.7439 48.152C48.7439 48.472 48.8679 48.724 49.1159 48.908C49.3639 49.092 49.7079 49.184 50.1479 49.184ZM56.3718 44.708C56.5718 44.34 56.8678 44.06 57.2598 43.868C57.6518 43.676 58.1278 43.58 58.6878 43.58V44.696C58.6238 44.688 58.5358 44.684 58.4238 44.684C57.7998 44.684 57.3078 44.872 56.9478 45.248C56.5958 45.616 56.4198 46.144 56.4198 46.832V50H55.2678V43.64H56.3718V44.708ZM66.049 41.096V50H64.945V48.992C64.689 49.344 64.365 49.612 63.973 49.796C63.581 49.98 63.149 50.072 62.677 50.072C62.061 50.072 61.509 49.936 61.021 49.664C60.533 49.392 60.149 49.012 59.869 48.524C59.597 48.028 59.461 47.46 59.461 46.82C59.461 46.18 59.597 45.616 59.869 45.128C60.149 44.64 60.533 44.26 61.021 43.988C61.509 43.716 62.061 43.58 62.677 43.58C63.133 43.58 63.553 43.668 63.937 43.844C64.321 44.012 64.641 44.264 64.897 44.6V41.096H66.049ZM62.773 49.064C63.173 49.064 63.537 48.972 63.865 48.788C64.193 48.596 64.449 48.332 64.633 47.996C64.817 47.652 64.909 47.26 64.909 46.82C64.909 46.38 64.817 45.992 64.633 45.656C64.449 45.312 64.193 45.048 63.865 44.864C63.537 44.68 63.173 44.588 62.773 44.588C62.365 44.588 61.997 44.68 61.669 44.864C61.349 45.048 61.093 45.312 60.901 45.656C60.717 45.992 60.625 46.38 60.625 46.82C60.625 47.26 60.717 47.652 60.901 47.996C61.093 48.332 61.349 48.596 61.669 48.788C61.997 48.972 62.365 49.064 62.773 49.064Z" fill="#F9F9F9"/>
<path d="M35 1C35 0.45 34.55 0 34 0H24C23.45 0 23 0.45 23 1V11C23 11.55 23.45 12 24 12H34C34.55 12 35 11.55 35 11V1Z" fill="#F9F9F9"/>
<path d="M49 1C49 0.45 48.55 0 48 0H38C37.45 0 37 0.45 37 1V11C37 11.55 37.45 12 38 12H48C48.55 12 49 11.55 49 11V1Z" fill="#F9F9F9"/>
<path d="M38 26H48C48.55 26 49 25.55 49 25V15C49 14.45 48.55 14 48 14H38C37.45 14 37 14.45 37 15V25C37 25.55 37.45 26 38 26Z" fill="#F9F9F9"/>
<path d="M34 14H24C23.45 14 23 14.45 23 15V25C23 25.55 23.45 26 24 26H34C34.55 26 35 25.55 35 25V15C35 14.45 34.55 14 34 14Z" fill="#F9F9F9"/>
</svg>
