<svg width="177" height="204" viewBox="0 0 177 204" fill="none" xmlns="http://www.w3.org/2000/svg">
<path d="M88.5 44C88.5 44 60 68.3542 60 93C60 108.464 72.7597 121 88.5 121C104.24 121 117 108.464 117 93C117 68.3542 88.5 44 88.5 44ZM101.859 104.563C100.546 106.025 98.2909 106.145 96.8327 104.874C95.3542 103.596 95.2153 101.385 96.5156 99.9358C98.2375 98.0143 99.1875 95.5527 99.1875 93C99.1875 91.1718 98.8538 89.1477 98.1995 86.9882C97.6354 85.1355 98.7077 83.1837 100.593 82.6342C102.479 82.087 104.466 83.1335 105.025 84.9862C105.881 87.7943 106.312 90.4917 106.312 93C106.312 97.2583 104.73 101.367 101.859 104.563Z" fill="#232323"/>
<path d="M88.5 177C44.5218 177 0 165.058 0 142.231C0 136.768 2.76036 128.743 15.9153 121.522C18.9959 119.843 22.8161 120.966 24.5019 124.025C26.1813 127.087 25.0581 130.931 22.0007 132.61C16.1428 135.824 12.6429 139.42 12.6429 142.231C12.6429 151.254 42.1934 164.357 88.5 164.357C134.807 164.357 164.357 151.254 164.357 142.231C164.357 139.416 160.857 135.817 154.993 132.604C151.931 130.924 150.808 127.081 152.488 124.023C154.161 120.962 158.006 119.834 161.068 121.518C174.233 128.737 177 136.765 177 142.231C177 165.058 132.478 177 88.5 177Z" fill="#232323"/>
<path d="M88.5 151.714C57.1267 151.714 31.6071 126.19 31.6071 94.8202C31.6071 47.9672 82.1975 3.42363 84.351 1.55035C86.7342 -0.516784 90.2657 -0.516784 92.6489 1.55035C94.8024 3.42363 145.393 47.9672 145.393 94.8202C145.393 126.19 119.873 151.714 88.5 151.714ZM88.5063 14.9646C76.7779 26.3476 44.2499 60.9811 44.2499 94.8202C44.2499 119.221 64.1034 139.071 88.5 139.071C112.896 139.071 132.75 119.221 132.75 94.8202C132.75 60.9158 100.235 26.3328 88.5063 14.9646Z" fill="#232323"/>
<path d="M35.192 177.4H43.172C45.244 177.4 47.0733 177.82 48.66 178.66C50.2467 179.481 51.4787 180.639 52.356 182.132C53.2333 183.607 53.672 185.296 53.672 187.2C53.672 189.104 53.2333 190.803 52.356 192.296C51.4787 193.771 50.2467 194.928 48.66 195.768C47.0733 196.589 45.244 197 43.172 197H35.192V177.4ZM43.06 195.208C44.7773 195.208 46.28 194.872 47.568 194.2C48.856 193.509 49.8547 192.567 50.564 191.372C51.2733 190.159 51.628 188.768 51.628 187.2C51.628 185.632 51.2733 184.251 50.564 183.056C49.8547 181.843 48.856 180.9 47.568 180.228C46.28 179.537 44.7773 179.192 43.06 179.192H37.264V195.208H43.06ZM70.7288 190.252H58.4088C58.5208 191.783 59.1088 193.024 60.1728 193.976C61.2368 194.909 62.5808 195.376 64.2048 195.376C65.1195 195.376 65.9595 195.217 66.7248 194.9C67.4901 194.564 68.1528 194.079 68.7128 193.444L69.8328 194.732C69.1795 195.516 68.3581 196.113 67.3688 196.524C66.3981 196.935 65.3248 197.14 64.1488 197.14C62.6368 197.14 61.2928 196.823 60.1168 196.188C58.9595 195.535 58.0541 194.639 57.4008 193.5C56.7475 192.361 56.4208 191.073 56.4208 189.636C56.4208 188.199 56.7288 186.911 57.3448 185.772C57.9795 184.633 58.8381 183.747 59.9208 183.112C61.0221 182.477 62.2541 182.16 63.6168 182.16C64.9795 182.16 66.2021 182.477 67.2848 183.112C68.3675 183.747 69.2168 184.633 69.8328 185.772C70.4488 186.892 70.7568 188.18 70.7568 189.636L70.7288 190.252ZM63.6168 183.868C62.1981 183.868 61.0035 184.325 60.0328 185.24C59.0808 186.136 58.5395 187.312 58.4088 188.768H68.8528C68.7221 187.312 68.1715 186.136 67.2008 185.24C66.2488 184.325 65.0541 183.868 63.6168 183.868ZM82.3073 182.16C84.1553 182.16 85.6206 182.701 86.7033 183.784C87.8046 184.848 88.3553 186.407 88.3553 188.46V197H86.3673V188.656C86.3673 187.125 85.9846 185.959 85.2193 185.156C84.4539 184.353 83.3619 183.952 81.9433 183.952C80.3566 183.952 79.0966 184.428 78.1633 185.38C77.2486 186.313 76.7913 187.611 76.7913 189.272V197H74.8033V182.272H76.7073V184.988C77.2486 184.092 77.9953 183.401 78.9473 182.916C79.9179 182.412 81.0379 182.16 82.3073 182.16ZM97.7005 197.14C96.5058 197.14 95.3578 196.972 94.2565 196.636C93.1738 196.281 92.3245 195.843 91.7085 195.32L92.6045 193.752C93.2205 194.237 93.9951 194.639 94.9285 194.956C95.8618 195.255 96.8325 195.404 97.8405 195.404C99.1845 195.404 100.174 195.199 100.808 194.788C101.462 194.359 101.788 193.761 101.788 192.996C101.788 192.455 101.611 192.035 101.256 191.736C100.902 191.419 100.454 191.185 99.9125 191.036C99.3711 190.868 98.6525 190.709 97.7565 190.56C96.5618 190.336 95.6005 190.112 94.8725 189.888C94.1445 189.645 93.5191 189.244 92.9965 188.684C92.4925 188.124 92.2405 187.349 92.2405 186.36C92.2405 185.128 92.7538 184.12 93.7805 183.336C94.8071 182.552 96.2351 182.16 98.0645 182.16C99.0165 182.16 99.9685 182.291 100.92 182.552C101.872 182.795 102.656 183.121 103.272 183.532L102.404 185.128C101.191 184.288 99.7445 183.868 98.0645 183.868C96.7951 183.868 95.8338 184.092 95.1805 184.54C94.5458 184.988 94.2285 185.576 94.2285 186.304C94.2285 186.864 94.4058 187.312 94.7605 187.648C95.1338 187.984 95.5911 188.236 96.1325 188.404C96.6738 188.553 97.4205 188.712 98.3725 188.88C99.5485 189.104 100.491 189.328 101.2 189.552C101.91 189.776 102.516 190.159 103.02 190.7C103.524 191.241 103.776 191.988 103.776 192.94C103.776 194.228 103.235 195.255 102.152 196.02C101.088 196.767 99.6045 197.14 97.7005 197.14ZM107.452 182.272H109.44V197H107.452V182.272ZM108.46 179.052C108.049 179.052 107.704 178.912 107.424 178.632C107.144 178.352 107.004 178.016 107.004 177.624C107.004 177.251 107.144 176.924 107.424 176.644C107.704 176.364 108.049 176.224 108.46 176.224C108.87 176.224 109.216 176.364 109.496 176.644C109.776 176.905 109.916 177.223 109.916 177.596C109.916 178.007 109.776 178.352 109.496 178.632C109.216 178.912 108.87 179.052 108.46 179.052ZM122.727 196.104C122.354 196.44 121.887 196.701 121.327 196.888C120.786 197.056 120.217 197.14 119.619 197.14C118.238 197.14 117.174 196.767 116.427 196.02C115.681 195.273 115.307 194.219 115.307 192.856V183.952H112.675V182.272H115.307V179.052H117.295V182.272H121.775V183.952H117.295V192.744C117.295 193.621 117.51 194.293 117.939 194.76C118.387 195.208 119.022 195.432 119.843 195.432C120.254 195.432 120.646 195.367 121.019 195.236C121.411 195.105 121.747 194.919 122.027 194.676L122.727 196.104ZM138.651 190.252H126.331C126.443 191.783 127.031 193.024 128.095 193.976C129.159 194.909 130.503 195.376 132.127 195.376C133.041 195.376 133.881 195.217 134.647 194.9C135.412 194.564 136.075 194.079 136.635 193.444L137.755 194.732C137.101 195.516 136.28 196.113 135.291 196.524C134.32 196.935 133.247 197.14 132.071 197.14C130.559 197.14 129.215 196.823 128.039 196.188C126.881 195.535 125.976 194.639 125.323 193.5C124.669 192.361 124.343 191.073 124.343 189.636C124.343 188.199 124.651 186.911 125.267 185.772C125.901 184.633 126.76 183.747 127.843 183.112C128.944 182.477 130.176 182.16 131.539 182.16C132.901 182.16 134.124 182.477 135.207 183.112C136.289 183.747 137.139 184.633 137.755 185.772C138.371 186.892 138.679 188.18 138.679 189.636L138.651 190.252ZM131.539 183.868C130.12 183.868 128.925 184.325 127.955 185.24C127.003 186.136 126.461 187.312 126.331 188.768H136.775C136.644 187.312 136.093 186.136 135.123 185.24C134.171 184.325 132.976 183.868 131.539 183.868Z" fill="black"/>
</svg>
