<svg width="78" height="83" viewBox="0 0 78 83" fill="none" xmlns="http://www.w3.org/2000/svg">
<path d="M13.3372 65.096C12.4892 65.096 11.7252 64.912 11.0452 64.544C10.3652 64.168 9.82916 63.652 9.43716 62.996C9.05316 62.34 8.86116 61.608 8.86116 60.8C8.86116 59.992 9.05316 59.26 9.43716 58.604C9.82916 57.948 10.3652 57.436 11.0452 57.068C11.7252 56.692 12.4892 56.504 13.3372 56.504C14.1772 56.504 14.9372 56.692 15.6172 57.068C16.2972 57.436 16.8292 57.948 17.2132 58.604C17.5972 59.252 17.7892 59.984 17.7892 60.8C17.7892 61.616 17.5972 62.352 17.2132 63.008C16.8292 63.656 16.2972 64.168 15.6172 64.544C14.9372 64.912 14.1772 65.096 13.3372 65.096ZM13.3372 64.028C13.9532 64.028 14.5052 63.888 14.9932 63.608C15.4892 63.328 15.8772 62.944 16.1572 62.456C16.4452 61.96 16.5892 61.408 16.5892 60.8C16.5892 60.192 16.4452 59.644 16.1572 59.156C15.8772 58.66 15.4892 58.272 14.9932 57.992C14.5052 57.712 13.9532 57.572 13.3372 57.572C12.7212 57.572 12.1612 57.712 11.6572 57.992C11.1612 58.272 10.7692 58.66 10.4812 59.156C10.2012 59.644 10.0612 60.192 10.0612 60.8C10.0612 61.408 10.2012 61.96 10.4812 62.456C10.7692 62.944 11.1612 63.328 11.6572 63.608C12.1612 63.888 12.7212 64.028 13.3372 64.028ZM19.4553 58.64H20.6073V65H19.4553V58.64ZM20.0313 57.416C19.8073 57.416 19.6193 57.344 19.4673 57.2C19.3233 57.056 19.2513 56.88 19.2513 56.672C19.2513 56.464 19.3233 56.288 19.4673 56.144C19.6193 55.992 19.8073 55.916 20.0313 55.916C20.2553 55.916 20.4393 55.988 20.5833 56.132C20.7353 56.268 20.8113 56.44 20.8113 56.648C20.8113 56.864 20.7353 57.048 20.5833 57.2C20.4393 57.344 20.2553 57.416 20.0313 57.416ZM22.8068 56.096H23.9588V65H22.8068V56.096ZM25.7504 61.208H28.9784V62.204H25.7504V61.208ZM34.1242 58.58C34.7402 58.58 35.2922 58.716 35.7802 58.988C36.2682 59.26 36.6482 59.64 36.9202 60.128C37.2002 60.616 37.3402 61.18 37.3402 61.82C37.3402 62.46 37.2002 63.028 36.9202 63.524C36.6482 64.012 36.2682 64.392 35.7802 64.664C35.2922 64.936 34.7402 65.072 34.1242 65.072C33.6522 65.072 33.2202 64.98 32.8282 64.796C32.4362 64.612 32.1122 64.344 31.8562 63.992V65H30.7522V56.096H31.9042V59.6C32.1602 59.264 32.4802 59.012 32.8642 58.844C33.2482 58.668 33.6682 58.58 34.1242 58.58ZM34.0282 64.064C34.4362 64.064 34.8002 63.972 35.1202 63.788C35.4482 63.596 35.7042 63.332 35.8882 62.996C36.0802 62.652 36.1762 62.26 36.1762 61.82C36.1762 61.38 36.0802 60.992 35.8882 60.656C35.7042 60.312 35.4482 60.048 35.1202 59.864C34.8002 59.68 34.4362 59.588 34.0282 59.588C33.6282 59.588 33.2642 59.68 32.9362 59.864C32.6082 60.048 32.3522 60.312 32.1682 60.656C31.9842 60.992 31.8922 61.38 31.8922 61.82C31.8922 62.26 31.9842 62.652 32.1682 62.996C32.3522 63.332 32.6082 63.596 32.9362 63.788C33.2642 63.972 33.6282 64.064 34.0282 64.064ZM41.1893 58.58C42.0693 58.58 42.7413 58.796 43.2053 59.228C43.6773 59.66 43.9133 60.304 43.9133 61.16V65H42.8213V64.16C42.6293 64.456 42.3533 64.684 41.9933 64.844C41.6413 64.996 41.2213 65.072 40.7333 65.072C40.0213 65.072 39.4493 64.9 39.0173 64.556C38.5933 64.212 38.3813 63.76 38.3813 63.2C38.3813 62.64 38.5853 62.192 38.9933 61.856C39.4013 61.512 40.0493 61.34 40.9373 61.34H42.7613V61.112C42.7613 60.616 42.6173 60.236 42.3293 59.972C42.0413 59.708 41.6173 59.576 41.0573 59.576C40.6813 59.576 40.3133 59.64 39.9533 59.768C39.5933 59.888 39.2893 60.052 39.0413 60.26L38.5613 59.396C38.8893 59.132 39.2813 58.932 39.7373 58.796C40.1933 58.652 40.6773 58.58 41.1893 58.58ZM40.9253 64.184C41.3653 64.184 41.7453 64.088 42.0653 63.896C42.3853 63.696 42.6173 63.416 42.7613 63.056V62.168H40.9853C40.0093 62.168 39.5213 62.496 39.5213 63.152C39.5213 63.472 39.6453 63.724 39.8933 63.908C40.1413 64.092 40.4853 64.184 40.9253 64.184ZM47.8691 65.072C47.3491 65.072 46.8491 65.004 46.3691 64.868C45.8891 64.724 45.5131 64.544 45.2411 64.328L45.7211 63.416C46.0011 63.616 46.3411 63.776 46.7411 63.896C47.1411 64.016 47.5451 64.076 47.9531 64.076C48.9611 64.076 49.4651 63.788 49.4651 63.212C49.4651 63.02 49.3971 62.868 49.2611 62.756C49.1251 62.644 48.9531 62.564 48.7451 62.516C48.5451 62.46 48.2571 62.4 47.8811 62.336C47.3691 62.256 46.9491 62.164 46.6211 62.06C46.3011 61.956 46.0251 61.78 45.7931 61.532C45.5611 61.284 45.4451 60.936 45.4451 60.488C45.4451 59.912 45.6851 59.452 46.1651 59.108C46.6451 58.756 47.2891 58.58 48.0971 58.58C48.5211 58.58 48.9451 58.632 49.3691 58.736C49.7931 58.84 50.1411 58.98 50.4131 59.156L49.9211 60.068C49.4011 59.732 48.7891 59.564 48.0851 59.564C47.5971 59.564 47.2251 59.644 46.9691 59.804C46.7131 59.964 46.5851 60.176 46.5851 60.44C46.5851 60.648 46.6571 60.812 46.8011 60.932C46.9451 61.052 47.1211 61.14 47.3291 61.196C47.5451 61.252 47.8451 61.316 48.2291 61.388C48.7411 61.476 49.1531 61.572 49.4651 61.676C49.7851 61.772 50.0571 61.94 50.2811 62.18C50.5051 62.42 50.6171 62.756 50.6171 63.188C50.6171 63.764 50.3691 64.224 49.8731 64.568C49.3851 64.904 48.7171 65.072 47.8691 65.072ZM57.8048 61.856C57.8048 61.944 57.7968 62.06 57.7808 62.204H52.6208C52.6928 62.764 52.9368 63.216 53.3528 63.56C53.7768 63.896 54.3008 64.064 54.9248 64.064C55.6848 64.064 56.2968 63.808 56.7608 63.296L57.3968 64.04C57.1088 64.376 56.7488 64.632 56.3168 64.808C55.8928 64.984 55.4168 65.072 54.8888 65.072C54.2168 65.072 53.6208 64.936 53.1008 64.664C52.5808 64.384 52.1768 63.996 51.8888 63.5C51.6088 63.004 51.4688 62.444 51.4688 61.82C51.4688 61.204 51.6048 60.648 51.8768 60.152C52.1568 59.656 52.5368 59.272 53.0168 59C53.5048 58.72 54.0528 58.58 54.6608 58.58C55.2688 58.58 55.8088 58.72 56.2808 59C56.7608 59.272 57.1328 59.656 57.3968 60.152C57.6688 60.648 57.8048 61.216 57.8048 61.856ZM54.6608 59.552C54.1088 59.552 53.6448 59.72 53.2688 60.056C52.9008 60.392 52.6848 60.832 52.6208 61.376H56.7008C56.6368 60.84 56.4168 60.404 56.0408 60.068C55.6728 59.724 55.2128 59.552 54.6608 59.552ZM65.4045 56.096V65H64.3005V63.992C64.0445 64.344 63.7205 64.612 63.3285 64.796C62.9365 64.98 62.5045 65.072 62.0325 65.072C61.4165 65.072 60.8645 64.936 60.3765 64.664C59.8885 64.392 59.5045 64.012 59.2245 63.524C58.9525 63.028 58.8165 62.46 58.8165 61.82C58.8165 61.18 58.9525 60.616 59.2245 60.128C59.5045 59.64 59.8885 59.26 60.3765 58.988C60.8645 58.716 61.4165 58.58 62.0325 58.58C62.4885 58.58 62.9085 58.668 63.2925 58.844C63.6765 59.012 63.9965 59.264 64.2525 59.6V56.096H65.4045ZM62.1285 64.064C62.5285 64.064 62.8925 63.972 63.2205 63.788C63.5485 63.596 63.8045 63.332 63.9885 62.996C64.1725 62.652 64.2645 62.26 64.2645 61.82C64.2645 61.38 64.1725 60.992 63.9885 60.656C63.8045 60.312 63.5485 60.048 63.2205 59.864C62.8925 59.68 62.5285 59.588 62.1285 59.588C61.7205 59.588 61.3525 59.68 61.0245 59.864C60.7045 60.048 60.4485 60.312 60.2565 60.656C60.0725 60.992 59.9805 61.38 59.9805 61.82C59.9805 62.26 60.0725 62.652 60.2565 62.996C60.4485 63.332 60.7045 63.596 61.0245 63.788C61.3525 63.972 61.7205 64.064 62.1285 64.064ZM9.38198 80L9.36998 73.88L6.33398 78.98H5.78198L2.74598 73.916V80H1.59398V71.6H2.57798L6.08198 77.504L9.53798 71.6H10.522L10.534 80H9.38198ZM18.8149 73.64V80H17.7229V79.04C17.4909 79.368 17.1829 79.624 16.7989 79.808C16.4229 79.984 16.0109 80.072 15.5629 80.072C14.7149 80.072 14.0469 79.84 13.5589 79.376C13.0709 78.904 12.8269 78.212 12.8269 77.3V73.64H13.9789V77.168C13.9789 77.784 14.1269 78.252 14.4229 78.572C14.7189 78.884 15.1429 79.04 15.6949 79.04C16.3029 79.04 16.7829 78.856 17.1349 78.488C17.4869 78.12 17.6629 77.6 17.6629 76.928V73.64H18.8149ZM27.008 71.096V80H25.904V78.992C25.648 79.344 25.324 79.612 24.932 79.796C24.54 79.98 24.108 80.072 23.636 80.072C23.02 80.072 22.468 79.936 21.98 79.664C21.492 79.392 21.108 79.012 20.828 78.524C20.556 78.028 20.42 77.46 20.42 76.82C20.42 76.18 20.556 75.616 20.828 75.128C21.108 74.64 21.492 74.26 21.98 73.988C22.468 73.716 23.02 73.58 23.636 73.58C24.092 73.58 24.512 73.668 24.896 73.844C25.28 74.012 25.6 74.264 25.856 74.6V71.096H27.008ZM23.732 79.064C24.132 79.064 24.496 78.972 24.824 78.788C25.152 78.596 25.408 78.332 25.592 77.996C25.776 77.652 25.868 77.26 25.868 76.82C25.868 76.38 25.776 75.992 25.592 75.656C25.408 75.312 25.152 75.048 24.824 74.864C24.496 74.68 24.132 74.588 23.732 74.588C23.324 74.588 22.956 74.68 22.628 74.864C22.308 75.048 22.052 75.312 21.86 75.656C21.676 75.992 21.584 76.38 21.584 76.82C21.584 77.26 21.676 77.652 21.86 77.996C22.052 78.332 22.308 78.596 22.628 78.788C22.956 78.972 23.324 79.064 23.732 79.064ZM32.5784 71.6H36.1184C37.0064 71.6 37.7944 71.776 38.4824 72.128C39.1704 72.48 39.7024 72.976 40.0784 73.616C40.4624 74.248 40.6544 74.976 40.6544 75.8C40.6544 76.624 40.4624 77.356 40.0784 77.996C39.7024 78.628 39.1704 79.12 38.4824 79.472C37.7944 79.824 37.0064 80 36.1184 80H32.5784V71.6ZM36.0464 78.956C36.7264 78.956 37.3224 78.824 37.8344 78.56C38.3544 78.296 38.7544 77.928 39.0344 77.456C39.3144 76.976 39.4544 76.424 39.4544 75.8C39.4544 75.176 39.3144 74.628 39.0344 74.156C38.7544 73.676 38.3544 73.304 37.8344 73.04C37.3224 72.776 36.7264 72.644 36.0464 72.644H33.7784V78.956H36.0464ZM48.0724 76.856C48.0724 76.944 48.0644 77.06 48.0484 77.204H42.8884C42.9604 77.764 43.2044 78.216 43.6204 78.56C44.0444 78.896 44.5684 79.064 45.1924 79.064C45.9524 79.064 46.5644 78.808 47.0284 78.296L47.6644 79.04C47.3764 79.376 47.0164 79.632 46.5844 79.808C46.1604 79.984 45.6844 80.072 45.1564 80.072C44.4844 80.072 43.8884 79.936 43.3684 79.664C42.8484 79.384 42.4444 78.996 42.1564 78.5C41.8764 78.004 41.7364 77.444 41.7364 76.82C41.7364 76.204 41.8724 75.648 42.1444 75.152C42.4244 74.656 42.8044 74.272 43.2844 74C43.7724 73.72 44.3204 73.58 44.9284 73.58C45.5364 73.58 46.0764 73.72 46.5484 74C47.0284 74.272 47.4004 74.656 47.6644 75.152C47.9364 75.648 48.0724 76.216 48.0724 76.856ZM44.9284 74.552C44.3764 74.552 43.9124 74.72 43.5364 75.056C43.1684 75.392 42.9524 75.832 42.8884 76.376H46.9684C46.9044 75.84 46.6844 75.404 46.3084 75.068C45.9404 74.724 45.4804 74.552 44.9284 74.552ZM53.0681 73.58C53.8761 73.58 54.5161 73.816 54.9881 74.288C55.4681 74.752 55.7081 75.436 55.7081 76.34V80H54.5561V76.472C54.5561 75.856 54.4081 75.392 54.1121 75.08C53.8161 74.768 53.3921 74.612 52.8401 74.612C52.2161 74.612 51.7241 74.796 51.3641 75.164C51.0041 75.524 50.8241 76.044 50.8241 76.724V80H49.6721V73.64H50.7761V74.6C51.0081 74.272 51.3201 74.02 51.7121 73.844C52.1121 73.668 52.5641 73.58 53.0681 73.58ZM59.664 80.072C59.144 80.072 58.644 80.004 58.164 79.868C57.684 79.724 57.308 79.544 57.036 79.328L57.516 78.416C57.796 78.616 58.136 78.776 58.536 78.896C58.936 79.016 59.34 79.076 59.748 79.076C60.756 79.076 61.26 78.788 61.26 78.212C61.26 78.02 61.192 77.868 61.056 77.756C60.92 77.644 60.748 77.564 60.54 77.516C60.34 77.46 60.052 77.4 59.676 77.336C59.164 77.256 58.744 77.164 58.416 77.06C58.096 76.956 57.82 76.78 57.588 76.532C57.356 76.284 57.24 75.936 57.24 75.488C57.24 74.912 57.48 74.452 57.96 74.108C58.44 73.756 59.084 73.58 59.892 73.58C60.316 73.58 60.74 73.632 61.164 73.736C61.588 73.84 61.936 73.98 62.208 74.156L61.716 75.068C61.196 74.732 60.584 74.564 59.88 74.564C59.392 74.564 59.02 74.644 58.764 74.804C58.508 74.964 58.38 75.176 58.38 75.44C58.38 75.648 58.452 75.812 58.596 75.932C58.74 76.052 58.916 76.14 59.124 76.196C59.34 76.252 59.64 76.316 60.024 76.388C60.536 76.476 60.948 76.572 61.26 76.676C61.58 76.772 61.852 76.94 62.076 77.18C62.3 77.42 62.412 77.756 62.412 78.188C62.412 78.764 62.164 79.224 61.668 79.568C61.18 79.904 60.512 80.072 59.664 80.072ZM63.8518 73.64H65.0038V80H63.8518V73.64ZM64.4278 72.416C64.2038 72.416 64.0158 72.344 63.8638 72.2C63.7198 72.056 63.6478 71.88 63.6478 71.672C63.6478 71.464 63.7198 71.288 63.8638 71.144C64.0158 70.992 64.2038 70.916 64.4278 70.916C64.6518 70.916 64.8358 70.988 64.9798 71.132C65.1318 71.268 65.2078 71.44 65.2078 71.648C65.2078 71.864 65.1318 72.048 64.9798 72.2C64.8358 72.344 64.6518 72.416 64.4278 72.416ZM70.7793 79.628C70.6113 79.772 70.4033 79.884 70.1553 79.964C69.9073 80.036 69.6513 80.072 69.3873 80.072C68.7473 80.072 68.2513 79.9 67.8993 79.556C67.5473 79.212 67.3713 78.72 67.3713 78.08V74.588H66.2913V73.64H67.3713V72.248H68.5233V73.64H70.3473V74.588H68.5233V78.032C68.5233 78.376 68.6073 78.64 68.7753 78.824C68.9513 79.008 69.1993 79.1 69.5193 79.1C69.8713 79.1 70.1713 79 70.4193 78.8L70.7793 79.628ZM77.6829 73.64L74.5989 80.636C74.3269 81.284 74.0069 81.74 73.6389 82.004C73.2789 82.268 72.8429 82.4 72.3309 82.4C72.0189 82.4 71.7149 82.348 71.4189 82.244C71.1309 82.148 70.8909 82.004 70.6989 81.812L71.1909 80.948C71.5189 81.26 71.8989 81.416 72.3309 81.416C72.6109 81.416 72.8429 81.34 73.0269 81.188C73.2189 81.044 73.3909 80.792 73.5429 80.432L73.7469 79.988L70.9389 73.64H72.1389L74.3589 78.728L76.5549 73.64H77.6829Z" fill="#F9F9F9"/>
<path d="M13.3372 65.096C12.4892 65.096 11.7252 64.912 11.0452 64.544C10.3652 64.168 9.82916 63.652 9.43716 62.996C9.05316 62.34 8.86116 61.608 8.86116 60.8C8.86116 59.992 9.05316 59.26 9.43716 58.604C9.82916 57.948 10.3652 57.436 11.0452 57.068C11.7252 56.692 12.4892 56.504 13.3372 56.504C14.1772 56.504 14.9372 56.692 15.6172 57.068C16.2972 57.436 16.8292 57.948 17.2132 58.604C17.5972 59.252 17.7892 59.984 17.7892 60.8C17.7892 61.616 17.5972 62.352 17.2132 63.008C16.8292 63.656 16.2972 64.168 15.6172 64.544C14.9372 64.912 14.1772 65.096 13.3372 65.096ZM13.3372 64.028C13.9532 64.028 14.5052 63.888 14.9932 63.608C15.4892 63.328 15.8772 62.944 16.1572 62.456C16.4452 61.96 16.5892 61.408 16.5892 60.8C16.5892 60.192 16.4452 59.644 16.1572 59.156C15.8772 58.66 15.4892 58.272 14.9932 57.992C14.5052 57.712 13.9532 57.572 13.3372 57.572C12.7212 57.572 12.1612 57.712 11.6572 57.992C11.1612 58.272 10.7692 58.66 10.4812 59.156C10.2012 59.644 10.0612 60.192 10.0612 60.8C10.0612 61.408 10.2012 61.96 10.4812 62.456C10.7692 62.944 11.1612 63.328 11.6572 63.608C12.1612 63.888 12.7212 64.028 13.3372 64.028ZM19.4553 58.64H20.6073V65H19.4553V58.64ZM20.0313 57.416C19.8073 57.416 19.6193 57.344 19.4673 57.2C19.3233 57.056 19.2513 56.88 19.2513 56.672C19.2513 56.464 19.3233 56.288 19.4673 56.144C19.6193 55.992 19.8073 55.916 20.0313 55.916C20.2553 55.916 20.4393 55.988 20.5833 56.132C20.7353 56.268 20.8113 56.44 20.8113 56.648C20.8113 56.864 20.7353 57.048 20.5833 57.2C20.4393 57.344 20.2553 57.416 20.0313 57.416ZM22.8068 56.096H23.9588V65H22.8068V56.096ZM25.7504 61.208H28.9784V62.204H25.7504V61.208ZM34.1242 58.58C34.7402 58.58 35.2922 58.716 35.7802 58.988C36.2682 59.26 36.6482 59.64 36.9202 60.128C37.2002 60.616 37.3402 61.18 37.3402 61.82C37.3402 62.46 37.2002 63.028 36.9202 63.524C36.6482 64.012 36.2682 64.392 35.7802 64.664C35.2922 64.936 34.7402 65.072 34.1242 65.072C33.6522 65.072 33.2202 64.98 32.8282 64.796C32.4362 64.612 32.1122 64.344 31.8562 63.992V65H30.7522V56.096H31.9042V59.6C32.1602 59.264 32.4802 59.012 32.8642 58.844C33.2482 58.668 33.6682 58.58 34.1242 58.58ZM34.0282 64.064C34.4362 64.064 34.8002 63.972 35.1202 63.788C35.4482 63.596 35.7042 63.332 35.8882 62.996C36.0802 62.652 36.1762 62.26 36.1762 61.82C36.1762 61.38 36.0802 60.992 35.8882 60.656C35.7042 60.312 35.4482 60.048 35.1202 59.864C34.8002 59.68 34.4362 59.588 34.0282 59.588C33.6282 59.588 33.2642 59.68 32.9362 59.864C32.6082 60.048 32.3522 60.312 32.1682 60.656C31.9842 60.992 31.8922 61.38 31.8922 61.82C31.8922 62.26 31.9842 62.652 32.1682 62.996C32.3522 63.332 32.6082 63.596 32.9362 63.788C33.2642 63.972 33.6282 64.064 34.0282 64.064ZM41.1893 58.58C42.0693 58.58 42.7413 58.796 43.2053 59.228C43.6773 59.66 43.9133 60.304 43.9133 61.16V65H42.8213V64.16C42.6293 64.456 42.3533 64.684 41.9933 64.844C41.6413 64.996 41.2213 65.072 40.7333 65.072C40.0213 65.072 39.4493 64.9 39.0173 64.556C38.5933 64.212 38.3813 63.76 38.3813 63.2C38.3813 62.64 38.5853 62.192 38.9933 61.856C39.4013 61.512 40.0493 61.34 40.9373 61.34H42.7613V61.112C42.7613 60.616 42.6173 60.236 42.3293 59.972C42.0413 59.708 41.6173 59.576 41.0573 59.576C40.6813 59.576 40.3133 59.64 39.9533 59.768C39.5933 59.888 39.2893 60.052 39.0413 60.26L38.5613 59.396C38.8893 59.132 39.2813 58.932 39.7373 58.796C40.1933 58.652 40.6773 58.58 41.1893 58.58ZM40.9253 64.184C41.3653 64.184 41.7453 64.088 42.0653 63.896C42.3853 63.696 42.6173 63.416 42.7613 63.056V62.168H40.9853C40.0093 62.168 39.5213 62.496 39.5213 63.152C39.5213 63.472 39.6453 63.724 39.8933 63.908C40.1413 64.092 40.4853 64.184 40.9253 64.184ZM47.8691 65.072C47.3491 65.072 46.8491 65.004 46.3691 64.868C45.8891 64.724 45.5131 64.544 45.2411 64.328L45.7211 63.416C46.0011 63.616 46.3411 63.776 46.7411 63.896C47.1411 64.016 47.5451 64.076 47.9531 64.076C48.9611 64.076 49.4651 63.788 49.4651 63.212C49.4651 63.02 49.3971 62.868 49.2611 62.756C49.1251 62.644 48.9531 62.564 48.7451 62.516C48.5451 62.46 48.2571 62.4 47.8811 62.336C47.3691 62.256 46.9491 62.164 46.6211 62.06C46.3011 61.956 46.0251 61.78 45.7931 61.532C45.5611 61.284 45.4451 60.936 45.4451 60.488C45.4451 59.912 45.6851 59.452 46.1651 59.108C46.6451 58.756 47.2891 58.58 48.0971 58.58C48.5211 58.58 48.9451 58.632 49.3691 58.736C49.7931 58.84 50.1411 58.98 50.4131 59.156L49.9211 60.068C49.4011 59.732 48.7891 59.564 48.0851 59.564C47.5971 59.564 47.2251 59.644 46.9691 59.804C46.7131 59.964 46.5851 60.176 46.5851 60.44C46.5851 60.648 46.6571 60.812 46.8011 60.932C46.9451 61.052 47.1211 61.14 47.3291 61.196C47.5451 61.252 47.8451 61.316 48.2291 61.388C48.7411 61.476 49.1531 61.572 49.4651 61.676C49.7851 61.772 50.0571 61.94 50.2811 62.18C50.5051 62.42 50.6171 62.756 50.6171 63.188C50.6171 63.764 50.3691 64.224 49.8731 64.568C49.3851 64.904 48.7171 65.072 47.8691 65.072ZM57.8048 61.856C57.8048 61.944 57.7968 62.06 57.7808 62.204H52.6208C52.6928 62.764 52.9368 63.216 53.3528 63.56C53.7768 63.896 54.3008 64.064 54.9248 64.064C55.6848 64.064 56.2968 63.808 56.7608 63.296L57.3968 64.04C57.1088 64.376 56.7488 64.632 56.3168 64.808C55.8928 64.984 55.4168 65.072 54.8888 65.072C54.2168 65.072 53.6208 64.936 53.1008 64.664C52.5808 64.384 52.1768 63.996 51.8888 63.5C51.6088 63.004 51.4688 62.444 51.4688 61.82C51.4688 61.204 51.6048 60.648 51.8768 60.152C52.1568 59.656 52.5368 59.272 53.0168 59C53.5048 58.72 54.0528 58.58 54.6608 58.58C55.2688 58.58 55.8088 58.72 56.2808 59C56.7608 59.272 57.1328 59.656 57.3968 60.152C57.6688 60.648 57.8048 61.216 57.8048 61.856ZM54.6608 59.552C54.1088 59.552 53.6448 59.72 53.2688 60.056C52.9008 60.392 52.6848 60.832 52.6208 61.376H56.7008C56.6368 60.84 56.4168 60.404 56.0408 60.068C55.6728 59.724 55.2128 59.552 54.6608 59.552ZM65.4045 56.096V65H64.3005V63.992C64.0445 64.344 63.7205 64.612 63.3285 64.796C62.9365 64.98 62.5045 65.072 62.0325 65.072C61.4165 65.072 60.8645 64.936 60.3765 64.664C59.8885 64.392 59.5045 64.012 59.2245 63.524C58.9525 63.028 58.8165 62.46 58.8165 61.82C58.8165 61.18 58.9525 60.616 59.2245 60.128C59.5045 59.64 59.8885 59.26 60.3765 58.988C60.8645 58.716 61.4165 58.58 62.0325 58.58C62.4885 58.58 62.9085 58.668 63.2925 58.844C63.6765 59.012 63.9965 59.264 64.2525 59.6V56.096H65.4045ZM62.1285 64.064C62.5285 64.064 62.8925 63.972 63.2205 63.788C63.5485 63.596 63.8045 63.332 63.9885 62.996C64.1725 62.652 64.2645 62.26 64.2645 61.82C64.2645 61.38 64.1725 60.992 63.9885 60.656C63.8045 60.312 63.5485 60.048 63.2205 59.864C62.8925 59.68 62.5285 59.588 62.1285 59.588C61.7205 59.588 61.3525 59.68 61.0245 59.864C60.7045 60.048 60.4485 60.312 60.2565 60.656C60.0725 60.992 59.9805 61.38 59.9805 61.82C59.9805 62.26 60.0725 62.652 60.2565 62.996C60.4485 63.332 60.7045 63.596 61.0245 63.788C61.3525 63.972 61.7205 64.064 62.1285 64.064ZM9.38198 80L9.36998 73.88L6.33398 78.98H5.78198L2.74598 73.916V80H1.59398V71.6H2.57798L6.08198 77.504L9.53798 71.6H10.522L10.534 80H9.38198ZM18.8149 73.64V80H17.7229V79.04C17.4909 79.368 17.1829 79.624 16.7989 79.808C16.4229 79.984 16.0109 80.072 15.5629 80.072C14.7149 80.072 14.0469 79.84 13.5589 79.376C13.0709 78.904 12.8269 78.212 12.8269 77.3V73.64H13.9789V77.168C13.9789 77.784 14.1269 78.252 14.4229 78.572C14.7189 78.884 15.1429 79.04 15.6949 79.04C16.3029 79.04 16.7829 78.856 17.1349 78.488C17.4869 78.12 17.6629 77.6 17.6629 76.928V73.64H18.8149ZM27.008 71.096V80H25.904V78.992C25.648 79.344 25.324 79.612 24.932 79.796C24.54 79.98 24.108 80.072 23.636 80.072C23.02 80.072 22.468 79.936 21.98 79.664C21.492 79.392 21.108 79.012 20.828 78.524C20.556 78.028 20.42 77.46 20.42 76.82C20.42 76.18 20.556 75.616 20.828 75.128C21.108 74.64 21.492 74.26 21.98 73.988C22.468 73.716 23.02 73.58 23.636 73.58C24.092 73.58 24.512 73.668 24.896 73.844C25.28 74.012 25.6 74.264 25.856 74.6V71.096H27.008ZM23.732 79.064C24.132 79.064 24.496 78.972 24.824 78.788C25.152 78.596 25.408 78.332 25.592 77.996C25.776 77.652 25.868 77.26 25.868 76.82C25.868 76.38 25.776 75.992 25.592 75.656C25.408 75.312 25.152 75.048 24.824 74.864C24.496 74.68 24.132 74.588 23.732 74.588C23.324 74.588 22.956 74.68 22.628 74.864C22.308 75.048 22.052 75.312 21.86 75.656C21.676 75.992 21.584 76.38 21.584 76.82C21.584 77.26 21.676 77.652 21.86 77.996C22.052 78.332 22.308 78.596 22.628 78.788C22.956 78.972 23.324 79.064 23.732 79.064ZM32.5784 71.6H36.1184C37.0064 71.6 37.7944 71.776 38.4824 72.128C39.1704 72.48 39.7024 72.976 40.0784 73.616C40.4624 74.248 40.6544 74.976 40.6544 75.8C40.6544 76.624 40.4624 77.356 40.0784 77.996C39.7024 78.628 39.1704 79.12 38.4824 79.472C37.7944 79.824 37.0064 80 36.1184 80H32.5784V71.6ZM36.0464 78.956C36.7264 78.956 37.3224 78.824 37.8344 78.56C38.3544 78.296 38.7544 77.928 39.0344 77.456C39.3144 76.976 39.4544 76.424 39.4544 75.8C39.4544 75.176 39.3144 74.628 39.0344 74.156C38.7544 73.676 38.3544 73.304 37.8344 73.04C37.3224 72.776 36.7264 72.644 36.0464 72.644H33.7784V78.956H36.0464ZM48.0724 76.856C48.0724 76.944 48.0644 77.06 48.0484 77.204H42.8884C42.9604 77.764 43.2044 78.216 43.6204 78.56C44.0444 78.896 44.5684 79.064 45.1924 79.064C45.9524 79.064 46.5644 78.808 47.0284 78.296L47.6644 79.04C47.3764 79.376 47.0164 79.632 46.5844 79.808C46.1604 79.984 45.6844 80.072 45.1564 80.072C44.4844 80.072 43.8884 79.936 43.3684 79.664C42.8484 79.384 42.4444 78.996 42.1564 78.5C41.8764 78.004 41.7364 77.444 41.7364 76.82C41.7364 76.204 41.8724 75.648 42.1444 75.152C42.4244 74.656 42.8044 74.272 43.2844 74C43.7724 73.72 44.3204 73.58 44.9284 73.58C45.5364 73.58 46.0764 73.72 46.5484 74C47.0284 74.272 47.4004 74.656 47.6644 75.152C47.9364 75.648 48.0724 76.216 48.0724 76.856ZM44.9284 74.552C44.3764 74.552 43.9124 74.72 43.5364 75.056C43.1684 75.392 42.9524 75.832 42.8884 76.376H46.9684C46.9044 75.84 46.6844 75.404 46.3084 75.068C45.9404 74.724 45.4804 74.552 44.9284 74.552ZM53.0681 73.58C53.8761 73.58 54.5161 73.816 54.9881 74.288C55.4681 74.752 55.7081 75.436 55.7081 76.34V80H54.5561V76.472C54.5561 75.856 54.4081 75.392 54.1121 75.08C53.8161 74.768 53.3921 74.612 52.8401 74.612C52.2161 74.612 51.7241 74.796 51.3641 75.164C51.0041 75.524 50.8241 76.044 50.8241 76.724V80H49.6721V73.64H50.7761V74.6C51.0081 74.272 51.3201 74.02 51.7121 73.844C52.1121 73.668 52.5641 73.58 53.0681 73.58ZM59.664 80.072C59.144 80.072 58.644 80.004 58.164 79.868C57.684 79.724 57.308 79.544 57.036 79.328L57.516 78.416C57.796 78.616 58.136 78.776 58.536 78.896C58.936 79.016 59.34 79.076 59.748 79.076C60.756 79.076 61.26 78.788 61.26 78.212C61.26 78.02 61.192 77.868 61.056 77.756C60.92 77.644 60.748 77.564 60.54 77.516C60.34 77.46 60.052 77.4 59.676 77.336C59.164 77.256 58.744 77.164 58.416 77.06C58.096 76.956 57.82 76.78 57.588 76.532C57.356 76.284 57.24 75.936 57.24 75.488C57.24 74.912 57.48 74.452 57.96 74.108C58.44 73.756 59.084 73.58 59.892 73.58C60.316 73.58 60.74 73.632 61.164 73.736C61.588 73.84 61.936 73.98 62.208 74.156L61.716 75.068C61.196 74.732 60.584 74.564 59.88 74.564C59.392 74.564 59.02 74.644 58.764 74.804C58.508 74.964 58.38 75.176 58.38 75.44C58.38 75.648 58.452 75.812 58.596 75.932C58.74 76.052 58.916 76.14 59.124 76.196C59.34 76.252 59.64 76.316 60.024 76.388C60.536 76.476 60.948 76.572 61.26 76.676C61.58 76.772 61.852 76.94 62.076 77.18C62.3 77.42 62.412 77.756 62.412 78.188C62.412 78.764 62.164 79.224 61.668 79.568C61.18 79.904 60.512 80.072 59.664 80.072ZM63.8518 73.64H65.0038V80H63.8518V73.64ZM64.4278 72.416C64.2038 72.416 64.0158 72.344 63.8638 72.2C63.7198 72.056 63.6478 71.88 63.6478 71.672C63.6478 71.464 63.7198 71.288 63.8638 71.144C64.0158 70.992 64.2038 70.916 64.4278 70.916C64.6518 70.916 64.8358 70.988 64.9798 71.132C65.1318 71.268 65.2078 71.44 65.2078 71.648C65.2078 71.864 65.1318 72.048 64.9798 72.2C64.8358 72.344 64.6518 72.416 64.4278 72.416ZM70.7793 79.628C70.6113 79.772 70.4033 79.884 70.1553 79.964C69.9073 80.036 69.6513 80.072 69.3873 80.072C68.7473 80.072 68.2513 79.9 67.8993 79.556C67.5473 79.212 67.3713 78.72 67.3713 78.08V74.588H66.2913V73.64H67.3713V72.248H68.5233V73.64H70.3473V74.588H68.5233V78.032C68.5233 78.376 68.6073 78.64 68.7753 78.824C68.9513 79.008 69.1993 79.1 69.5193 79.1C69.8713 79.1 70.1713 79 70.4193 78.8L70.7793 79.628ZM77.6829 73.64L74.5989 80.636C74.3269 81.284 74.0069 81.74 73.6389 82.004C73.2789 82.268 72.8429 82.4 72.3309 82.4C72.0189 82.4 71.7149 82.348 71.4189 82.244C71.1309 82.148 70.8909 82.004 70.6989 81.812L71.1909 80.948C71.5189 81.26 71.8989 81.416 72.3309 81.416C72.6109 81.416 72.8429 81.34 73.0269 81.188C73.2189 81.044 73.3909 80.792 73.5429 80.432L73.7469 79.988L70.9389 73.64H72.1389L74.3589 78.728L76.5549 73.64H77.6829Z" fill="#F9F9F9"/>
<path d="M13.3372 65.096C12.4892 65.096 11.7252 64.912 11.0452 64.544C10.3652 64.168 9.82916 63.652 9.43716 62.996C9.05316 62.34 8.86116 61.608 8.86116 60.8C8.86116 59.992 9.05316 59.26 9.43716 58.604C9.82916 57.948 10.3652 57.436 11.0452 57.068C11.7252 56.692 12.4892 56.504 13.3372 56.504C14.1772 56.504 14.9372 56.692 15.6172 57.068C16.2972 57.436 16.8292 57.948 17.2132 58.604C17.5972 59.252 17.7892 59.984 17.7892 60.8C17.7892 61.616 17.5972 62.352 17.2132 63.008C16.8292 63.656 16.2972 64.168 15.6172 64.544C14.9372 64.912 14.1772 65.096 13.3372 65.096ZM13.3372 64.028C13.9532 64.028 14.5052 63.888 14.9932 63.608C15.4892 63.328 15.8772 62.944 16.1572 62.456C16.4452 61.96 16.5892 61.408 16.5892 60.8C16.5892 60.192 16.4452 59.644 16.1572 59.156C15.8772 58.66 15.4892 58.272 14.9932 57.992C14.5052 57.712 13.9532 57.572 13.3372 57.572C12.7212 57.572 12.1612 57.712 11.6572 57.992C11.1612 58.272 10.7692 58.66 10.4812 59.156C10.2012 59.644 10.0612 60.192 10.0612 60.8C10.0612 61.408 10.2012 61.96 10.4812 62.456C10.7692 62.944 11.1612 63.328 11.6572 63.608C12.1612 63.888 12.7212 64.028 13.3372 64.028ZM19.4553 58.64H20.6073V65H19.4553V58.64ZM20.0313 57.416C19.8073 57.416 19.6193 57.344 19.4673 57.2C19.3233 57.056 19.2513 56.88 19.2513 56.672C19.2513 56.464 19.3233 56.288 19.4673 56.144C19.6193 55.992 19.8073 55.916 20.0313 55.916C20.2553 55.916 20.4393 55.988 20.5833 56.132C20.7353 56.268 20.8113 56.44 20.8113 56.648C20.8113 56.864 20.7353 57.048 20.5833 57.2C20.4393 57.344 20.2553 57.416 20.0313 57.416ZM22.8068 56.096H23.9588V65H22.8068V56.096ZM25.7504 61.208H28.9784V62.204H25.7504V61.208ZM34.1242 58.58C34.7402 58.58 35.2922 58.716 35.7802 58.988C36.2682 59.26 36.6482 59.64 36.9202 60.128C37.2002 60.616 37.3402 61.18 37.3402 61.82C37.3402 62.46 37.2002 63.028 36.9202 63.524C36.6482 64.012 36.2682 64.392 35.7802 64.664C35.2922 64.936 34.7402 65.072 34.1242 65.072C33.6522 65.072 33.2202 64.98 32.8282 64.796C32.4362 64.612 32.1122 64.344 31.8562 63.992V65H30.7522V56.096H31.9042V59.6C32.1602 59.264 32.4802 59.012 32.8642 58.844C33.2482 58.668 33.6682 58.58 34.1242 58.58ZM34.0282 64.064C34.4362 64.064 34.8002 63.972 35.1202 63.788C35.4482 63.596 35.7042 63.332 35.8882 62.996C36.0802 62.652 36.1762 62.26 36.1762 61.82C36.1762 61.38 36.0802 60.992 35.8882 60.656C35.7042 60.312 35.4482 60.048 35.1202 59.864C34.8002 59.68 34.4362 59.588 34.0282 59.588C33.6282 59.588 33.2642 59.68 32.9362 59.864C32.6082 60.048 32.3522 60.312 32.1682 60.656C31.9842 60.992 31.8922 61.38 31.8922 61.82C31.8922 62.26 31.9842 62.652 32.1682 62.996C32.3522 63.332 32.6082 63.596 32.9362 63.788C33.2642 63.972 33.6282 64.064 34.0282 64.064ZM41.1893 58.58C42.0693 58.58 42.7413 58.796 43.2053 59.228C43.6773 59.66 43.9133 60.304 43.9133 61.16V65H42.8213V64.16C42.6293 64.456 42.3533 64.684 41.9933 64.844C41.6413 64.996 41.2213 65.072 40.7333 65.072C40.0213 65.072 39.4493 64.9 39.0173 64.556C38.5933 64.212 38.3813 63.76 38.3813 63.2C38.3813 62.64 38.5853 62.192 38.9933 61.856C39.4013 61.512 40.0493 61.34 40.9373 61.34H42.7613V61.112C42.7613 60.616 42.6173 60.236 42.3293 59.972C42.0413 59.708 41.6173 59.576 41.0573 59.576C40.6813 59.576 40.3133 59.64 39.9533 59.768C39.5933 59.888 39.2893 60.052 39.0413 60.26L38.5613 59.396C38.8893 59.132 39.2813 58.932 39.7373 58.796C40.1933 58.652 40.6773 58.58 41.1893 58.58ZM40.9253 64.184C41.3653 64.184 41.7453 64.088 42.0653 63.896C42.3853 63.696 42.6173 63.416 42.7613 63.056V62.168H40.9853C40.0093 62.168 39.5213 62.496 39.5213 63.152C39.5213 63.472 39.6453 63.724 39.8933 63.908C40.1413 64.092 40.4853 64.184 40.9253 64.184ZM47.8691 65.072C47.3491 65.072 46.8491 65.004 46.3691 64.868C45.8891 64.724 45.5131 64.544 45.2411 64.328L45.7211 63.416C46.0011 63.616 46.3411 63.776 46.7411 63.896C47.1411 64.016 47.5451 64.076 47.9531 64.076C48.9611 64.076 49.4651 63.788 49.4651 63.212C49.4651 63.02 49.3971 62.868 49.2611 62.756C49.1251 62.644 48.9531 62.564 48.7451 62.516C48.5451 62.46 48.2571 62.4 47.8811 62.336C47.3691 62.256 46.9491 62.164 46.6211 62.06C46.3011 61.956 46.0251 61.78 45.7931 61.532C45.5611 61.284 45.4451 60.936 45.4451 60.488C45.4451 59.912 45.6851 59.452 46.1651 59.108C46.6451 58.756 47.2891 58.58 48.0971 58.58C48.5211 58.58 48.9451 58.632 49.3691 58.736C49.7931 58.84 50.1411 58.98 50.4131 59.156L49.9211 60.068C49.4011 59.732 48.7891 59.564 48.0851 59.564C47.5971 59.564 47.2251 59.644 46.9691 59.804C46.7131 59.964 46.5851 60.176 46.5851 60.44C46.5851 60.648 46.6571 60.812 46.8011 60.932C46.9451 61.052 47.1211 61.14 47.3291 61.196C47.5451 61.252 47.8451 61.316 48.2291 61.388C48.7411 61.476 49.1531 61.572 49.4651 61.676C49.7851 61.772 50.0571 61.94 50.2811 62.18C50.5051 62.42 50.6171 62.756 50.6171 63.188C50.6171 63.764 50.3691 64.224 49.8731 64.568C49.3851 64.904 48.7171 65.072 47.8691 65.072ZM57.8048 61.856C57.8048 61.944 57.7968 62.06 57.7808 62.204H52.6208C52.6928 62.764 52.9368 63.216 53.3528 63.56C53.7768 63.896 54.3008 64.064 54.9248 64.064C55.6848 64.064 56.2968 63.808 56.7608 63.296L57.3968 64.04C57.1088 64.376 56.7488 64.632 56.3168 64.808C55.8928 64.984 55.4168 65.072 54.8888 65.072C54.2168 65.072 53.6208 64.936 53.1008 64.664C52.5808 64.384 52.1768 63.996 51.8888 63.5C51.6088 63.004 51.4688 62.444 51.4688 61.82C51.4688 61.204 51.6048 60.648 51.8768 60.152C52.1568 59.656 52.5368 59.272 53.0168 59C53.5048 58.72 54.0528 58.58 54.6608 58.58C55.2688 58.58 55.8088 58.72 56.2808 59C56.7608 59.272 57.1328 59.656 57.3968 60.152C57.6688 60.648 57.8048 61.216 57.8048 61.856ZM54.6608 59.552C54.1088 59.552 53.6448 59.72 53.2688 60.056C52.9008 60.392 52.6848 60.832 52.6208 61.376H56.7008C56.6368 60.84 56.4168 60.404 56.0408 60.068C55.6728 59.724 55.2128 59.552 54.6608 59.552ZM65.4045 56.096V65H64.3005V63.992C64.0445 64.344 63.7205 64.612 63.3285 64.796C62.9365 64.98 62.5045 65.072 62.0325 65.072C61.4165 65.072 60.8645 64.936 60.3765 64.664C59.8885 64.392 59.5045 64.012 59.2245 63.524C58.9525 63.028 58.8165 62.46 58.8165 61.82C58.8165 61.18 58.9525 60.616 59.2245 60.128C59.5045 59.64 59.8885 59.26 60.3765 58.988C60.8645 58.716 61.4165 58.58 62.0325 58.58C62.4885 58.58 62.9085 58.668 63.2925 58.844C63.6765 59.012 63.9965 59.264 64.2525 59.6V56.096H65.4045ZM62.1285 64.064C62.5285 64.064 62.8925 63.972 63.2205 63.788C63.5485 63.596 63.8045 63.332 63.9885 62.996C64.1725 62.652 64.2645 62.26 64.2645 61.82C64.2645 61.38 64.1725 60.992 63.9885 60.656C63.8045 60.312 63.5485 60.048 63.2205 59.864C62.8925 59.68 62.5285 59.588 62.1285 59.588C61.7205 59.588 61.3525 59.68 61.0245 59.864C60.7045 60.048 60.4485 60.312 60.2565 60.656C60.0725 60.992 59.9805 61.38 59.9805 61.82C59.9805 62.26 60.0725 62.652 60.2565 62.996C60.4485 63.332 60.7045 63.596 61.0245 63.788C61.3525 63.972 61.7205 64.064 62.1285 64.064ZM9.38198 80L9.36998 73.88L6.33398 78.98H5.78198L2.74598 73.916V80H1.59398V71.6H2.57798L6.08198 77.504L9.53798 71.6H10.522L10.534 80H9.38198ZM18.8149 73.64V80H17.7229V79.04C17.4909 79.368 17.1829 79.624 16.7989 79.808C16.4229 79.984 16.0109 80.072 15.5629 80.072C14.7149 80.072 14.0469 79.84 13.5589 79.376C13.0709 78.904 12.8269 78.212 12.8269 77.3V73.64H13.9789V77.168C13.9789 77.784 14.1269 78.252 14.4229 78.572C14.7189 78.884 15.1429 79.04 15.6949 79.04C16.3029 79.04 16.7829 78.856 17.1349 78.488C17.4869 78.12 17.6629 77.6 17.6629 76.928V73.64H18.8149ZM27.008 71.096V80H25.904V78.992C25.648 79.344 25.324 79.612 24.932 79.796C24.54 79.98 24.108 80.072 23.636 80.072C23.02 80.072 22.468 79.936 21.98 79.664C21.492 79.392 21.108 79.012 20.828 78.524C20.556 78.028 20.42 77.46 20.42 76.82C20.42 76.18 20.556 75.616 20.828 75.128C21.108 74.64 21.492 74.26 21.98 73.988C22.468 73.716 23.02 73.58 23.636 73.58C24.092 73.58 24.512 73.668 24.896 73.844C25.28 74.012 25.6 74.264 25.856 74.6V71.096H27.008ZM23.732 79.064C24.132 79.064 24.496 78.972 24.824 78.788C25.152 78.596 25.408 78.332 25.592 77.996C25.776 77.652 25.868 77.26 25.868 76.82C25.868 76.38 25.776 75.992 25.592 75.656C25.408 75.312 25.152 75.048 24.824 74.864C24.496 74.68 24.132 74.588 23.732 74.588C23.324 74.588 22.956 74.68 22.628 74.864C22.308 75.048 22.052 75.312 21.86 75.656C21.676 75.992 21.584 76.38 21.584 76.82C21.584 77.26 21.676 77.652 21.86 77.996C22.052 78.332 22.308 78.596 22.628 78.788C22.956 78.972 23.324 79.064 23.732 79.064ZM32.5784 71.6H36.1184C37.0064 71.6 37.7944 71.776 38.4824 72.128C39.1704 72.48 39.7024 72.976 40.0784 73.616C40.4624 74.248 40.6544 74.976 40.6544 75.8C40.6544 76.624 40.4624 77.356 40.0784 77.996C39.7024 78.628 39.1704 79.12 38.4824 79.472C37.7944 79.824 37.0064 80 36.1184 80H32.5784V71.6ZM36.0464 78.956C36.7264 78.956 37.3224 78.824 37.8344 78.56C38.3544 78.296 38.7544 77.928 39.0344 77.456C39.3144 76.976 39.4544 76.424 39.4544 75.8C39.4544 75.176 39.3144 74.628 39.0344 74.156C38.7544 73.676 38.3544 73.304 37.8344 73.04C37.3224 72.776 36.7264 72.644 36.0464 72.644H33.7784V78.956H36.0464ZM48.0724 76.856C48.0724 76.944 48.0644 77.06 48.0484 77.204H42.8884C42.9604 77.764 43.2044 78.216 43.6204 78.56C44.0444 78.896 44.5684 79.064 45.1924 79.064C45.9524 79.064 46.5644 78.808 47.0284 78.296L47.6644 79.04C47.3764 79.376 47.0164 79.632 46.5844 79.808C46.1604 79.984 45.6844 80.072 45.1564 80.072C44.4844 80.072 43.8884 79.936 43.3684 79.664C42.8484 79.384 42.4444 78.996 42.1564 78.5C41.8764 78.004 41.7364 77.444 41.7364 76.82C41.7364 76.204 41.8724 75.648 42.1444 75.152C42.4244 74.656 42.8044 74.272 43.2844 74C43.7724 73.72 44.3204 73.58 44.9284 73.58C45.5364 73.58 46.0764 73.72 46.5484 74C47.0284 74.272 47.4004 74.656 47.6644 75.152C47.9364 75.648 48.0724 76.216 48.0724 76.856ZM44.9284 74.552C44.3764 74.552 43.9124 74.72 43.5364 75.056C43.1684 75.392 42.9524 75.832 42.8884 76.376H46.9684C46.9044 75.84 46.6844 75.404 46.3084 75.068C45.9404 74.724 45.4804 74.552 44.9284 74.552ZM53.0681 73.58C53.8761 73.58 54.5161 73.816 54.9881 74.288C55.4681 74.752 55.7081 75.436 55.7081 76.34V80H54.5561V76.472C54.5561 75.856 54.4081 75.392 54.1121 75.08C53.8161 74.768 53.3921 74.612 52.8401 74.612C52.2161 74.612 51.7241 74.796 51.3641 75.164C51.0041 75.524 50.8241 76.044 50.8241 76.724V80H49.6721V73.64H50.7761V74.6C51.0081 74.272 51.3201 74.02 51.7121 73.844C52.1121 73.668 52.5641 73.58 53.0681 73.58ZM59.664 80.072C59.144 80.072 58.644 80.004 58.164 79.868C57.684 79.724 57.308 79.544 57.036 79.328L57.516 78.416C57.796 78.616 58.136 78.776 58.536 78.896C58.936 79.016 59.34 79.076 59.748 79.076C60.756 79.076 61.26 78.788 61.26 78.212C61.26 78.02 61.192 77.868 61.056 77.756C60.92 77.644 60.748 77.564 60.54 77.516C60.34 77.46 60.052 77.4 59.676 77.336C59.164 77.256 58.744 77.164 58.416 77.06C58.096 76.956 57.82 76.78 57.588 76.532C57.356 76.284 57.24 75.936 57.24 75.488C57.24 74.912 57.48 74.452 57.96 74.108C58.44 73.756 59.084 73.58 59.892 73.58C60.316 73.58 60.74 73.632 61.164 73.736C61.588 73.84 61.936 73.98 62.208 74.156L61.716 75.068C61.196 74.732 60.584 74.564 59.88 74.564C59.392 74.564 59.02 74.644 58.764 74.804C58.508 74.964 58.38 75.176 58.38 75.44C58.38 75.648 58.452 75.812 58.596 75.932C58.74 76.052 58.916 76.14 59.124 76.196C59.34 76.252 59.64 76.316 60.024 76.388C60.536 76.476 60.948 76.572 61.26 76.676C61.58 76.772 61.852 76.94 62.076 77.18C62.3 77.42 62.412 77.756 62.412 78.188C62.412 78.764 62.164 79.224 61.668 79.568C61.18 79.904 60.512 80.072 59.664 80.072ZM63.8518 73.64H65.0038V80H63.8518V73.64ZM64.4278 72.416C64.2038 72.416 64.0158 72.344 63.8638 72.2C63.7198 72.056 63.6478 71.88 63.6478 71.672C63.6478 71.464 63.7198 71.288 63.8638 71.144C64.0158 70.992 64.2038 70.916 64.4278 70.916C64.6518 70.916 64.8358 70.988 64.9798 71.132C65.1318 71.268 65.2078 71.44 65.2078 71.648C65.2078 71.864 65.1318 72.048 64.9798 72.2C64.8358 72.344 64.6518 72.416 64.4278 72.416ZM70.7793 79.628C70.6113 79.772 70.4033 79.884 70.1553 79.964C69.9073 80.036 69.6513 80.072 69.3873 80.072C68.7473 80.072 68.2513 79.9 67.8993 79.556C67.5473 79.212 67.3713 78.72 67.3713 78.08V74.588H66.2913V73.64H67.3713V72.248H68.5233V73.64H70.3473V74.588H68.5233V78.032C68.5233 78.376 68.6073 78.64 68.7753 78.824C68.9513 79.008 69.1993 79.1 69.5193 79.1C69.8713 79.1 70.1713 79 70.4193 78.8L70.7793 79.628ZM77.6829 73.64L74.5989 80.636C74.3269 81.284 74.0069 81.74 73.6389 82.004C73.2789 82.268 72.8429 82.4 72.3309 82.4C72.0189 82.4 71.7149 82.348 71.4189 82.244C71.1309 82.148 70.8909 82.004 70.6989 81.812L71.1909 80.948C71.5189 81.26 71.8989 81.416 72.3309 81.416C72.6109 81.416 72.8429 81.34 73.0269 81.188C73.2189 81.044 73.3909 80.792 73.5429 80.432L73.7469 79.988L70.9389 73.64H72.1389L74.3589 78.728L76.5549 73.64H77.6829Z" fill="#F9F9F9"/>
<path d="M13.3372 65.096C12.4892 65.096 11.7252 64.912 11.0452 64.544C10.3652 64.168 9.82916 63.652 9.43716 62.996C9.05316 62.34 8.86116 61.608 8.86116 60.8C8.86116 59.992 9.05316 59.26 9.43716 58.604C9.82916 57.948 10.3652 57.436 11.0452 57.068C11.7252 56.692 12.4892 56.504 13.3372 56.504C14.1772 56.504 14.9372 56.692 15.6172 57.068C16.2972 57.436 16.8292 57.948 17.2132 58.604C17.5972 59.252 17.7892 59.984 17.7892 60.8C17.7892 61.616 17.5972 62.352 17.2132 63.008C16.8292 63.656 16.2972 64.168 15.6172 64.544C14.9372 64.912 14.1772 65.096 13.3372 65.096ZM13.3372 64.028C13.9532 64.028 14.5052 63.888 14.9932 63.608C15.4892 63.328 15.8772 62.944 16.1572 62.456C16.4452 61.96 16.5892 61.408 16.5892 60.8C16.5892 60.192 16.4452 59.644 16.1572 59.156C15.8772 58.66 15.4892 58.272 14.9932 57.992C14.5052 57.712 13.9532 57.572 13.3372 57.572C12.7212 57.572 12.1612 57.712 11.6572 57.992C11.1612 58.272 10.7692 58.66 10.4812 59.156C10.2012 59.644 10.0612 60.192 10.0612 60.8C10.0612 61.408 10.2012 61.96 10.4812 62.456C10.7692 62.944 11.1612 63.328 11.6572 63.608C12.1612 63.888 12.7212 64.028 13.3372 64.028ZM19.4553 58.64H20.6073V65H19.4553V58.64ZM20.0313 57.416C19.8073 57.416 19.6193 57.344 19.4673 57.2C19.3233 57.056 19.2513 56.88 19.2513 56.672C19.2513 56.464 19.3233 56.288 19.4673 56.144C19.6193 55.992 19.8073 55.916 20.0313 55.916C20.2553 55.916 20.4393 55.988 20.5833 56.132C20.7353 56.268 20.8113 56.44 20.8113 56.648C20.8113 56.864 20.7353 57.048 20.5833 57.2C20.4393 57.344 20.2553 57.416 20.0313 57.416ZM22.8068 56.096H23.9588V65H22.8068V56.096ZM25.7504 61.208H28.9784V62.204H25.7504V61.208ZM34.1242 58.58C34.7402 58.58 35.2922 58.716 35.7802 58.988C36.2682 59.26 36.6482 59.64 36.9202 60.128C37.2002 60.616 37.3402 61.18 37.3402 61.82C37.3402 62.46 37.2002 63.028 36.9202 63.524C36.6482 64.012 36.2682 64.392 35.7802 64.664C35.2922 64.936 34.7402 65.072 34.1242 65.072C33.6522 65.072 33.2202 64.98 32.8282 64.796C32.4362 64.612 32.1122 64.344 31.8562 63.992V65H30.7522V56.096H31.9042V59.6C32.1602 59.264 32.4802 59.012 32.8642 58.844C33.2482 58.668 33.6682 58.58 34.1242 58.58ZM34.0282 64.064C34.4362 64.064 34.8002 63.972 35.1202 63.788C35.4482 63.596 35.7042 63.332 35.8882 62.996C36.0802 62.652 36.1762 62.26 36.1762 61.82C36.1762 61.38 36.0802 60.992 35.8882 60.656C35.7042 60.312 35.4482 60.048 35.1202 59.864C34.8002 59.68 34.4362 59.588 34.0282 59.588C33.6282 59.588 33.2642 59.68 32.9362 59.864C32.6082 60.048 32.3522 60.312 32.1682 60.656C31.9842 60.992 31.8922 61.38 31.8922 61.82C31.8922 62.26 31.9842 62.652 32.1682 62.996C32.3522 63.332 32.6082 63.596 32.9362 63.788C33.2642 63.972 33.6282 64.064 34.0282 64.064ZM41.1893 58.58C42.0693 58.58 42.7413 58.796 43.2053 59.228C43.6773 59.66 43.9133 60.304 43.9133 61.16V65H42.8213V64.16C42.6293 64.456 42.3533 64.684 41.9933 64.844C41.6413 64.996 41.2213 65.072 40.7333 65.072C40.0213 65.072 39.4493 64.9 39.0173 64.556C38.5933 64.212 38.3813 63.76 38.3813 63.2C38.3813 62.64 38.5853 62.192 38.9933 61.856C39.4013 61.512 40.0493 61.34 40.9373 61.34H42.7613V61.112C42.7613 60.616 42.6173 60.236 42.3293 59.972C42.0413 59.708 41.6173 59.576 41.0573 59.576C40.6813 59.576 40.3133 59.64 39.9533 59.768C39.5933 59.888 39.2893 60.052 39.0413 60.26L38.5613 59.396C38.8893 59.132 39.2813 58.932 39.7373 58.796C40.1933 58.652 40.6773 58.58 41.1893 58.58ZM40.9253 64.184C41.3653 64.184 41.7453 64.088 42.0653 63.896C42.3853 63.696 42.6173 63.416 42.7613 63.056V62.168H40.9853C40.0093 62.168 39.5213 62.496 39.5213 63.152C39.5213 63.472 39.6453 63.724 39.8933 63.908C40.1413 64.092 40.4853 64.184 40.9253 64.184ZM47.8691 65.072C47.3491 65.072 46.8491 65.004 46.3691 64.868C45.8891 64.724 45.5131 64.544 45.2411 64.328L45.7211 63.416C46.0011 63.616 46.3411 63.776 46.7411 63.896C47.1411 64.016 47.5451 64.076 47.9531 64.076C48.9611 64.076 49.4651 63.788 49.4651 63.212C49.4651 63.02 49.3971 62.868 49.2611 62.756C49.1251 62.644 48.9531 62.564 48.7451 62.516C48.5451 62.46 48.2571 62.4 47.8811 62.336C47.3691 62.256 46.9491 62.164 46.6211 62.06C46.3011 61.956 46.0251 61.78 45.7931 61.532C45.5611 61.284 45.4451 60.936 45.4451 60.488C45.4451 59.912 45.6851 59.452 46.1651 59.108C46.6451 58.756 47.2891 58.58 48.0971 58.58C48.5211 58.58 48.9451 58.632 49.3691 58.736C49.7931 58.84 50.1411 58.98 50.4131 59.156L49.9211 60.068C49.4011 59.732 48.7891 59.564 48.0851 59.564C47.5971 59.564 47.2251 59.644 46.9691 59.804C46.7131 59.964 46.5851 60.176 46.5851 60.44C46.5851 60.648 46.6571 60.812 46.8011 60.932C46.9451 61.052 47.1211 61.14 47.3291 61.196C47.5451 61.252 47.8451 61.316 48.2291 61.388C48.7411 61.476 49.1531 61.572 49.4651 61.676C49.7851 61.772 50.0571 61.94 50.2811 62.18C50.5051 62.42 50.6171 62.756 50.6171 63.188C50.6171 63.764 50.3691 64.224 49.8731 64.568C49.3851 64.904 48.7171 65.072 47.8691 65.072ZM57.8048 61.856C57.8048 61.944 57.7968 62.06 57.7808 62.204H52.6208C52.6928 62.764 52.9368 63.216 53.3528 63.56C53.7768 63.896 54.3008 64.064 54.9248 64.064C55.6848 64.064 56.2968 63.808 56.7608 63.296L57.3968 64.04C57.1088 64.376 56.7488 64.632 56.3168 64.808C55.8928 64.984 55.4168 65.072 54.8888 65.072C54.2168 65.072 53.6208 64.936 53.1008 64.664C52.5808 64.384 52.1768 63.996 51.8888 63.5C51.6088 63.004 51.4688 62.444 51.4688 61.82C51.4688 61.204 51.6048 60.648 51.8768 60.152C52.1568 59.656 52.5368 59.272 53.0168 59C53.5048 58.72 54.0528 58.58 54.6608 58.58C55.2688 58.58 55.8088 58.72 56.2808 59C56.7608 59.272 57.1328 59.656 57.3968 60.152C57.6688 60.648 57.8048 61.216 57.8048 61.856ZM54.6608 59.552C54.1088 59.552 53.6448 59.72 53.2688 60.056C52.9008 60.392 52.6848 60.832 52.6208 61.376H56.7008C56.6368 60.84 56.4168 60.404 56.0408 60.068C55.6728 59.724 55.2128 59.552 54.6608 59.552ZM65.4045 56.096V65H64.3005V63.992C64.0445 64.344 63.7205 64.612 63.3285 64.796C62.9365 64.98 62.5045 65.072 62.0325 65.072C61.4165 65.072 60.8645 64.936 60.3765 64.664C59.8885 64.392 59.5045 64.012 59.2245 63.524C58.9525 63.028 58.8165 62.46 58.8165 61.82C58.8165 61.18 58.9525 60.616 59.2245 60.128C59.5045 59.64 59.8885 59.26 60.3765 58.988C60.8645 58.716 61.4165 58.58 62.0325 58.58C62.4885 58.58 62.9085 58.668 63.2925 58.844C63.6765 59.012 63.9965 59.264 64.2525 59.6V56.096H65.4045ZM62.1285 64.064C62.5285 64.064 62.8925 63.972 63.2205 63.788C63.5485 63.596 63.8045 63.332 63.9885 62.996C64.1725 62.652 64.2645 62.26 64.2645 61.82C64.2645 61.38 64.1725 60.992 63.9885 60.656C63.8045 60.312 63.5485 60.048 63.2205 59.864C62.8925 59.68 62.5285 59.588 62.1285 59.588C61.7205 59.588 61.3525 59.68 61.0245 59.864C60.7045 60.048 60.4485 60.312 60.2565 60.656C60.0725 60.992 59.9805 61.38 59.9805 61.82C59.9805 62.26 60.0725 62.652 60.2565 62.996C60.4485 63.332 60.7045 63.596 61.0245 63.788C61.3525 63.972 61.7205 64.064 62.1285 64.064ZM9.38198 80L9.36998 73.88L6.33398 78.98H5.78198L2.74598 73.916V80H1.59398V71.6H2.57798L6.08198 77.504L9.53798 71.6H10.522L10.534 80H9.38198ZM18.8149 73.64V80H17.7229V79.04C17.4909 79.368 17.1829 79.624 16.7989 79.808C16.4229 79.984 16.0109 80.072 15.5629 80.072C14.7149 80.072 14.0469 79.84 13.5589 79.376C13.0709 78.904 12.8269 78.212 12.8269 77.3V73.64H13.9789V77.168C13.9789 77.784 14.1269 78.252 14.4229 78.572C14.7189 78.884 15.1429 79.04 15.6949 79.04C16.3029 79.04 16.7829 78.856 17.1349 78.488C17.4869 78.12 17.6629 77.6 17.6629 76.928V73.64H18.8149ZM27.008 71.096V80H25.904V78.992C25.648 79.344 25.324 79.612 24.932 79.796C24.54 79.98 24.108 80.072 23.636 80.072C23.02 80.072 22.468 79.936 21.98 79.664C21.492 79.392 21.108 79.012 20.828 78.524C20.556 78.028 20.42 77.46 20.42 76.82C20.42 76.18 20.556 75.616 20.828 75.128C21.108 74.64 21.492 74.26 21.98 73.988C22.468 73.716 23.02 73.58 23.636 73.58C24.092 73.58 24.512 73.668 24.896 73.844C25.28 74.012 25.6 74.264 25.856 74.6V71.096H27.008ZM23.732 79.064C24.132 79.064 24.496 78.972 24.824 78.788C25.152 78.596 25.408 78.332 25.592 77.996C25.776 77.652 25.868 77.26 25.868 76.82C25.868 76.38 25.776 75.992 25.592 75.656C25.408 75.312 25.152 75.048 24.824 74.864C24.496 74.68 24.132 74.588 23.732 74.588C23.324 74.588 22.956 74.68 22.628 74.864C22.308 75.048 22.052 75.312 21.86 75.656C21.676 75.992 21.584 76.38 21.584 76.82C21.584 77.26 21.676 77.652 21.86 77.996C22.052 78.332 22.308 78.596 22.628 78.788C22.956 78.972 23.324 79.064 23.732 79.064ZM32.5784 71.6H36.1184C37.0064 71.6 37.7944 71.776 38.4824 72.128C39.1704 72.48 39.7024 72.976 40.0784 73.616C40.4624 74.248 40.6544 74.976 40.6544 75.8C40.6544 76.624 40.4624 77.356 40.0784 77.996C39.7024 78.628 39.1704 79.12 38.4824 79.472C37.7944 79.824 37.0064 80 36.1184 80H32.5784V71.6ZM36.0464 78.956C36.7264 78.956 37.3224 78.824 37.8344 78.56C38.3544 78.296 38.7544 77.928 39.0344 77.456C39.3144 76.976 39.4544 76.424 39.4544 75.8C39.4544 75.176 39.3144 74.628 39.0344 74.156C38.7544 73.676 38.3544 73.304 37.8344 73.04C37.3224 72.776 36.7264 72.644 36.0464 72.644H33.7784V78.956H36.0464ZM48.0724 76.856C48.0724 76.944 48.0644 77.06 48.0484 77.204H42.8884C42.9604 77.764 43.2044 78.216 43.6204 78.56C44.0444 78.896 44.5684 79.064 45.1924 79.064C45.9524 79.064 46.5644 78.808 47.0284 78.296L47.6644 79.04C47.3764 79.376 47.0164 79.632 46.5844 79.808C46.1604 79.984 45.6844 80.072 45.1564 80.072C44.4844 80.072 43.8884 79.936 43.3684 79.664C42.8484 79.384 42.4444 78.996 42.1564 78.5C41.8764 78.004 41.7364 77.444 41.7364 76.82C41.7364 76.204 41.8724 75.648 42.1444 75.152C42.4244 74.656 42.8044 74.272 43.2844 74C43.7724 73.72 44.3204 73.58 44.9284 73.58C45.5364 73.58 46.0764 73.72 46.5484 74C47.0284 74.272 47.4004 74.656 47.6644 75.152C47.9364 75.648 48.0724 76.216 48.0724 76.856ZM44.9284 74.552C44.3764 74.552 43.9124 74.72 43.5364 75.056C43.1684 75.392 42.9524 75.832 42.8884 76.376H46.9684C46.9044 75.84 46.6844 75.404 46.3084 75.068C45.9404 74.724 45.4804 74.552 44.9284 74.552ZM53.0681 73.58C53.8761 73.58 54.5161 73.816 54.9881 74.288C55.4681 74.752 55.7081 75.436 55.7081 76.34V80H54.5561V76.472C54.5561 75.856 54.4081 75.392 54.1121 75.08C53.8161 74.768 53.3921 74.612 52.8401 74.612C52.2161 74.612 51.7241 74.796 51.3641 75.164C51.0041 75.524 50.8241 76.044 50.8241 76.724V80H49.6721V73.64H50.7761V74.6C51.0081 74.272 51.3201 74.02 51.7121 73.844C52.1121 73.668 52.5641 73.58 53.0681 73.58ZM59.664 80.072C59.144 80.072 58.644 80.004 58.164 79.868C57.684 79.724 57.308 79.544 57.036 79.328L57.516 78.416C57.796 78.616 58.136 78.776 58.536 78.896C58.936 79.016 59.34 79.076 59.748 79.076C60.756 79.076 61.26 78.788 61.26 78.212C61.26 78.02 61.192 77.868 61.056 77.756C60.92 77.644 60.748 77.564 60.54 77.516C60.34 77.46 60.052 77.4 59.676 77.336C59.164 77.256 58.744 77.164 58.416 77.06C58.096 76.956 57.82 76.78 57.588 76.532C57.356 76.284 57.24 75.936 57.24 75.488C57.24 74.912 57.48 74.452 57.96 74.108C58.44 73.756 59.084 73.58 59.892 73.58C60.316 73.58 60.74 73.632 61.164 73.736C61.588 73.84 61.936 73.98 62.208 74.156L61.716 75.068C61.196 74.732 60.584 74.564 59.88 74.564C59.392 74.564 59.02 74.644 58.764 74.804C58.508 74.964 58.38 75.176 58.38 75.44C58.38 75.648 58.452 75.812 58.596 75.932C58.74 76.052 58.916 76.14 59.124 76.196C59.34 76.252 59.64 76.316 60.024 76.388C60.536 76.476 60.948 76.572 61.26 76.676C61.58 76.772 61.852 76.94 62.076 77.18C62.3 77.42 62.412 77.756 62.412 78.188C62.412 78.764 62.164 79.224 61.668 79.568C61.18 79.904 60.512 80.072 59.664 80.072ZM63.8518 73.64H65.0038V80H63.8518V73.64ZM64.4278 72.416C64.2038 72.416 64.0158 72.344 63.8638 72.2C63.7198 72.056 63.6478 71.88 63.6478 71.672C63.6478 71.464 63.7198 71.288 63.8638 71.144C64.0158 70.992 64.2038 70.916 64.4278 70.916C64.6518 70.916 64.8358 70.988 64.9798 71.132C65.1318 71.268 65.2078 71.44 65.2078 71.648C65.2078 71.864 65.1318 72.048 64.9798 72.2C64.8358 72.344 64.6518 72.416 64.4278 72.416ZM70.7793 79.628C70.6113 79.772 70.4033 79.884 70.1553 79.964C69.9073 80.036 69.6513 80.072 69.3873 80.072C68.7473 80.072 68.2513 79.9 67.8993 79.556C67.5473 79.212 67.3713 78.72 67.3713 78.08V74.588H66.2913V73.64H67.3713V72.248H68.5233V73.64H70.3473V74.588H68.5233V78.032C68.5233 78.376 68.6073 78.64 68.7753 78.824C68.9513 79.008 69.1993 79.1 69.5193 79.1C69.8713 79.1 70.1713 79 70.4193 78.8L70.7793 79.628ZM77.6829 73.64L74.5989 80.636C74.3269 81.284 74.0069 81.74 73.6389 82.004C73.2789 82.268 72.8429 82.4 72.3309 82.4C72.0189 82.4 71.7149 82.348 71.4189 82.244C71.1309 82.148 70.8909 82.004 70.6989 81.812L71.1909 80.948C71.5189 81.26 71.8989 81.416 72.3309 81.416C72.6109 81.416 72.8429 81.34 73.0269 81.188C73.2189 81.044 73.3909 80.792 73.5429 80.432L73.7469 79.988L70.9389 73.64H72.1389L74.3589 78.728L76.5549 73.64H77.6829Z" fill="#F9F9F9"/>
<path d="M38 46C26.5706 46 15 42.8966 15 36.9642C15 35.5442 15.7174 33.4588 19.1362 31.5821C19.9368 31.1456 20.9296 31.4375 21.3677 32.2327C21.8042 33.0284 21.5123 34.0272 20.7177 34.4637C19.1953 35.2988 18.2857 36.2336 18.2857 36.9642C18.2857 39.3091 25.9655 42.7142 38 42.7142C50.0345 42.7142 57.7143 39.3091 57.7143 36.9642C57.7143 36.2325 56.8047 35.2972 55.2807 34.462C54.485 34.0256 54.1931 33.0267 54.6295 32.2321C55.0644 31.4364 56.0638 31.1434 56.8595 31.581C60.281 33.4571 61 35.5436 61 36.9642C61 42.8966 49.4294 46 38 46Z" fill="#F9F9F9"/>
<path d="M38 39.4285C29.8465 39.4285 23.2143 32.7951 23.2143 24.6425C23.2143 12.466 36.3621 0.889757 36.9217 0.402917C37.5411 -0.134306 38.4589 -0.134306 39.0783 0.402917C39.6379 0.889757 52.7857 12.466 52.7857 24.6425C52.7857 32.7951 46.1535 39.4285 38 39.4285ZM38.0017 3.88911C34.9536 6.84739 26.5 15.8482 26.5 24.6425C26.5 30.9841 31.6597 36.1427 38 36.1427C44.3403 36.1427 49.5 30.9841 49.5 24.6425C49.5 15.8312 41.0497 6.84356 38.0017 3.88911Z" fill="#F9F9F9"/>
<path d="M41.8426 30.2168C41.1625 29.6166 41.0968 28.5789 41.6964 27.8987C42.4905 26.9968 42.9286 25.8407 42.9286 24.6425C42.9286 23.7844 42.7747 22.8337 42.4729 21.819C42.2128 20.9493 42.7073 20.0348 43.5769 19.7752C44.4559 19.5162 45.3627 20.0118 45.6207 20.8809C46.0155 22.2001 46.2143 23.4657 46.2143 24.6425C46.2143 26.6414 45.4843 28.569 44.1607 30.0712C43.5611 30.7541 42.5206 30.8165 41.8426 30.2168Z" fill="#F9F9F9"/>
</svg>
