<svg width="62" height="76" viewBox="0 0 62 76" fill="none" xmlns="http://www.w3.org/2000/svg">
<path d="M1.824 60.8H6.384C7.568 60.8 8.61333 61.04 9.52 61.52C10.4267 61.9893 11.1307 62.6507 11.632 63.504C12.1333 64.3467 12.384 65.312 12.384 66.4C12.384 67.488 12.1333 68.4587 11.632 69.312C11.1307 70.1547 10.4267 70.816 9.52 71.296C8.61333 71.7653 7.568 72 6.384 72H1.824V60.8ZM6.32 70.976C7.30133 70.976 8.16 70.784 8.896 70.4C9.632 70.0053 10.2027 69.4667 10.608 68.784C11.0133 68.0907 11.216 67.296 11.216 66.4C11.216 65.504 11.0133 64.7147 10.608 64.032C10.2027 63.3387 9.632 62.8 8.896 62.416C8.16 62.0213 7.30133 61.824 6.32 61.824H3.008V70.976H6.32ZM22.1308 68.144H15.0908C15.1548 69.0187 15.4908 69.728 16.0988 70.272C16.7068 70.8053 17.4748 71.072 18.4028 71.072C18.9254 71.072 19.4054 70.9813 19.8428 70.8C20.2801 70.608 20.6588 70.3307 20.9788 69.968L21.6188 70.704C21.2454 71.152 20.7761 71.4933 20.2108 71.728C19.6561 71.9627 19.0428 72.08 18.3708 72.08C17.5068 72.08 16.7388 71.8987 16.0668 71.536C15.4054 71.1627 14.8881 70.6507 14.5148 70C14.1414 69.3493 13.9548 68.6133 13.9548 67.792C13.9548 66.9707 14.1308 66.2347 14.4828 65.584C14.8454 64.9333 15.3361 64.4267 15.9548 64.064C16.5841 63.7013 17.2881 63.52 18.0668 63.52C18.8454 63.52 19.5441 63.7013 20.1628 64.064C20.7814 64.4267 21.2668 64.9333 21.6188 65.584C21.9708 66.224 22.1468 66.96 22.1468 67.792L22.1308 68.144ZM18.0668 64.496C17.2561 64.496 16.5734 64.7573 16.0188 65.28C15.4748 65.792 15.1654 66.464 15.0908 67.296H21.0588C20.9841 66.464 20.6694 65.792 20.1148 65.28C19.5708 64.7573 18.8881 64.496 18.0668 64.496ZM28.747 63.52C29.803 63.52 30.6403 63.8293 31.259 64.448C31.8883 65.056 32.203 65.9467 32.203 67.12V72H31.067V67.232C31.067 66.3573 30.8483 65.6907 30.411 65.232C29.9737 64.7733 29.3497 64.544 28.539 64.544C27.6323 64.544 26.9123 64.816 26.379 65.36C25.8563 65.8933 25.595 66.6347 25.595 67.584V72H24.459V63.584H25.547V65.136C25.8563 64.624 26.283 64.2293 26.827 63.952C27.3817 63.664 28.0217 63.52 28.747 63.52ZM37.5431 72.08C36.8605 72.08 36.2045 71.984 35.5751 71.792C34.9565 71.5893 34.4711 71.3387 34.1191 71.04L34.6311 70.144C34.9831 70.4213 35.4258 70.6507 35.9591 70.832C36.4925 71.0027 37.0471 71.088 37.6231 71.088C38.3911 71.088 38.9565 70.9707 39.3191 70.736C39.6925 70.4907 39.8791 70.1493 39.8791 69.712C39.8791 69.4027 39.7778 69.1627 39.5751 68.992C39.3725 68.8107 39.1165 68.6773 38.8071 68.592C38.4978 68.496 38.0871 68.4053 37.5751 68.32C36.8925 68.192 36.3431 68.064 35.9271 67.936C35.5111 67.7973 35.1538 67.568 34.8551 67.248C34.5671 66.928 34.4231 66.4853 34.4231 65.92C34.4231 65.216 34.7165 64.64 35.3031 64.192C35.8898 63.744 36.7058 63.52 37.7511 63.52C38.2951 63.52 38.8391 63.5947 39.3831 63.744C39.9271 63.8827 40.3751 64.0693 40.7271 64.304L40.2311 65.216C39.5378 64.736 38.7111 64.496 37.7511 64.496C37.0258 64.496 36.4765 64.624 36.1031 64.88C35.7405 65.136 35.5591 65.472 35.5591 65.888C35.5591 66.208 35.6605 66.464 35.8631 66.656C36.0765 66.848 36.3378 66.992 36.6471 67.088C36.9565 67.1733 37.3831 67.264 37.9271 67.36C38.5991 67.488 39.1378 67.616 39.5431 67.744C39.9485 67.872 40.2951 68.0907 40.5831 68.4C40.8711 68.7093 41.0151 69.136 41.0151 69.68C41.0151 70.416 40.7058 71.0027 40.0871 71.44C39.4791 71.8667 38.6311 72.08 37.5431 72.08ZM43.1153 63.584H44.2513V72H43.1153V63.584ZM43.6913 61.744C43.4566 61.744 43.2593 61.664 43.0993 61.504C42.9393 61.344 42.8593 61.152 42.8593 60.928C42.8593 60.7147 42.9393 60.528 43.0993 60.368C43.2593 60.208 43.4566 60.128 43.6913 60.128C43.9259 60.128 44.1233 60.208 44.2833 60.368C44.4433 60.5173 44.5233 60.6987 44.5233 60.912C44.5233 61.1467 44.4433 61.344 44.2833 61.504C44.1233 61.664 43.9259 61.744 43.6913 61.744ZM51.8441 71.488C51.6308 71.68 51.3641 71.8293 51.0441 71.936C50.7348 72.032 50.4095 72.08 50.0681 72.08C49.2788 72.08 48.6708 71.8667 48.2441 71.44C47.8175 71.0133 47.6041 70.4107 47.6041 69.632V64.544H46.1001V63.584H47.6041V61.744H48.7401V63.584H51.3001V64.544H48.7401V69.568C48.7401 70.0693 48.8628 70.4533 49.1081 70.72C49.3641 70.976 49.7268 71.104 50.1961 71.104C50.4308 71.104 50.6548 71.0667 50.8681 70.992C51.0921 70.9173 51.2841 70.8107 51.4441 70.672L51.8441 71.488ZM60.9433 68.144H53.9033C53.9673 69.0187 54.3033 69.728 54.9113 70.272C55.5193 70.8053 56.2873 71.072 57.2153 71.072C57.7379 71.072 58.2179 70.9813 58.6553 70.8C59.0926 70.608 59.4713 70.3307 59.7913 69.968L60.4313 70.704C60.0579 71.152 59.5886 71.4933 59.0233 71.728C58.4686 71.9627 57.8553 72.08 57.1833 72.08C56.3193 72.08 55.5513 71.8987 54.8793 71.536C54.2179 71.1627 53.7006 70.6507 53.3273 70C52.9539 69.3493 52.7673 68.6133 52.7673 67.792C52.7673 66.9707 52.9433 66.2347 53.2953 65.584C53.6579 64.9333 54.1486 64.4267 54.7673 64.064C55.3966 63.7013 56.1006 63.52 56.8793 63.52C57.6579 63.52 58.3566 63.7013 58.9753 64.064C59.5939 64.4267 60.0793 64.9333 60.4313 65.584C60.7833 66.224 60.9593 66.96 60.9593 67.792L60.9433 68.144ZM56.8793 64.496C56.0686 64.496 55.3859 64.7573 54.8313 65.28C54.2873 65.792 53.9779 66.464 53.9033 67.296H59.8713C59.7966 66.464 59.4819 65.792 58.9273 65.28C58.3833 64.7573 57.7006 64.496 56.8793 64.496Z" fill="#232323"/>
<path d="M31 14.4181C31 14.4181 21.661 22.3986 21.661 30.4746C21.661 35.5419 25.8422 39.6497 31 39.6497C36.1578 39.6497 40.339 35.5419 40.339 30.4746C40.339 22.3986 31 14.4181 31 14.4181ZM35.3776 34.2635C34.9473 34.7426 34.2083 34.7819 33.7305 34.3656C33.246 33.9466 33.2005 33.2222 33.6266 32.7473C34.1908 32.1177 34.5021 31.3111 34.5021 30.4746C34.5021 29.8755 34.3928 29.2122 34.1784 28.5046C33.9935 27.8975 34.3449 27.2579 34.9628 27.0779C35.5808 26.8986 36.2318 27.2415 36.415 27.8486C36.6956 28.7688 36.8369 29.6526 36.8369 30.4746C36.8369 31.87 36.3182 33.2164 35.3776 34.2635Z" fill="#232323"/>
<path d="M31 57.9999C16.5891 57.9999 2 54.087 2 46.6069C2 44.8165 2.90452 42.1871 7.21517 39.8208C8.22464 39.2705 9.47648 39.6385 10.0289 40.6411C10.5792 41.6444 10.2111 42.9038 9.20926 43.4542C7.28974 44.5071 6.14286 45.6858 6.14286 46.6069C6.14286 49.5636 15.8261 53.857 31 53.857C46.1739 53.857 55.8571 49.5636 55.8571 46.6069C55.8571 45.6844 54.7103 44.5051 52.7887 43.4521C51.7854 42.9018 51.4174 41.6423 51.9677 40.6404C52.5159 39.6371 53.7761 39.2677 54.7793 39.8194C59.0934 42.185 60 44.8158 60 46.6069C60 54.087 45.4109 57.9999 31 57.9999Z" fill="#232323"/>
<path d="M31 49.7142C20.7195 49.7142 12.3571 41.3503 12.3571 31.071C12.3571 15.7181 28.9348 1.12187 29.6404 0.508025C30.4214 -0.169342 31.5786 -0.169342 32.3595 0.508025C33.0652 1.12187 49.6428 15.7181 49.6428 31.071C49.6428 41.3503 41.2805 49.7142 31 49.7142ZM31.002 4.90366C27.1589 8.63367 16.5 19.9825 16.5 31.071C16.5 39.0669 23.0056 45.5712 31 45.5712C38.9943 45.5712 45.5 39.0669 45.5 31.071C45.5 19.9611 34.8452 8.62884 31.002 4.90366Z" fill="#232323"/>
</svg>
