<svg width="48" height="52" viewBox="0 0 48 52" fill="none" xmlns="http://www.w3.org/2000/svg">
<path d="M3.708 49.096C3.076 49.096 2.464 49 1.872 48.808C1.288 48.608 0.828 48.352 0.492 48.04L0.936 47.104C1.256 47.392 1.664 47.628 2.16 47.812C2.664 47.988 3.18 48.076 3.708 48.076C4.404 48.076 4.924 47.96 5.268 47.728C5.612 47.488 5.784 47.172 5.784 46.78C5.784 46.492 5.688 46.26 5.496 46.084C5.312 45.9 5.08 45.76 4.8 45.664C4.528 45.568 4.14 45.46 3.636 45.34C3.004 45.188 2.492 45.036 2.1 44.884C1.716 44.732 1.384 44.5 1.104 44.188C0.832 43.868 0.696 43.44 0.696 42.904C0.696 42.456 0.812 42.052 1.044 41.692C1.284 41.332 1.644 41.044 2.124 40.828C2.604 40.612 3.2 40.504 3.912 40.504C4.408 40.504 4.896 40.568 5.376 40.696C5.856 40.824 6.268 41.008 6.612 41.248L6.216 42.208C5.864 41.984 5.488 41.816 5.088 41.704C4.688 41.584 4.296 41.524 3.912 41.524C3.232 41.524 2.72 41.648 2.376 41.896C2.04 42.144 1.872 42.464 1.872 42.856C1.872 43.144 1.968 43.38 2.16 43.564C2.352 43.74 2.588 43.88 2.868 43.984C3.156 44.08 3.544 44.184 4.032 44.296C4.664 44.448 5.172 44.6 5.556 44.752C5.94 44.904 6.268 45.136 6.54 45.448C6.82 45.76 6.96 46.18 6.96 46.708C6.96 47.148 6.84 47.552 6.6 47.92C6.36 48.28 5.996 48.568 5.508 48.784C5.02 48.992 4.42 49.096 3.708 49.096ZM8.54513 42.64H9.69713V49H8.54513V42.64ZM9.12113 41.416C8.89713 41.416 8.70913 41.344 8.55713 41.2C8.41313 41.056 8.34113 40.88 8.34113 40.672C8.34113 40.464 8.41313 40.288 8.55713 40.144C8.70913 39.992 8.89713 39.916 9.12113 39.916C9.34513 39.916 9.52913 39.988 9.67313 40.132C9.82513 40.268 9.90113 40.44 9.90113 40.648C9.90113 40.864 9.82513 41.048 9.67313 41.2C9.52913 41.344 9.34513 41.416 9.12113 41.416ZM17.9807 42.64V48.136C17.9807 49.248 17.7047 50.068 17.1527 50.596C16.6007 51.132 15.7767 51.4 14.6807 51.4C14.0807 51.4 13.5087 51.316 12.9647 51.148C12.4207 50.988 11.9807 50.756 11.6447 50.452L12.1967 49.564C12.4927 49.82 12.8567 50.02 13.2887 50.164C13.7287 50.316 14.1807 50.392 14.6447 50.392C15.3887 50.392 15.9367 50.216 16.2887 49.864C16.6487 49.512 16.8287 48.976 16.8287 48.256V47.752C16.5567 48.08 16.2207 48.328 15.8207 48.496C15.4287 48.656 15.0007 48.736 14.5367 48.736C13.9287 48.736 13.3767 48.608 12.8807 48.352C12.3927 48.088 12.0087 47.724 11.7287 47.26C11.4487 46.788 11.3087 46.252 11.3087 45.652C11.3087 45.052 11.4487 44.52 11.7287 44.056C12.0087 43.584 12.3927 43.22 12.8807 42.964C13.3767 42.708 13.9287 42.58 14.5367 42.58C15.0167 42.58 15.4607 42.668 15.8687 42.844C16.2847 43.02 16.6247 43.28 16.8887 43.624V42.64H17.9807ZM14.6687 47.728C15.0847 47.728 15.4567 47.64 15.7847 47.464C16.1207 47.288 16.3807 47.044 16.5647 46.732C16.7567 46.412 16.8527 46.052 16.8527 45.652C16.8527 45.036 16.6487 44.54 16.2407 44.164C15.8327 43.78 15.3087 43.588 14.6687 43.588C14.0207 43.588 13.4927 43.78 13.0847 44.164C12.6767 44.54 12.4727 45.036 12.4727 45.652C12.4727 46.052 12.5647 46.412 12.7487 46.732C12.9407 47.044 13.2007 47.288 13.5287 47.464C13.8647 47.64 14.2447 47.728 14.6687 47.728ZM23.5778 42.58C24.3858 42.58 25.0258 42.816 25.4978 43.288C25.9778 43.752 26.2178 44.436 26.2178 45.34V49H25.0658V45.472C25.0658 44.856 24.9178 44.392 24.6218 44.08C24.3258 43.768 23.9018 43.612 23.3498 43.612C22.7258 43.612 22.2338 43.796 21.8738 44.164C21.5138 44.524 21.3338 45.044 21.3338 45.724V49H20.1818V42.64H21.2858V43.6C21.5178 43.272 21.8298 43.02 22.2218 42.844C22.6218 42.668 23.0738 42.58 23.5778 42.58ZM31.109 49.072C30.477 49.072 29.909 48.932 29.405 48.652C28.901 48.372 28.505 47.988 28.217 47.5C27.937 47.004 27.797 46.444 27.797 45.82C27.797 45.196 27.937 44.64 28.217 44.152C28.505 43.656 28.901 43.272 29.405 43C29.909 42.72 30.477 42.58 31.109 42.58C31.741 42.58 32.305 42.72 32.801 43C33.305 43.272 33.697 43.656 33.977 44.152C34.265 44.64 34.409 45.196 34.409 45.82C34.409 46.444 34.265 47.004 33.977 47.5C33.697 47.988 33.305 48.372 32.801 48.652C32.305 48.932 31.741 49.072 31.109 49.072ZM31.109 48.064C31.517 48.064 31.881 47.972 32.201 47.788C32.529 47.596 32.785 47.332 32.969 46.996C33.153 46.652 33.245 46.26 33.245 45.82C33.245 45.38 33.153 44.992 32.969 44.656C32.785 44.312 32.529 44.048 32.201 43.864C31.881 43.68 31.517 43.588 31.109 43.588C30.701 43.588 30.333 43.68 30.005 43.864C29.685 44.048 29.429 44.312 29.237 44.656C29.053 44.992 28.961 45.38 28.961 45.82C28.961 46.26 29.053 46.652 29.237 46.996C29.429 47.332 29.685 47.596 30.005 47.788C30.333 47.972 30.701 48.064 31.109 48.064ZM41.9302 42.64V49H40.8382V48.04C40.6062 48.368 40.2982 48.624 39.9142 48.808C39.5382 48.984 39.1262 49.072 38.6782 49.072C37.8302 49.072 37.1622 48.84 36.6742 48.376C36.1862 47.904 35.9422 47.212 35.9422 46.3V42.64H37.0942V46.168C37.0942 46.784 37.2422 47.252 37.5382 47.572C37.8342 47.884 38.2582 48.04 38.8102 48.04C39.4182 48.04 39.8982 47.856 40.2502 47.488C40.6022 47.12 40.7782 46.6 40.7782 45.928V42.64H41.9302ZM47.6993 48.628C47.5313 48.772 47.3233 48.884 47.0753 48.964C46.8273 49.036 46.5713 49.072 46.3073 49.072C45.6673 49.072 45.1713 48.9 44.8193 48.556C44.4673 48.212 44.2913 47.72 44.2913 47.08V43.588H43.2113V42.64H44.2913V41.248H45.4433V42.64H47.2673V43.588H45.4433V47.032C45.4433 47.376 45.5273 47.64 45.6953 47.824C45.8713 48.008 46.1193 48.1 46.4393 48.1C46.7913 48.1 47.0913 48 47.3393 47.8L47.6993 48.628Z" fill="#F9F9F9"/>
<path d="M3.708 49.096C3.076 49.096 2.464 49 1.872 48.808C1.288 48.608 0.828 48.352 0.492 48.04L0.936 47.104C1.256 47.392 1.664 47.628 2.16 47.812C2.664 47.988 3.18 48.076 3.708 48.076C4.404 48.076 4.924 47.96 5.268 47.728C5.612 47.488 5.784 47.172 5.784 46.78C5.784 46.492 5.688 46.26 5.496 46.084C5.312 45.9 5.08 45.76 4.8 45.664C4.528 45.568 4.14 45.46 3.636 45.34C3.004 45.188 2.492 45.036 2.1 44.884C1.716 44.732 1.384 44.5 1.104 44.188C0.832 43.868 0.696 43.44 0.696 42.904C0.696 42.456 0.812 42.052 1.044 41.692C1.284 41.332 1.644 41.044 2.124 40.828C2.604 40.612 3.2 40.504 3.912 40.504C4.408 40.504 4.896 40.568 5.376 40.696C5.856 40.824 6.268 41.008 6.612 41.248L6.216 42.208C5.864 41.984 5.488 41.816 5.088 41.704C4.688 41.584 4.296 41.524 3.912 41.524C3.232 41.524 2.72 41.648 2.376 41.896C2.04 42.144 1.872 42.464 1.872 42.856C1.872 43.144 1.968 43.38 2.16 43.564C2.352 43.74 2.588 43.88 2.868 43.984C3.156 44.08 3.544 44.184 4.032 44.296C4.664 44.448 5.172 44.6 5.556 44.752C5.94 44.904 6.268 45.136 6.54 45.448C6.82 45.76 6.96 46.18 6.96 46.708C6.96 47.148 6.84 47.552 6.6 47.92C6.36 48.28 5.996 48.568 5.508 48.784C5.02 48.992 4.42 49.096 3.708 49.096ZM8.54513 42.64H9.69713V49H8.54513V42.64ZM9.12113 41.416C8.89713 41.416 8.70913 41.344 8.55713 41.2C8.41313 41.056 8.34113 40.88 8.34113 40.672C8.34113 40.464 8.41313 40.288 8.55713 40.144C8.70913 39.992 8.89713 39.916 9.12113 39.916C9.34513 39.916 9.52913 39.988 9.67313 40.132C9.82513 40.268 9.90113 40.44 9.90113 40.648C9.90113 40.864 9.82513 41.048 9.67313 41.2C9.52913 41.344 9.34513 41.416 9.12113 41.416ZM17.9807 42.64V48.136C17.9807 49.248 17.7047 50.068 17.1527 50.596C16.6007 51.132 15.7767 51.4 14.6807 51.4C14.0807 51.4 13.5087 51.316 12.9647 51.148C12.4207 50.988 11.9807 50.756 11.6447 50.452L12.1967 49.564C12.4927 49.82 12.8567 50.02 13.2887 50.164C13.7287 50.316 14.1807 50.392 14.6447 50.392C15.3887 50.392 15.9367 50.216 16.2887 49.864C16.6487 49.512 16.8287 48.976 16.8287 48.256V47.752C16.5567 48.08 16.2207 48.328 15.8207 48.496C15.4287 48.656 15.0007 48.736 14.5367 48.736C13.9287 48.736 13.3767 48.608 12.8807 48.352C12.3927 48.088 12.0087 47.724 11.7287 47.26C11.4487 46.788 11.3087 46.252 11.3087 45.652C11.3087 45.052 11.4487 44.52 11.7287 44.056C12.0087 43.584 12.3927 43.22 12.8807 42.964C13.3767 42.708 13.9287 42.58 14.5367 42.58C15.0167 42.58 15.4607 42.668 15.8687 42.844C16.2847 43.02 16.6247 43.28 16.8887 43.624V42.64H17.9807ZM14.6687 47.728C15.0847 47.728 15.4567 47.64 15.7847 47.464C16.1207 47.288 16.3807 47.044 16.5647 46.732C16.7567 46.412 16.8527 46.052 16.8527 45.652C16.8527 45.036 16.6487 44.54 16.2407 44.164C15.8327 43.78 15.3087 43.588 14.6687 43.588C14.0207 43.588 13.4927 43.78 13.0847 44.164C12.6767 44.54 12.4727 45.036 12.4727 45.652C12.4727 46.052 12.5647 46.412 12.7487 46.732C12.9407 47.044 13.2007 47.288 13.5287 47.464C13.8647 47.64 14.2447 47.728 14.6687 47.728ZM23.5778 42.58C24.3858 42.58 25.0258 42.816 25.4978 43.288C25.9778 43.752 26.2178 44.436 26.2178 45.34V49H25.0658V45.472C25.0658 44.856 24.9178 44.392 24.6218 44.08C24.3258 43.768 23.9018 43.612 23.3498 43.612C22.7258 43.612 22.2338 43.796 21.8738 44.164C21.5138 44.524 21.3338 45.044 21.3338 45.724V49H20.1818V42.64H21.2858V43.6C21.5178 43.272 21.8298 43.02 22.2218 42.844C22.6218 42.668 23.0738 42.58 23.5778 42.58ZM31.109 49.072C30.477 49.072 29.909 48.932 29.405 48.652C28.901 48.372 28.505 47.988 28.217 47.5C27.937 47.004 27.797 46.444 27.797 45.82C27.797 45.196 27.937 44.64 28.217 44.152C28.505 43.656 28.901 43.272 29.405 43C29.909 42.72 30.477 42.58 31.109 42.58C31.741 42.58 32.305 42.72 32.801 43C33.305 43.272 33.697 43.656 33.977 44.152C34.265 44.64 34.409 45.196 34.409 45.82C34.409 46.444 34.265 47.004 33.977 47.5C33.697 47.988 33.305 48.372 32.801 48.652C32.305 48.932 31.741 49.072 31.109 49.072ZM31.109 48.064C31.517 48.064 31.881 47.972 32.201 47.788C32.529 47.596 32.785 47.332 32.969 46.996C33.153 46.652 33.245 46.26 33.245 45.82C33.245 45.38 33.153 44.992 32.969 44.656C32.785 44.312 32.529 44.048 32.201 43.864C31.881 43.68 31.517 43.588 31.109 43.588C30.701 43.588 30.333 43.68 30.005 43.864C29.685 44.048 29.429 44.312 29.237 44.656C29.053 44.992 28.961 45.38 28.961 45.82C28.961 46.26 29.053 46.652 29.237 46.996C29.429 47.332 29.685 47.596 30.005 47.788C30.333 47.972 30.701 48.064 31.109 48.064ZM41.9302 42.64V49H40.8382V48.04C40.6062 48.368 40.2982 48.624 39.9142 48.808C39.5382 48.984 39.1262 49.072 38.6782 49.072C37.8302 49.072 37.1622 48.84 36.6742 48.376C36.1862 47.904 35.9422 47.212 35.9422 46.3V42.64H37.0942V46.168C37.0942 46.784 37.2422 47.252 37.5382 47.572C37.8342 47.884 38.2582 48.04 38.8102 48.04C39.4182 48.04 39.8982 47.856 40.2502 47.488C40.6022 47.12 40.7782 46.6 40.7782 45.928V42.64H41.9302ZM47.6993 48.628C47.5313 48.772 47.3233 48.884 47.0753 48.964C46.8273 49.036 46.5713 49.072 46.3073 49.072C45.6673 49.072 45.1713 48.9 44.8193 48.556C44.4673 48.212 44.2913 47.72 44.2913 47.08V43.588H43.2113V42.64H44.2913V41.248H45.4433V42.64H47.2673V43.588H45.4433V47.032C45.4433 47.376 45.5273 47.64 45.6953 47.824C45.8713 48.008 46.1193 48.1 46.4393 48.1C46.7913 48.1 47.0913 48 47.3393 47.8L47.6993 48.628Z" fill="#F9F9F9"/>
<path d="M3.708 49.096C3.076 49.096 2.464 49 1.872 48.808C1.288 48.608 0.828 48.352 0.492 48.04L0.936 47.104C1.256 47.392 1.664 47.628 2.16 47.812C2.664 47.988 3.18 48.076 3.708 48.076C4.404 48.076 4.924 47.96 5.268 47.728C5.612 47.488 5.784 47.172 5.784 46.78C5.784 46.492 5.688 46.26 5.496 46.084C5.312 45.9 5.08 45.76 4.8 45.664C4.528 45.568 4.14 45.46 3.636 45.34C3.004 45.188 2.492 45.036 2.1 44.884C1.716 44.732 1.384 44.5 1.104 44.188C0.832 43.868 0.696 43.44 0.696 42.904C0.696 42.456 0.812 42.052 1.044 41.692C1.284 41.332 1.644 41.044 2.124 40.828C2.604 40.612 3.2 40.504 3.912 40.504C4.408 40.504 4.896 40.568 5.376 40.696C5.856 40.824 6.268 41.008 6.612 41.248L6.216 42.208C5.864 41.984 5.488 41.816 5.088 41.704C4.688 41.584 4.296 41.524 3.912 41.524C3.232 41.524 2.72 41.648 2.376 41.896C2.04 42.144 1.872 42.464 1.872 42.856C1.872 43.144 1.968 43.38 2.16 43.564C2.352 43.74 2.588 43.88 2.868 43.984C3.156 44.08 3.544 44.184 4.032 44.296C4.664 44.448 5.172 44.6 5.556 44.752C5.94 44.904 6.268 45.136 6.54 45.448C6.82 45.76 6.96 46.18 6.96 46.708C6.96 47.148 6.84 47.552 6.6 47.92C6.36 48.28 5.996 48.568 5.508 48.784C5.02 48.992 4.42 49.096 3.708 49.096ZM8.54513 42.64H9.69713V49H8.54513V42.64ZM9.12113 41.416C8.89713 41.416 8.70913 41.344 8.55713 41.2C8.41313 41.056 8.34113 40.88 8.34113 40.672C8.34113 40.464 8.41313 40.288 8.55713 40.144C8.70913 39.992 8.89713 39.916 9.12113 39.916C9.34513 39.916 9.52913 39.988 9.67313 40.132C9.82513 40.268 9.90113 40.44 9.90113 40.648C9.90113 40.864 9.82513 41.048 9.67313 41.2C9.52913 41.344 9.34513 41.416 9.12113 41.416ZM17.9807 42.64V48.136C17.9807 49.248 17.7047 50.068 17.1527 50.596C16.6007 51.132 15.7767 51.4 14.6807 51.4C14.0807 51.4 13.5087 51.316 12.9647 51.148C12.4207 50.988 11.9807 50.756 11.6447 50.452L12.1967 49.564C12.4927 49.82 12.8567 50.02 13.2887 50.164C13.7287 50.316 14.1807 50.392 14.6447 50.392C15.3887 50.392 15.9367 50.216 16.2887 49.864C16.6487 49.512 16.8287 48.976 16.8287 48.256V47.752C16.5567 48.08 16.2207 48.328 15.8207 48.496C15.4287 48.656 15.0007 48.736 14.5367 48.736C13.9287 48.736 13.3767 48.608 12.8807 48.352C12.3927 48.088 12.0087 47.724 11.7287 47.26C11.4487 46.788 11.3087 46.252 11.3087 45.652C11.3087 45.052 11.4487 44.52 11.7287 44.056C12.0087 43.584 12.3927 43.22 12.8807 42.964C13.3767 42.708 13.9287 42.58 14.5367 42.58C15.0167 42.58 15.4607 42.668 15.8687 42.844C16.2847 43.02 16.6247 43.28 16.8887 43.624V42.64H17.9807ZM14.6687 47.728C15.0847 47.728 15.4567 47.64 15.7847 47.464C16.1207 47.288 16.3807 47.044 16.5647 46.732C16.7567 46.412 16.8527 46.052 16.8527 45.652C16.8527 45.036 16.6487 44.54 16.2407 44.164C15.8327 43.78 15.3087 43.588 14.6687 43.588C14.0207 43.588 13.4927 43.78 13.0847 44.164C12.6767 44.54 12.4727 45.036 12.4727 45.652C12.4727 46.052 12.5647 46.412 12.7487 46.732C12.9407 47.044 13.2007 47.288 13.5287 47.464C13.8647 47.64 14.2447 47.728 14.6687 47.728ZM23.5778 42.58C24.3858 42.58 25.0258 42.816 25.4978 43.288C25.9778 43.752 26.2178 44.436 26.2178 45.34V49H25.0658V45.472C25.0658 44.856 24.9178 44.392 24.6218 44.08C24.3258 43.768 23.9018 43.612 23.3498 43.612C22.7258 43.612 22.2338 43.796 21.8738 44.164C21.5138 44.524 21.3338 45.044 21.3338 45.724V49H20.1818V42.64H21.2858V43.6C21.5178 43.272 21.8298 43.02 22.2218 42.844C22.6218 42.668 23.0738 42.58 23.5778 42.58ZM31.109 49.072C30.477 49.072 29.909 48.932 29.405 48.652C28.901 48.372 28.505 47.988 28.217 47.5C27.937 47.004 27.797 46.444 27.797 45.82C27.797 45.196 27.937 44.64 28.217 44.152C28.505 43.656 28.901 43.272 29.405 43C29.909 42.72 30.477 42.58 31.109 42.58C31.741 42.58 32.305 42.72 32.801 43C33.305 43.272 33.697 43.656 33.977 44.152C34.265 44.64 34.409 45.196 34.409 45.82C34.409 46.444 34.265 47.004 33.977 47.5C33.697 47.988 33.305 48.372 32.801 48.652C32.305 48.932 31.741 49.072 31.109 49.072ZM31.109 48.064C31.517 48.064 31.881 47.972 32.201 47.788C32.529 47.596 32.785 47.332 32.969 46.996C33.153 46.652 33.245 46.26 33.245 45.82C33.245 45.38 33.153 44.992 32.969 44.656C32.785 44.312 32.529 44.048 32.201 43.864C31.881 43.68 31.517 43.588 31.109 43.588C30.701 43.588 30.333 43.68 30.005 43.864C29.685 44.048 29.429 44.312 29.237 44.656C29.053 44.992 28.961 45.38 28.961 45.82C28.961 46.26 29.053 46.652 29.237 46.996C29.429 47.332 29.685 47.596 30.005 47.788C30.333 47.972 30.701 48.064 31.109 48.064ZM41.9302 42.64V49H40.8382V48.04C40.6062 48.368 40.2982 48.624 39.9142 48.808C39.5382 48.984 39.1262 49.072 38.6782 49.072C37.8302 49.072 37.1622 48.84 36.6742 48.376C36.1862 47.904 35.9422 47.212 35.9422 46.3V42.64H37.0942V46.168C37.0942 46.784 37.2422 47.252 37.5382 47.572C37.8342 47.884 38.2582 48.04 38.8102 48.04C39.4182 48.04 39.8982 47.856 40.2502 47.488C40.6022 47.12 40.7782 46.6 40.7782 45.928V42.64H41.9302ZM47.6993 48.628C47.5313 48.772 47.3233 48.884 47.0753 48.964C46.8273 49.036 46.5713 49.072 46.3073 49.072C45.6673 49.072 45.1713 48.9 44.8193 48.556C44.4673 48.212 44.2913 47.72 44.2913 47.08V43.588H43.2113V42.64H44.2913V41.248H45.4433V42.64H47.2673V43.588H45.4433V47.032C45.4433 47.376 45.5273 47.64 45.6953 47.824C45.8713 48.008 46.1193 48.1 46.4393 48.1C46.7913 48.1 47.0913 48 47.3393 47.8L47.6993 48.628Z" fill="#F9F9F9"/>
<path d="M3.708 49.096C3.076 49.096 2.464 49 1.872 48.808C1.288 48.608 0.828 48.352 0.492 48.04L0.936 47.104C1.256 47.392 1.664 47.628 2.16 47.812C2.664 47.988 3.18 48.076 3.708 48.076C4.404 48.076 4.924 47.96 5.268 47.728C5.612 47.488 5.784 47.172 5.784 46.78C5.784 46.492 5.688 46.26 5.496 46.084C5.312 45.9 5.08 45.76 4.8 45.664C4.528 45.568 4.14 45.46 3.636 45.34C3.004 45.188 2.492 45.036 2.1 44.884C1.716 44.732 1.384 44.5 1.104 44.188C0.832 43.868 0.696 43.44 0.696 42.904C0.696 42.456 0.812 42.052 1.044 41.692C1.284 41.332 1.644 41.044 2.124 40.828C2.604 40.612 3.2 40.504 3.912 40.504C4.408 40.504 4.896 40.568 5.376 40.696C5.856 40.824 6.268 41.008 6.612 41.248L6.216 42.208C5.864 41.984 5.488 41.816 5.088 41.704C4.688 41.584 4.296 41.524 3.912 41.524C3.232 41.524 2.72 41.648 2.376 41.896C2.04 42.144 1.872 42.464 1.872 42.856C1.872 43.144 1.968 43.38 2.16 43.564C2.352 43.74 2.588 43.88 2.868 43.984C3.156 44.08 3.544 44.184 4.032 44.296C4.664 44.448 5.172 44.6 5.556 44.752C5.94 44.904 6.268 45.136 6.54 45.448C6.82 45.76 6.96 46.18 6.96 46.708C6.96 47.148 6.84 47.552 6.6 47.92C6.36 48.28 5.996 48.568 5.508 48.784C5.02 48.992 4.42 49.096 3.708 49.096ZM8.54513 42.64H9.69713V49H8.54513V42.64ZM9.12113 41.416C8.89713 41.416 8.70913 41.344 8.55713 41.2C8.41313 41.056 8.34113 40.88 8.34113 40.672C8.34113 40.464 8.41313 40.288 8.55713 40.144C8.70913 39.992 8.89713 39.916 9.12113 39.916C9.34513 39.916 9.52913 39.988 9.67313 40.132C9.82513 40.268 9.90113 40.44 9.90113 40.648C9.90113 40.864 9.82513 41.048 9.67313 41.2C9.52913 41.344 9.34513 41.416 9.12113 41.416ZM17.9807 42.64V48.136C17.9807 49.248 17.7047 50.068 17.1527 50.596C16.6007 51.132 15.7767 51.4 14.6807 51.4C14.0807 51.4 13.5087 51.316 12.9647 51.148C12.4207 50.988 11.9807 50.756 11.6447 50.452L12.1967 49.564C12.4927 49.82 12.8567 50.02 13.2887 50.164C13.7287 50.316 14.1807 50.392 14.6447 50.392C15.3887 50.392 15.9367 50.216 16.2887 49.864C16.6487 49.512 16.8287 48.976 16.8287 48.256V47.752C16.5567 48.08 16.2207 48.328 15.8207 48.496C15.4287 48.656 15.0007 48.736 14.5367 48.736C13.9287 48.736 13.3767 48.608 12.8807 48.352C12.3927 48.088 12.0087 47.724 11.7287 47.26C11.4487 46.788 11.3087 46.252 11.3087 45.652C11.3087 45.052 11.4487 44.52 11.7287 44.056C12.0087 43.584 12.3927 43.22 12.8807 42.964C13.3767 42.708 13.9287 42.58 14.5367 42.58C15.0167 42.58 15.4607 42.668 15.8687 42.844C16.2847 43.02 16.6247 43.28 16.8887 43.624V42.64H17.9807ZM14.6687 47.728C15.0847 47.728 15.4567 47.64 15.7847 47.464C16.1207 47.288 16.3807 47.044 16.5647 46.732C16.7567 46.412 16.8527 46.052 16.8527 45.652C16.8527 45.036 16.6487 44.54 16.2407 44.164C15.8327 43.78 15.3087 43.588 14.6687 43.588C14.0207 43.588 13.4927 43.78 13.0847 44.164C12.6767 44.54 12.4727 45.036 12.4727 45.652C12.4727 46.052 12.5647 46.412 12.7487 46.732C12.9407 47.044 13.2007 47.288 13.5287 47.464C13.8647 47.64 14.2447 47.728 14.6687 47.728ZM23.5778 42.58C24.3858 42.58 25.0258 42.816 25.4978 43.288C25.9778 43.752 26.2178 44.436 26.2178 45.34V49H25.0658V45.472C25.0658 44.856 24.9178 44.392 24.6218 44.08C24.3258 43.768 23.9018 43.612 23.3498 43.612C22.7258 43.612 22.2338 43.796 21.8738 44.164C21.5138 44.524 21.3338 45.044 21.3338 45.724V49H20.1818V42.64H21.2858V43.6C21.5178 43.272 21.8298 43.02 22.2218 42.844C22.6218 42.668 23.0738 42.58 23.5778 42.58ZM31.109 49.072C30.477 49.072 29.909 48.932 29.405 48.652C28.901 48.372 28.505 47.988 28.217 47.5C27.937 47.004 27.797 46.444 27.797 45.82C27.797 45.196 27.937 44.64 28.217 44.152C28.505 43.656 28.901 43.272 29.405 43C29.909 42.72 30.477 42.58 31.109 42.58C31.741 42.58 32.305 42.72 32.801 43C33.305 43.272 33.697 43.656 33.977 44.152C34.265 44.64 34.409 45.196 34.409 45.82C34.409 46.444 34.265 47.004 33.977 47.5C33.697 47.988 33.305 48.372 32.801 48.652C32.305 48.932 31.741 49.072 31.109 49.072ZM31.109 48.064C31.517 48.064 31.881 47.972 32.201 47.788C32.529 47.596 32.785 47.332 32.969 46.996C33.153 46.652 33.245 46.26 33.245 45.82C33.245 45.38 33.153 44.992 32.969 44.656C32.785 44.312 32.529 44.048 32.201 43.864C31.881 43.68 31.517 43.588 31.109 43.588C30.701 43.588 30.333 43.68 30.005 43.864C29.685 44.048 29.429 44.312 29.237 44.656C29.053 44.992 28.961 45.38 28.961 45.82C28.961 46.26 29.053 46.652 29.237 46.996C29.429 47.332 29.685 47.596 30.005 47.788C30.333 47.972 30.701 48.064 31.109 48.064ZM41.9302 42.64V49H40.8382V48.04C40.6062 48.368 40.2982 48.624 39.9142 48.808C39.5382 48.984 39.1262 49.072 38.6782 49.072C37.8302 49.072 37.1622 48.84 36.6742 48.376C36.1862 47.904 35.9422 47.212 35.9422 46.3V42.64H37.0942V46.168C37.0942 46.784 37.2422 47.252 37.5382 47.572C37.8342 47.884 38.2582 48.04 38.8102 48.04C39.4182 48.04 39.8982 47.856 40.2502 47.488C40.6022 47.12 40.7782 46.6 40.7782 45.928V42.64H41.9302ZM47.6993 48.628C47.5313 48.772 47.3233 48.884 47.0753 48.964C46.8273 49.036 46.5713 49.072 46.3073 49.072C45.6673 49.072 45.1713 48.9 44.8193 48.556C44.4673 48.212 44.2913 47.72 44.2913 47.08V43.588H43.2113V42.64H44.2913V41.248H45.4433V42.64H47.2673V43.588H45.4433V47.032C45.4433 47.376 45.5273 47.64 45.6953 47.824C45.8713 48.008 46.1193 48.1 46.4393 48.1C46.7913 48.1 47.0913 48 47.3393 47.8L47.6993 48.628Z" fill="#F9F9F9"/>
<path d="M39.9999 15.4396C39.9997 17.92 39.3844 20.3617 38.2091 22.546C37.0339 24.7302 35.3352 26.589 33.2654 27.9558C31.1955 29.3225 28.819 30.1547 26.3487 30.3777C23.8783 30.6007 21.3912 30.2077 19.11 29.2337C16.8288 28.2597 14.8248 26.7353 13.2773 24.7968C11.7298 22.8583 10.6872 20.5664 10.2427 18.1261C9.79832 15.6858 9.96598 13.1734 10.7307 10.8139C11.4955 8.45428 12.8334 6.32118 14.6247 4.60553C14.726 4.5037 14.8467 4.4232 14.9796 4.36875C15.1125 4.31431 15.2549 4.28704 15.3985 4.28854C15.5421 4.29004 15.684 4.32029 15.8157 4.3775C15.9474 4.43471 16.0664 4.51772 16.1655 4.62164C16.2646 4.72555 16.342 4.84827 16.3929 4.98255C16.4438 5.11683 16.4674 5.25995 16.4621 5.40347C16.4568 5.54699 16.4229 5.688 16.3622 5.81818C16.3016 5.94836 16.2155 6.06508 16.109 6.16145C14.2576 7.93597 12.9796 10.2239 12.4394 12.7308C11.8992 15.2377 12.1215 17.849 13.0777 20.2285C14.0339 22.608 15.6803 24.647 17.805 26.083C19.9297 27.519 22.4355 28.2864 25 28.2864C27.5644 28.2864 30.0702 27.519 32.1949 26.083C34.3196 24.647 35.966 22.608 36.9222 20.2285C37.8785 17.849 38.1008 15.2377 37.5605 12.7308C37.0203 10.2239 35.7423 7.93597 33.8909 6.16145C33.7845 6.06508 33.6983 5.94836 33.6377 5.81818C33.5771 5.688 33.5431 5.54699 33.5378 5.40347C33.5326 5.25995 33.5561 5.11683 33.607 4.98255C33.658 4.84827 33.7353 4.72555 33.8344 4.62164C33.9335 4.51772 34.0525 4.43471 34.1842 4.3775C34.3159 4.32029 34.4578 4.29004 34.6014 4.28854C34.745 4.28704 34.8874 4.31431 35.0203 4.36875C35.1532 4.4232 35.2739 4.5037 35.3752 4.60553C36.8429 6.00146 38.0102 7.68241 38.8055 9.54537C39.6007 11.4083 40.0071 13.414 39.9999 15.4396ZM25 17.0457C25.1436 17.0458 25.2859 17.017 25.4183 16.9612C25.5507 16.9054 25.6705 16.8236 25.7708 16.7206C25.871 16.6177 25.9497 16.4957 26.002 16.3619C26.0543 16.2281 26.0793 16.0852 26.0755 15.9415V1.08498C26.0755 0.799737 25.9622 0.526173 25.7605 0.324474C25.5588 0.122774 25.2852 0.00946045 25 0.00946045C24.7147 0.00946045 24.4411 0.122774 24.2394 0.324474C24.0377 0.526173 23.9244 0.799737 23.9244 1.08498V15.9415C23.9206 16.0852 23.9456 16.2281 23.9979 16.3619C24.0503 16.4957 24.1289 16.6177 24.2291 16.7206C24.3294 16.8236 24.4492 16.9054 24.5816 16.9612C24.714 17.017 24.8563 17.0458 25 17.0457Z" fill="#F9F9F9"/>
</svg>
