<svg width="82" height="81" viewBox="0 0 82 81" fill="none" xmlns="http://www.w3.org/2000/svg">
<path d="M13.3292 54.6L10.5212 63H9.26117L6.96917 56.292L4.67717 63H3.39317L0.585172 54.6H1.82117L4.08917 61.428L6.45317 54.6H7.55717L9.87317 61.464L12.1892 54.6H13.3292ZM16.4646 56.58C17.3446 56.58 18.0166 56.796 18.4806 57.228C18.9526 57.66 19.1886 58.304 19.1886 59.16V63H18.0966V62.16C17.9046 62.456 17.6286 62.684 17.2686 62.844C16.9166 62.996 16.4966 63.072 16.0086 63.072C15.2966 63.072 14.7246 62.9 14.2926 62.556C13.8686 62.212 13.6566 61.76 13.6566 61.2C13.6566 60.64 13.8606 60.192 14.2686 59.856C14.6766 59.512 15.3246 59.34 16.2126 59.34H18.0366V59.112C18.0366 58.616 17.8926 58.236 17.6046 57.972C17.3166 57.708 16.8926 57.576 16.3326 57.576C15.9566 57.576 15.5886 57.64 15.2286 57.768C14.8686 57.888 14.5646 58.052 14.3166 58.26L13.8366 57.396C14.1646 57.132 14.5566 56.932 15.0126 56.796C15.4686 56.652 15.9526 56.58 16.4646 56.58ZM16.2006 62.184C16.6406 62.184 17.0206 62.088 17.3406 61.896C17.6606 61.696 17.8926 61.416 18.0366 61.056V60.168H16.2606C15.2846 60.168 14.7966 60.496 14.7966 61.152C14.7966 61.472 14.9206 61.724 15.1686 61.908C15.4166 62.092 15.7606 62.184 16.2006 62.184ZM24.8965 62.628C24.7285 62.772 24.5205 62.884 24.2725 62.964C24.0245 63.036 23.7685 63.072 23.5045 63.072C22.8645 63.072 22.3685 62.9 22.0165 62.556C21.6645 62.212 21.4885 61.72 21.4885 61.08V57.588H20.4085V56.64H21.4885V55.248H22.6405V56.64H24.4645V57.588H22.6405V61.032C22.6405 61.376 22.7245 61.64 22.8925 61.824C23.0685 62.008 23.3165 62.1 23.6365 62.1C23.9885 62.1 24.2885 62 24.5365 61.8L24.8965 62.628ZM31.8263 59.856C31.8263 59.944 31.8183 60.06 31.8023 60.204H26.6423C26.7143 60.764 26.9583 61.216 27.3743 61.56C27.7983 61.896 28.3223 62.064 28.9463 62.064C29.7063 62.064 30.3183 61.808 30.7823 61.296L31.4183 62.04C31.1303 62.376 30.7703 62.632 30.3383 62.808C29.9143 62.984 29.4383 63.072 28.9103 63.072C28.2383 63.072 27.6423 62.936 27.1223 62.664C26.6023 62.384 26.1983 61.996 25.9103 61.5C25.6303 61.004 25.4903 60.444 25.4903 59.82C25.4903 59.204 25.6263 58.648 25.8983 58.152C26.1783 57.656 26.5583 57.272 27.0383 57C27.5263 56.72 28.0743 56.58 28.6823 56.58C29.2903 56.58 29.8303 56.72 30.3023 57C30.7823 57.272 31.1543 57.656 31.4183 58.152C31.6903 58.648 31.8263 59.216 31.8263 59.856ZM28.6823 57.552C28.1303 57.552 27.6663 57.72 27.2903 58.056C26.9223 58.392 26.7063 58.832 26.6423 59.376H30.7223C30.6583 58.84 30.4383 58.404 30.0623 58.068C29.6943 57.724 29.2343 57.552 28.6823 57.552ZM34.53 57.708C34.73 57.34 35.026 57.06 35.418 56.868C35.81 56.676 36.286 56.58 36.846 56.58V57.696C36.782 57.688 36.694 57.684 36.582 57.684C35.958 57.684 35.466 57.872 35.106 58.248C34.754 58.616 34.578 59.144 34.578 59.832V63H33.426V56.64H34.53V57.708ZM37.8344 59.208H41.0624V60.204H37.8344V59.208ZM46.2081 56.58C46.8241 56.58 47.3761 56.716 47.8641 56.988C48.3521 57.26 48.7321 57.64 49.0041 58.128C49.2841 58.616 49.4241 59.18 49.4241 59.82C49.4241 60.46 49.2841 61.028 49.0041 61.524C48.7321 62.012 48.3521 62.392 47.8641 62.664C47.3761 62.936 46.8241 63.072 46.2081 63.072C45.7361 63.072 45.3041 62.98 44.9121 62.796C44.5201 62.612 44.1961 62.344 43.9401 61.992V63H42.8361V54.096H43.9881V57.6C44.2441 57.264 44.5641 57.012 44.9481 56.844C45.3321 56.668 45.7521 56.58 46.2081 56.58ZM46.1121 62.064C46.5201 62.064 46.8841 61.972 47.2041 61.788C47.5321 61.596 47.7881 61.332 47.9721 60.996C48.1641 60.652 48.2601 60.26 48.2601 59.82C48.2601 59.38 48.1641 58.992 47.9721 58.656C47.7881 58.312 47.5321 58.048 47.2041 57.864C46.8841 57.68 46.5201 57.588 46.1121 57.588C45.7121 57.588 45.3481 57.68 45.0201 57.864C44.6921 58.048 44.4361 58.312 44.2521 58.656C44.0681 58.992 43.9761 59.38 43.9761 59.82C43.9761 60.26 44.0681 60.652 44.2521 60.996C44.4361 61.332 44.6921 61.596 45.0201 61.788C45.3481 61.972 45.7121 62.064 46.1121 62.064ZM53.2732 56.58C54.1532 56.58 54.8252 56.796 55.2892 57.228C55.7612 57.66 55.9972 58.304 55.9972 59.16V63H54.9052V62.16C54.7132 62.456 54.4372 62.684 54.0772 62.844C53.7252 62.996 53.3052 63.072 52.8172 63.072C52.1052 63.072 51.5332 62.9 51.1012 62.556C50.6772 62.212 50.4652 61.76 50.4652 61.2C50.4652 60.64 50.6692 60.192 51.0772 59.856C51.4852 59.512 52.1332 59.34 53.0212 59.34H54.8452V59.112C54.8452 58.616 54.7012 58.236 54.4132 57.972C54.1252 57.708 53.7012 57.576 53.1412 57.576C52.7652 57.576 52.3972 57.64 52.0372 57.768C51.6772 57.888 51.3732 58.052 51.1252 58.26L50.6452 57.396C50.9732 57.132 51.3652 56.932 51.8212 56.796C52.2772 56.652 52.7612 56.58 53.2732 56.58ZM53.0092 62.184C53.4492 62.184 53.8292 62.088 54.1492 61.896C54.4692 61.696 54.7012 61.416 54.8452 61.056V60.168H53.0692C52.0932 60.168 51.6052 60.496 51.6052 61.152C51.6052 61.472 51.7292 61.724 51.9772 61.908C52.2252 62.092 52.5692 62.184 53.0092 62.184ZM59.9531 63.072C59.4331 63.072 58.9331 63.004 58.4531 62.868C57.9731 62.724 57.5971 62.544 57.3251 62.328L57.8051 61.416C58.0851 61.616 58.4251 61.776 58.8251 61.896C59.2251 62.016 59.6291 62.076 60.0371 62.076C61.0451 62.076 61.5491 61.788 61.5491 61.212C61.5491 61.02 61.4811 60.868 61.3451 60.756C61.2091 60.644 61.0371 60.564 60.8291 60.516C60.6291 60.46 60.3411 60.4 59.9651 60.336C59.4531 60.256 59.0331 60.164 58.7051 60.06C58.3851 59.956 58.1091 59.78 57.8771 59.532C57.6451 59.284 57.5291 58.936 57.5291 58.488C57.5291 57.912 57.7691 57.452 58.2491 57.108C58.7291 56.756 59.3731 56.58 60.1811 56.58C60.6051 56.58 61.0291 56.632 61.4531 56.736C61.8771 56.84 62.2251 56.98 62.4971 57.156L62.0051 58.068C61.4851 57.732 60.8731 57.564 60.1691 57.564C59.6811 57.564 59.3091 57.644 59.0531 57.804C58.7971 57.964 58.6691 58.176 58.6691 58.44C58.6691 58.648 58.7411 58.812 58.8851 58.932C59.0291 59.052 59.2051 59.14 59.4131 59.196C59.6291 59.252 59.9291 59.316 60.3131 59.388C60.8251 59.476 61.2371 59.572 61.5491 59.676C61.8691 59.772 62.1411 59.94 62.3651 60.18C62.5891 60.42 62.7011 60.756 62.7011 61.188C62.7011 61.764 62.4531 62.224 61.9571 62.568C61.4691 62.904 60.8011 63.072 59.9531 63.072ZM69.8888 59.856C69.8888 59.944 69.8808 60.06 69.8648 60.204H64.7048C64.7768 60.764 65.0208 61.216 65.4368 61.56C65.8608 61.896 66.3848 62.064 67.0088 62.064C67.7688 62.064 68.3808 61.808 68.8448 61.296L69.4808 62.04C69.1928 62.376 68.8328 62.632 68.4008 62.808C67.9768 62.984 67.5008 63.072 66.9728 63.072C66.3008 63.072 65.7048 62.936 65.1848 62.664C64.6648 62.384 64.2608 61.996 63.9728 61.5C63.6928 61.004 63.5528 60.444 63.5528 59.82C63.5528 59.204 63.6888 58.648 63.9608 58.152C64.2408 57.656 64.6208 57.272 65.1008 57C65.5888 56.72 66.1368 56.58 66.7448 56.58C67.3528 56.58 67.8928 56.72 68.3648 57C68.8448 57.272 69.2168 57.656 69.4808 58.152C69.7528 58.648 69.8888 59.216 69.8888 59.856ZM66.7448 57.552C66.1928 57.552 65.7288 57.72 65.3528 58.056C64.9848 58.392 64.7688 58.832 64.7048 59.376H68.7848C68.7208 58.84 68.5008 58.404 68.1248 58.068C67.7568 57.724 67.2968 57.552 66.7448 57.552ZM77.4885 54.096V63H76.3845V61.992C76.1285 62.344 75.8045 62.612 75.4125 62.796C75.0205 62.98 74.5885 63.072 74.1165 63.072C73.5005 63.072 72.9485 62.936 72.4605 62.664C71.9725 62.392 71.5885 62.012 71.3085 61.524C71.0365 61.028 70.9005 60.46 70.9005 59.82C70.9005 59.18 71.0365 58.616 71.3085 58.128C71.5885 57.64 71.9725 57.26 72.4605 56.988C72.9485 56.716 73.5005 56.58 74.1165 56.58C74.5725 56.58 74.9925 56.668 75.3765 56.844C75.7605 57.012 76.0805 57.264 76.3365 57.6V54.096H77.4885ZM74.2125 62.064C74.6125 62.064 74.9765 61.972 75.3045 61.788C75.6325 61.596 75.8885 61.332 76.0725 60.996C76.2565 60.652 76.3485 60.26 76.3485 59.82C76.3485 59.38 76.2565 58.992 76.0725 58.656C75.8885 58.312 75.6325 58.048 75.3045 57.864C74.9765 57.68 74.6125 57.588 74.2125 57.588C73.8045 57.588 73.4365 57.68 73.1085 57.864C72.7885 58.048 72.5325 58.312 72.3405 58.656C72.1565 58.992 72.0645 59.38 72.0645 59.82C72.0645 60.26 72.1565 60.652 72.3405 60.996C72.5325 61.332 72.7885 61.596 73.1085 61.788C73.4365 61.972 73.8045 62.064 74.2125 62.064ZM11.382 78L11.37 71.88L8.33398 76.98H7.78198L4.74598 71.916V78H3.59398V69.6H4.57798L8.08198 75.504L11.538 69.6H12.522L12.534 78H11.382ZM20.8149 71.64V78H19.7229V77.04C19.4909 77.368 19.1829 77.624 18.7989 77.808C18.4229 77.984 18.0109 78.072 17.5629 78.072C16.7149 78.072 16.0469 77.84 15.5589 77.376C15.0709 76.904 14.8269 76.212 14.8269 75.3V71.64H15.9789V75.168C15.9789 75.784 16.1269 76.252 16.4229 76.572C16.7189 76.884 17.1429 77.04 17.6949 77.04C18.3029 77.04 18.7829 76.856 19.1349 76.488C19.4869 76.12 19.6629 75.6 19.6629 74.928V71.64H20.8149ZM29.008 69.096V78H27.904V76.992C27.648 77.344 27.324 77.612 26.932 77.796C26.54 77.98 26.108 78.072 25.636 78.072C25.02 78.072 24.468 77.936 23.98 77.664C23.492 77.392 23.108 77.012 22.828 76.524C22.556 76.028 22.42 75.46 22.42 74.82C22.42 74.18 22.556 73.616 22.828 73.128C23.108 72.64 23.492 72.26 23.98 71.988C24.468 71.716 25.02 71.58 25.636 71.58C26.092 71.58 26.512 71.668 26.896 71.844C27.28 72.012 27.6 72.264 27.856 72.6V69.096H29.008ZM25.732 77.064C26.132 77.064 26.496 76.972 26.824 76.788C27.152 76.596 27.408 76.332 27.592 75.996C27.776 75.652 27.868 75.26 27.868 74.82C27.868 74.38 27.776 73.992 27.592 73.656C27.408 73.312 27.152 73.048 26.824 72.864C26.496 72.68 26.132 72.588 25.732 72.588C25.324 72.588 24.956 72.68 24.628 72.864C24.308 73.048 24.052 73.312 23.86 73.656C23.676 73.992 23.584 74.38 23.584 74.82C23.584 75.26 23.676 75.652 23.86 75.996C24.052 76.332 24.308 76.596 24.628 76.788C24.956 76.972 25.324 77.064 25.732 77.064ZM34.5784 69.6H38.1184C39.0064 69.6 39.7944 69.776 40.4824 70.128C41.1704 70.48 41.7024 70.976 42.0784 71.616C42.4624 72.248 42.6544 72.976 42.6544 73.8C42.6544 74.624 42.4624 75.356 42.0784 75.996C41.7024 76.628 41.1704 77.12 40.4824 77.472C39.7944 77.824 39.0064 78 38.1184 78H34.5784V69.6ZM38.0464 76.956C38.7264 76.956 39.3224 76.824 39.8344 76.56C40.3544 76.296 40.7544 75.928 41.0344 75.456C41.3144 74.976 41.4544 74.424 41.4544 73.8C41.4544 73.176 41.3144 72.628 41.0344 72.156C40.7544 71.676 40.3544 71.304 39.8344 71.04C39.3224 70.776 38.7264 70.644 38.0464 70.644H35.7784V76.956H38.0464ZM50.0724 74.856C50.0724 74.944 50.0644 75.06 50.0484 75.204H44.8884C44.9604 75.764 45.2044 76.216 45.6204 76.56C46.0444 76.896 46.5684 77.064 47.1924 77.064C47.9524 77.064 48.5644 76.808 49.0284 76.296L49.6644 77.04C49.3764 77.376 49.0164 77.632 48.5844 77.808C48.1604 77.984 47.6844 78.072 47.1564 78.072C46.4844 78.072 45.8884 77.936 45.3684 77.664C44.8484 77.384 44.4444 76.996 44.1564 76.5C43.8764 76.004 43.7364 75.444 43.7364 74.82C43.7364 74.204 43.8724 73.648 44.1444 73.152C44.4244 72.656 44.8044 72.272 45.2844 72C45.7724 71.72 46.3204 71.58 46.9284 71.58C47.5364 71.58 48.0764 71.72 48.5484 72C49.0284 72.272 49.4004 72.656 49.6644 73.152C49.9364 73.648 50.0724 74.216 50.0724 74.856ZM46.9284 72.552C46.3764 72.552 45.9124 72.72 45.5364 73.056C45.1684 73.392 44.9524 73.832 44.8884 74.376H48.9684C48.9044 73.84 48.6844 73.404 48.3084 73.068C47.9404 72.724 47.4804 72.552 46.9284 72.552ZM55.0681 71.58C55.8761 71.58 56.5161 71.816 56.9881 72.288C57.4681 72.752 57.7081 73.436 57.7081 74.34V78H56.5561V74.472C56.5561 73.856 56.4081 73.392 56.1121 73.08C55.8161 72.768 55.3921 72.612 54.8401 72.612C54.2161 72.612 53.7241 72.796 53.3641 73.164C53.0041 73.524 52.8241 74.044 52.8241 74.724V78H51.6721V71.64H52.7761V72.6C53.0081 72.272 53.3201 72.02 53.7121 71.844C54.1121 71.668 54.5641 71.58 55.0681 71.58ZM61.664 78.072C61.144 78.072 60.644 78.004 60.164 77.868C59.684 77.724 59.308 77.544 59.036 77.328L59.516 76.416C59.796 76.616 60.136 76.776 60.536 76.896C60.936 77.016 61.34 77.076 61.748 77.076C62.756 77.076 63.26 76.788 63.26 76.212C63.26 76.02 63.192 75.868 63.056 75.756C62.92 75.644 62.748 75.564 62.54 75.516C62.34 75.46 62.052 75.4 61.676 75.336C61.164 75.256 60.744 75.164 60.416 75.06C60.096 74.956 59.82 74.78 59.588 74.532C59.356 74.284 59.24 73.936 59.24 73.488C59.24 72.912 59.48 72.452 59.96 72.108C60.44 71.756 61.084 71.58 61.892 71.58C62.316 71.58 62.74 71.632 63.164 71.736C63.588 71.84 63.936 71.98 64.208 72.156L63.716 73.068C63.196 72.732 62.584 72.564 61.88 72.564C61.392 72.564 61.02 72.644 60.764 72.804C60.508 72.964 60.38 73.176 60.38 73.44C60.38 73.648 60.452 73.812 60.596 73.932C60.74 74.052 60.916 74.14 61.124 74.196C61.34 74.252 61.64 74.316 62.024 74.388C62.536 74.476 62.948 74.572 63.26 74.676C63.58 74.772 63.852 74.94 64.076 75.18C64.3 75.42 64.412 75.756 64.412 76.188C64.412 76.764 64.164 77.224 63.668 77.568C63.18 77.904 62.512 78.072 61.664 78.072ZM65.8518 71.64H67.0038V78H65.8518V71.64ZM66.4278 70.416C66.2038 70.416 66.0158 70.344 65.8638 70.2C65.7198 70.056 65.6478 69.88 65.6478 69.672C65.6478 69.464 65.7198 69.288 65.8638 69.144C66.0158 68.992 66.2038 68.916 66.4278 68.916C66.6518 68.916 66.8358 68.988 66.9798 69.132C67.1318 69.268 67.2078 69.44 67.2078 69.648C67.2078 69.864 67.1318 70.048 66.9798 70.2C66.8358 70.344 66.6518 70.416 66.4278 70.416ZM72.7793 77.628C72.6113 77.772 72.4033 77.884 72.1553 77.964C71.9073 78.036 71.6513 78.072 71.3873 78.072C70.7473 78.072 70.2513 77.9 69.8993 77.556C69.5473 77.212 69.3713 76.72 69.3713 76.08V72.588H68.2913V71.64H69.3713V70.248H70.5233V71.64H72.3473V72.588H70.5233V76.032C70.5233 76.376 70.6073 76.64 70.7753 76.824C70.9513 77.008 71.1993 77.1 71.5193 77.1C71.8713 77.1 72.1713 77 72.4193 76.8L72.7793 77.628ZM79.6829 71.64L76.5989 78.636C76.3269 79.284 76.0069 79.74 75.6389 80.004C75.2789 80.268 74.8429 80.4 74.3309 80.4C74.0189 80.4 73.7149 80.348 73.4189 80.244C73.1309 80.148 72.8909 80.004 72.6989 79.812L73.1909 78.948C73.5189 79.26 73.8989 79.416 74.3309 79.416C74.6109 79.416 74.8429 79.34 75.0269 79.188C75.2189 79.044 75.3909 78.792 75.5429 78.432L75.7469 77.988L72.9389 71.64H74.1389L76.3589 76.728L78.5549 71.64H79.6829Z" fill="#F9F9F9"/>
<path d="M13.3292 54.6L10.5212 63H9.26117L6.96917 56.292L4.67717 63H3.39317L0.585172 54.6H1.82117L4.08917 61.428L6.45317 54.6H7.55717L9.87317 61.464L12.1892 54.6H13.3292ZM16.4646 56.58C17.3446 56.58 18.0166 56.796 18.4806 57.228C18.9526 57.66 19.1886 58.304 19.1886 59.16V63H18.0966V62.16C17.9046 62.456 17.6286 62.684 17.2686 62.844C16.9166 62.996 16.4966 63.072 16.0086 63.072C15.2966 63.072 14.7246 62.9 14.2926 62.556C13.8686 62.212 13.6566 61.76 13.6566 61.2C13.6566 60.64 13.8606 60.192 14.2686 59.856C14.6766 59.512 15.3246 59.34 16.2126 59.34H18.0366V59.112C18.0366 58.616 17.8926 58.236 17.6046 57.972C17.3166 57.708 16.8926 57.576 16.3326 57.576C15.9566 57.576 15.5886 57.64 15.2286 57.768C14.8686 57.888 14.5646 58.052 14.3166 58.26L13.8366 57.396C14.1646 57.132 14.5566 56.932 15.0126 56.796C15.4686 56.652 15.9526 56.58 16.4646 56.58ZM16.2006 62.184C16.6406 62.184 17.0206 62.088 17.3406 61.896C17.6606 61.696 17.8926 61.416 18.0366 61.056V60.168H16.2606C15.2846 60.168 14.7966 60.496 14.7966 61.152C14.7966 61.472 14.9206 61.724 15.1686 61.908C15.4166 62.092 15.7606 62.184 16.2006 62.184ZM24.8965 62.628C24.7285 62.772 24.5205 62.884 24.2725 62.964C24.0245 63.036 23.7685 63.072 23.5045 63.072C22.8645 63.072 22.3685 62.9 22.0165 62.556C21.6645 62.212 21.4885 61.72 21.4885 61.08V57.588H20.4085V56.64H21.4885V55.248H22.6405V56.64H24.4645V57.588H22.6405V61.032C22.6405 61.376 22.7245 61.64 22.8925 61.824C23.0685 62.008 23.3165 62.1 23.6365 62.1C23.9885 62.1 24.2885 62 24.5365 61.8L24.8965 62.628ZM31.8263 59.856C31.8263 59.944 31.8183 60.06 31.8023 60.204H26.6423C26.7143 60.764 26.9583 61.216 27.3743 61.56C27.7983 61.896 28.3223 62.064 28.9463 62.064C29.7063 62.064 30.3183 61.808 30.7823 61.296L31.4183 62.04C31.1303 62.376 30.7703 62.632 30.3383 62.808C29.9143 62.984 29.4383 63.072 28.9103 63.072C28.2383 63.072 27.6423 62.936 27.1223 62.664C26.6023 62.384 26.1983 61.996 25.9103 61.5C25.6303 61.004 25.4903 60.444 25.4903 59.82C25.4903 59.204 25.6263 58.648 25.8983 58.152C26.1783 57.656 26.5583 57.272 27.0383 57C27.5263 56.72 28.0743 56.58 28.6823 56.58C29.2903 56.58 29.8303 56.72 30.3023 57C30.7823 57.272 31.1543 57.656 31.4183 58.152C31.6903 58.648 31.8263 59.216 31.8263 59.856ZM28.6823 57.552C28.1303 57.552 27.6663 57.72 27.2903 58.056C26.9223 58.392 26.7063 58.832 26.6423 59.376H30.7223C30.6583 58.84 30.4383 58.404 30.0623 58.068C29.6943 57.724 29.2343 57.552 28.6823 57.552ZM34.53 57.708C34.73 57.34 35.026 57.06 35.418 56.868C35.81 56.676 36.286 56.58 36.846 56.58V57.696C36.782 57.688 36.694 57.684 36.582 57.684C35.958 57.684 35.466 57.872 35.106 58.248C34.754 58.616 34.578 59.144 34.578 59.832V63H33.426V56.64H34.53V57.708ZM37.8344 59.208H41.0624V60.204H37.8344V59.208ZM46.2081 56.58C46.8241 56.58 47.3761 56.716 47.8641 56.988C48.3521 57.26 48.7321 57.64 49.0041 58.128C49.2841 58.616 49.4241 59.18 49.4241 59.82C49.4241 60.46 49.2841 61.028 49.0041 61.524C48.7321 62.012 48.3521 62.392 47.8641 62.664C47.3761 62.936 46.8241 63.072 46.2081 63.072C45.7361 63.072 45.3041 62.98 44.9121 62.796C44.5201 62.612 44.1961 62.344 43.9401 61.992V63H42.8361V54.096H43.9881V57.6C44.2441 57.264 44.5641 57.012 44.9481 56.844C45.3321 56.668 45.7521 56.58 46.2081 56.58ZM46.1121 62.064C46.5201 62.064 46.8841 61.972 47.2041 61.788C47.5321 61.596 47.7881 61.332 47.9721 60.996C48.1641 60.652 48.2601 60.26 48.2601 59.82C48.2601 59.38 48.1641 58.992 47.9721 58.656C47.7881 58.312 47.5321 58.048 47.2041 57.864C46.8841 57.68 46.5201 57.588 46.1121 57.588C45.7121 57.588 45.3481 57.68 45.0201 57.864C44.6921 58.048 44.4361 58.312 44.2521 58.656C44.0681 58.992 43.9761 59.38 43.9761 59.82C43.9761 60.26 44.0681 60.652 44.2521 60.996C44.4361 61.332 44.6921 61.596 45.0201 61.788C45.3481 61.972 45.7121 62.064 46.1121 62.064ZM53.2732 56.58C54.1532 56.58 54.8252 56.796 55.2892 57.228C55.7612 57.66 55.9972 58.304 55.9972 59.16V63H54.9052V62.16C54.7132 62.456 54.4372 62.684 54.0772 62.844C53.7252 62.996 53.3052 63.072 52.8172 63.072C52.1052 63.072 51.5332 62.9 51.1012 62.556C50.6772 62.212 50.4652 61.76 50.4652 61.2C50.4652 60.64 50.6692 60.192 51.0772 59.856C51.4852 59.512 52.1332 59.34 53.0212 59.34H54.8452V59.112C54.8452 58.616 54.7012 58.236 54.4132 57.972C54.1252 57.708 53.7012 57.576 53.1412 57.576C52.7652 57.576 52.3972 57.64 52.0372 57.768C51.6772 57.888 51.3732 58.052 51.1252 58.26L50.6452 57.396C50.9732 57.132 51.3652 56.932 51.8212 56.796C52.2772 56.652 52.7612 56.58 53.2732 56.58ZM53.0092 62.184C53.4492 62.184 53.8292 62.088 54.1492 61.896C54.4692 61.696 54.7012 61.416 54.8452 61.056V60.168H53.0692C52.0932 60.168 51.6052 60.496 51.6052 61.152C51.6052 61.472 51.7292 61.724 51.9772 61.908C52.2252 62.092 52.5692 62.184 53.0092 62.184ZM59.9531 63.072C59.4331 63.072 58.9331 63.004 58.4531 62.868C57.9731 62.724 57.5971 62.544 57.3251 62.328L57.8051 61.416C58.0851 61.616 58.4251 61.776 58.8251 61.896C59.2251 62.016 59.6291 62.076 60.0371 62.076C61.0451 62.076 61.5491 61.788 61.5491 61.212C61.5491 61.02 61.4811 60.868 61.3451 60.756C61.2091 60.644 61.0371 60.564 60.8291 60.516C60.6291 60.46 60.3411 60.4 59.9651 60.336C59.4531 60.256 59.0331 60.164 58.7051 60.06C58.3851 59.956 58.1091 59.78 57.8771 59.532C57.6451 59.284 57.5291 58.936 57.5291 58.488C57.5291 57.912 57.7691 57.452 58.2491 57.108C58.7291 56.756 59.3731 56.58 60.1811 56.58C60.6051 56.58 61.0291 56.632 61.4531 56.736C61.8771 56.84 62.2251 56.98 62.4971 57.156L62.0051 58.068C61.4851 57.732 60.8731 57.564 60.1691 57.564C59.6811 57.564 59.3091 57.644 59.0531 57.804C58.7971 57.964 58.6691 58.176 58.6691 58.44C58.6691 58.648 58.7411 58.812 58.8851 58.932C59.0291 59.052 59.2051 59.14 59.4131 59.196C59.6291 59.252 59.9291 59.316 60.3131 59.388C60.8251 59.476 61.2371 59.572 61.5491 59.676C61.8691 59.772 62.1411 59.94 62.3651 60.18C62.5891 60.42 62.7011 60.756 62.7011 61.188C62.7011 61.764 62.4531 62.224 61.9571 62.568C61.4691 62.904 60.8011 63.072 59.9531 63.072ZM69.8888 59.856C69.8888 59.944 69.8808 60.06 69.8648 60.204H64.7048C64.7768 60.764 65.0208 61.216 65.4368 61.56C65.8608 61.896 66.3848 62.064 67.0088 62.064C67.7688 62.064 68.3808 61.808 68.8448 61.296L69.4808 62.04C69.1928 62.376 68.8328 62.632 68.4008 62.808C67.9768 62.984 67.5008 63.072 66.9728 63.072C66.3008 63.072 65.7048 62.936 65.1848 62.664C64.6648 62.384 64.2608 61.996 63.9728 61.5C63.6928 61.004 63.5528 60.444 63.5528 59.82C63.5528 59.204 63.6888 58.648 63.9608 58.152C64.2408 57.656 64.6208 57.272 65.1008 57C65.5888 56.72 66.1368 56.58 66.7448 56.58C67.3528 56.58 67.8928 56.72 68.3648 57C68.8448 57.272 69.2168 57.656 69.4808 58.152C69.7528 58.648 69.8888 59.216 69.8888 59.856ZM66.7448 57.552C66.1928 57.552 65.7288 57.72 65.3528 58.056C64.9848 58.392 64.7688 58.832 64.7048 59.376H68.7848C68.7208 58.84 68.5008 58.404 68.1248 58.068C67.7568 57.724 67.2968 57.552 66.7448 57.552ZM77.4885 54.096V63H76.3845V61.992C76.1285 62.344 75.8045 62.612 75.4125 62.796C75.0205 62.98 74.5885 63.072 74.1165 63.072C73.5005 63.072 72.9485 62.936 72.4605 62.664C71.9725 62.392 71.5885 62.012 71.3085 61.524C71.0365 61.028 70.9005 60.46 70.9005 59.82C70.9005 59.18 71.0365 58.616 71.3085 58.128C71.5885 57.64 71.9725 57.26 72.4605 56.988C72.9485 56.716 73.5005 56.58 74.1165 56.58C74.5725 56.58 74.9925 56.668 75.3765 56.844C75.7605 57.012 76.0805 57.264 76.3365 57.6V54.096H77.4885ZM74.2125 62.064C74.6125 62.064 74.9765 61.972 75.3045 61.788C75.6325 61.596 75.8885 61.332 76.0725 60.996C76.2565 60.652 76.3485 60.26 76.3485 59.82C76.3485 59.38 76.2565 58.992 76.0725 58.656C75.8885 58.312 75.6325 58.048 75.3045 57.864C74.9765 57.68 74.6125 57.588 74.2125 57.588C73.8045 57.588 73.4365 57.68 73.1085 57.864C72.7885 58.048 72.5325 58.312 72.3405 58.656C72.1565 58.992 72.0645 59.38 72.0645 59.82C72.0645 60.26 72.1565 60.652 72.3405 60.996C72.5325 61.332 72.7885 61.596 73.1085 61.788C73.4365 61.972 73.8045 62.064 74.2125 62.064ZM11.382 78L11.37 71.88L8.33398 76.98H7.78198L4.74598 71.916V78H3.59398V69.6H4.57798L8.08198 75.504L11.538 69.6H12.522L12.534 78H11.382ZM20.8149 71.64V78H19.7229V77.04C19.4909 77.368 19.1829 77.624 18.7989 77.808C18.4229 77.984 18.0109 78.072 17.5629 78.072C16.7149 78.072 16.0469 77.84 15.5589 77.376C15.0709 76.904 14.8269 76.212 14.8269 75.3V71.64H15.9789V75.168C15.9789 75.784 16.1269 76.252 16.4229 76.572C16.7189 76.884 17.1429 77.04 17.6949 77.04C18.3029 77.04 18.7829 76.856 19.1349 76.488C19.4869 76.12 19.6629 75.6 19.6629 74.928V71.64H20.8149ZM29.008 69.096V78H27.904V76.992C27.648 77.344 27.324 77.612 26.932 77.796C26.54 77.98 26.108 78.072 25.636 78.072C25.02 78.072 24.468 77.936 23.98 77.664C23.492 77.392 23.108 77.012 22.828 76.524C22.556 76.028 22.42 75.46 22.42 74.82C22.42 74.18 22.556 73.616 22.828 73.128C23.108 72.64 23.492 72.26 23.98 71.988C24.468 71.716 25.02 71.58 25.636 71.58C26.092 71.58 26.512 71.668 26.896 71.844C27.28 72.012 27.6 72.264 27.856 72.6V69.096H29.008ZM25.732 77.064C26.132 77.064 26.496 76.972 26.824 76.788C27.152 76.596 27.408 76.332 27.592 75.996C27.776 75.652 27.868 75.26 27.868 74.82C27.868 74.38 27.776 73.992 27.592 73.656C27.408 73.312 27.152 73.048 26.824 72.864C26.496 72.68 26.132 72.588 25.732 72.588C25.324 72.588 24.956 72.68 24.628 72.864C24.308 73.048 24.052 73.312 23.86 73.656C23.676 73.992 23.584 74.38 23.584 74.82C23.584 75.26 23.676 75.652 23.86 75.996C24.052 76.332 24.308 76.596 24.628 76.788C24.956 76.972 25.324 77.064 25.732 77.064ZM34.5784 69.6H38.1184C39.0064 69.6 39.7944 69.776 40.4824 70.128C41.1704 70.48 41.7024 70.976 42.0784 71.616C42.4624 72.248 42.6544 72.976 42.6544 73.8C42.6544 74.624 42.4624 75.356 42.0784 75.996C41.7024 76.628 41.1704 77.12 40.4824 77.472C39.7944 77.824 39.0064 78 38.1184 78H34.5784V69.6ZM38.0464 76.956C38.7264 76.956 39.3224 76.824 39.8344 76.56C40.3544 76.296 40.7544 75.928 41.0344 75.456C41.3144 74.976 41.4544 74.424 41.4544 73.8C41.4544 73.176 41.3144 72.628 41.0344 72.156C40.7544 71.676 40.3544 71.304 39.8344 71.04C39.3224 70.776 38.7264 70.644 38.0464 70.644H35.7784V76.956H38.0464ZM50.0724 74.856C50.0724 74.944 50.0644 75.06 50.0484 75.204H44.8884C44.9604 75.764 45.2044 76.216 45.6204 76.56C46.0444 76.896 46.5684 77.064 47.1924 77.064C47.9524 77.064 48.5644 76.808 49.0284 76.296L49.6644 77.04C49.3764 77.376 49.0164 77.632 48.5844 77.808C48.1604 77.984 47.6844 78.072 47.1564 78.072C46.4844 78.072 45.8884 77.936 45.3684 77.664C44.8484 77.384 44.4444 76.996 44.1564 76.5C43.8764 76.004 43.7364 75.444 43.7364 74.82C43.7364 74.204 43.8724 73.648 44.1444 73.152C44.4244 72.656 44.8044 72.272 45.2844 72C45.7724 71.72 46.3204 71.58 46.9284 71.58C47.5364 71.58 48.0764 71.72 48.5484 72C49.0284 72.272 49.4004 72.656 49.6644 73.152C49.9364 73.648 50.0724 74.216 50.0724 74.856ZM46.9284 72.552C46.3764 72.552 45.9124 72.72 45.5364 73.056C45.1684 73.392 44.9524 73.832 44.8884 74.376H48.9684C48.9044 73.84 48.6844 73.404 48.3084 73.068C47.9404 72.724 47.4804 72.552 46.9284 72.552ZM55.0681 71.58C55.8761 71.58 56.5161 71.816 56.9881 72.288C57.4681 72.752 57.7081 73.436 57.7081 74.34V78H56.5561V74.472C56.5561 73.856 56.4081 73.392 56.1121 73.08C55.8161 72.768 55.3921 72.612 54.8401 72.612C54.2161 72.612 53.7241 72.796 53.3641 73.164C53.0041 73.524 52.8241 74.044 52.8241 74.724V78H51.6721V71.64H52.7761V72.6C53.0081 72.272 53.3201 72.02 53.7121 71.844C54.1121 71.668 54.5641 71.58 55.0681 71.58ZM61.664 78.072C61.144 78.072 60.644 78.004 60.164 77.868C59.684 77.724 59.308 77.544 59.036 77.328L59.516 76.416C59.796 76.616 60.136 76.776 60.536 76.896C60.936 77.016 61.34 77.076 61.748 77.076C62.756 77.076 63.26 76.788 63.26 76.212C63.26 76.02 63.192 75.868 63.056 75.756C62.92 75.644 62.748 75.564 62.54 75.516C62.34 75.46 62.052 75.4 61.676 75.336C61.164 75.256 60.744 75.164 60.416 75.06C60.096 74.956 59.82 74.78 59.588 74.532C59.356 74.284 59.24 73.936 59.24 73.488C59.24 72.912 59.48 72.452 59.96 72.108C60.44 71.756 61.084 71.58 61.892 71.58C62.316 71.58 62.74 71.632 63.164 71.736C63.588 71.84 63.936 71.98 64.208 72.156L63.716 73.068C63.196 72.732 62.584 72.564 61.88 72.564C61.392 72.564 61.02 72.644 60.764 72.804C60.508 72.964 60.38 73.176 60.38 73.44C60.38 73.648 60.452 73.812 60.596 73.932C60.74 74.052 60.916 74.14 61.124 74.196C61.34 74.252 61.64 74.316 62.024 74.388C62.536 74.476 62.948 74.572 63.26 74.676C63.58 74.772 63.852 74.94 64.076 75.18C64.3 75.42 64.412 75.756 64.412 76.188C64.412 76.764 64.164 77.224 63.668 77.568C63.18 77.904 62.512 78.072 61.664 78.072ZM65.8518 71.64H67.0038V78H65.8518V71.64ZM66.4278 70.416C66.2038 70.416 66.0158 70.344 65.8638 70.2C65.7198 70.056 65.6478 69.88 65.6478 69.672C65.6478 69.464 65.7198 69.288 65.8638 69.144C66.0158 68.992 66.2038 68.916 66.4278 68.916C66.6518 68.916 66.8358 68.988 66.9798 69.132C67.1318 69.268 67.2078 69.44 67.2078 69.648C67.2078 69.864 67.1318 70.048 66.9798 70.2C66.8358 70.344 66.6518 70.416 66.4278 70.416ZM72.7793 77.628C72.6113 77.772 72.4033 77.884 72.1553 77.964C71.9073 78.036 71.6513 78.072 71.3873 78.072C70.7473 78.072 70.2513 77.9 69.8993 77.556C69.5473 77.212 69.3713 76.72 69.3713 76.08V72.588H68.2913V71.64H69.3713V70.248H70.5233V71.64H72.3473V72.588H70.5233V76.032C70.5233 76.376 70.6073 76.64 70.7753 76.824C70.9513 77.008 71.1993 77.1 71.5193 77.1C71.8713 77.1 72.1713 77 72.4193 76.8L72.7793 77.628ZM79.6829 71.64L76.5989 78.636C76.3269 79.284 76.0069 79.74 75.6389 80.004C75.2789 80.268 74.8429 80.4 74.3309 80.4C74.0189 80.4 73.7149 80.348 73.4189 80.244C73.1309 80.148 72.8909 80.004 72.6989 79.812L73.1909 78.948C73.5189 79.26 73.8989 79.416 74.3309 79.416C74.6109 79.416 74.8429 79.34 75.0269 79.188C75.2189 79.044 75.3909 78.792 75.5429 78.432L75.7469 77.988L72.9389 71.64H74.1389L76.3589 76.728L78.5549 71.64H79.6829Z" fill="#F9F9F9"/>
<path d="M13.3292 54.6L10.5212 63H9.26117L6.96917 56.292L4.67717 63H3.39317L0.585172 54.6H1.82117L4.08917 61.428L6.45317 54.6H7.55717L9.87317 61.464L12.1892 54.6H13.3292ZM16.4646 56.58C17.3446 56.58 18.0166 56.796 18.4806 57.228C18.9526 57.66 19.1886 58.304 19.1886 59.16V63H18.0966V62.16C17.9046 62.456 17.6286 62.684 17.2686 62.844C16.9166 62.996 16.4966 63.072 16.0086 63.072C15.2966 63.072 14.7246 62.9 14.2926 62.556C13.8686 62.212 13.6566 61.76 13.6566 61.2C13.6566 60.64 13.8606 60.192 14.2686 59.856C14.6766 59.512 15.3246 59.34 16.2126 59.34H18.0366V59.112C18.0366 58.616 17.8926 58.236 17.6046 57.972C17.3166 57.708 16.8926 57.576 16.3326 57.576C15.9566 57.576 15.5886 57.64 15.2286 57.768C14.8686 57.888 14.5646 58.052 14.3166 58.26L13.8366 57.396C14.1646 57.132 14.5566 56.932 15.0126 56.796C15.4686 56.652 15.9526 56.58 16.4646 56.58ZM16.2006 62.184C16.6406 62.184 17.0206 62.088 17.3406 61.896C17.6606 61.696 17.8926 61.416 18.0366 61.056V60.168H16.2606C15.2846 60.168 14.7966 60.496 14.7966 61.152C14.7966 61.472 14.9206 61.724 15.1686 61.908C15.4166 62.092 15.7606 62.184 16.2006 62.184ZM24.8965 62.628C24.7285 62.772 24.5205 62.884 24.2725 62.964C24.0245 63.036 23.7685 63.072 23.5045 63.072C22.8645 63.072 22.3685 62.9 22.0165 62.556C21.6645 62.212 21.4885 61.72 21.4885 61.08V57.588H20.4085V56.64H21.4885V55.248H22.6405V56.64H24.4645V57.588H22.6405V61.032C22.6405 61.376 22.7245 61.64 22.8925 61.824C23.0685 62.008 23.3165 62.1 23.6365 62.1C23.9885 62.1 24.2885 62 24.5365 61.8L24.8965 62.628ZM31.8263 59.856C31.8263 59.944 31.8183 60.06 31.8023 60.204H26.6423C26.7143 60.764 26.9583 61.216 27.3743 61.56C27.7983 61.896 28.3223 62.064 28.9463 62.064C29.7063 62.064 30.3183 61.808 30.7823 61.296L31.4183 62.04C31.1303 62.376 30.7703 62.632 30.3383 62.808C29.9143 62.984 29.4383 63.072 28.9103 63.072C28.2383 63.072 27.6423 62.936 27.1223 62.664C26.6023 62.384 26.1983 61.996 25.9103 61.5C25.6303 61.004 25.4903 60.444 25.4903 59.82C25.4903 59.204 25.6263 58.648 25.8983 58.152C26.1783 57.656 26.5583 57.272 27.0383 57C27.5263 56.72 28.0743 56.58 28.6823 56.58C29.2903 56.58 29.8303 56.72 30.3023 57C30.7823 57.272 31.1543 57.656 31.4183 58.152C31.6903 58.648 31.8263 59.216 31.8263 59.856ZM28.6823 57.552C28.1303 57.552 27.6663 57.72 27.2903 58.056C26.9223 58.392 26.7063 58.832 26.6423 59.376H30.7223C30.6583 58.84 30.4383 58.404 30.0623 58.068C29.6943 57.724 29.2343 57.552 28.6823 57.552ZM34.53 57.708C34.73 57.34 35.026 57.06 35.418 56.868C35.81 56.676 36.286 56.58 36.846 56.58V57.696C36.782 57.688 36.694 57.684 36.582 57.684C35.958 57.684 35.466 57.872 35.106 58.248C34.754 58.616 34.578 59.144 34.578 59.832V63H33.426V56.64H34.53V57.708ZM37.8344 59.208H41.0624V60.204H37.8344V59.208ZM46.2081 56.58C46.8241 56.58 47.3761 56.716 47.8641 56.988C48.3521 57.26 48.7321 57.64 49.0041 58.128C49.2841 58.616 49.4241 59.18 49.4241 59.82C49.4241 60.46 49.2841 61.028 49.0041 61.524C48.7321 62.012 48.3521 62.392 47.8641 62.664C47.3761 62.936 46.8241 63.072 46.2081 63.072C45.7361 63.072 45.3041 62.98 44.9121 62.796C44.5201 62.612 44.1961 62.344 43.9401 61.992V63H42.8361V54.096H43.9881V57.6C44.2441 57.264 44.5641 57.012 44.9481 56.844C45.3321 56.668 45.7521 56.58 46.2081 56.58ZM46.1121 62.064C46.5201 62.064 46.8841 61.972 47.2041 61.788C47.5321 61.596 47.7881 61.332 47.9721 60.996C48.1641 60.652 48.2601 60.26 48.2601 59.82C48.2601 59.38 48.1641 58.992 47.9721 58.656C47.7881 58.312 47.5321 58.048 47.2041 57.864C46.8841 57.68 46.5201 57.588 46.1121 57.588C45.7121 57.588 45.3481 57.68 45.0201 57.864C44.6921 58.048 44.4361 58.312 44.2521 58.656C44.0681 58.992 43.9761 59.38 43.9761 59.82C43.9761 60.26 44.0681 60.652 44.2521 60.996C44.4361 61.332 44.6921 61.596 45.0201 61.788C45.3481 61.972 45.7121 62.064 46.1121 62.064ZM53.2732 56.58C54.1532 56.58 54.8252 56.796 55.2892 57.228C55.7612 57.66 55.9972 58.304 55.9972 59.16V63H54.9052V62.16C54.7132 62.456 54.4372 62.684 54.0772 62.844C53.7252 62.996 53.3052 63.072 52.8172 63.072C52.1052 63.072 51.5332 62.9 51.1012 62.556C50.6772 62.212 50.4652 61.76 50.4652 61.2C50.4652 60.64 50.6692 60.192 51.0772 59.856C51.4852 59.512 52.1332 59.34 53.0212 59.34H54.8452V59.112C54.8452 58.616 54.7012 58.236 54.4132 57.972C54.1252 57.708 53.7012 57.576 53.1412 57.576C52.7652 57.576 52.3972 57.64 52.0372 57.768C51.6772 57.888 51.3732 58.052 51.1252 58.26L50.6452 57.396C50.9732 57.132 51.3652 56.932 51.8212 56.796C52.2772 56.652 52.7612 56.58 53.2732 56.58ZM53.0092 62.184C53.4492 62.184 53.8292 62.088 54.1492 61.896C54.4692 61.696 54.7012 61.416 54.8452 61.056V60.168H53.0692C52.0932 60.168 51.6052 60.496 51.6052 61.152C51.6052 61.472 51.7292 61.724 51.9772 61.908C52.2252 62.092 52.5692 62.184 53.0092 62.184ZM59.9531 63.072C59.4331 63.072 58.9331 63.004 58.4531 62.868C57.9731 62.724 57.5971 62.544 57.3251 62.328L57.8051 61.416C58.0851 61.616 58.4251 61.776 58.8251 61.896C59.2251 62.016 59.6291 62.076 60.0371 62.076C61.0451 62.076 61.5491 61.788 61.5491 61.212C61.5491 61.02 61.4811 60.868 61.3451 60.756C61.2091 60.644 61.0371 60.564 60.8291 60.516C60.6291 60.46 60.3411 60.4 59.9651 60.336C59.4531 60.256 59.0331 60.164 58.7051 60.06C58.3851 59.956 58.1091 59.78 57.8771 59.532C57.6451 59.284 57.5291 58.936 57.5291 58.488C57.5291 57.912 57.7691 57.452 58.2491 57.108C58.7291 56.756 59.3731 56.58 60.1811 56.58C60.6051 56.58 61.0291 56.632 61.4531 56.736C61.8771 56.84 62.2251 56.98 62.4971 57.156L62.0051 58.068C61.4851 57.732 60.8731 57.564 60.1691 57.564C59.6811 57.564 59.3091 57.644 59.0531 57.804C58.7971 57.964 58.6691 58.176 58.6691 58.44C58.6691 58.648 58.7411 58.812 58.8851 58.932C59.0291 59.052 59.2051 59.14 59.4131 59.196C59.6291 59.252 59.9291 59.316 60.3131 59.388C60.8251 59.476 61.2371 59.572 61.5491 59.676C61.8691 59.772 62.1411 59.94 62.3651 60.18C62.5891 60.42 62.7011 60.756 62.7011 61.188C62.7011 61.764 62.4531 62.224 61.9571 62.568C61.4691 62.904 60.8011 63.072 59.9531 63.072ZM69.8888 59.856C69.8888 59.944 69.8808 60.06 69.8648 60.204H64.7048C64.7768 60.764 65.0208 61.216 65.4368 61.56C65.8608 61.896 66.3848 62.064 67.0088 62.064C67.7688 62.064 68.3808 61.808 68.8448 61.296L69.4808 62.04C69.1928 62.376 68.8328 62.632 68.4008 62.808C67.9768 62.984 67.5008 63.072 66.9728 63.072C66.3008 63.072 65.7048 62.936 65.1848 62.664C64.6648 62.384 64.2608 61.996 63.9728 61.5C63.6928 61.004 63.5528 60.444 63.5528 59.82C63.5528 59.204 63.6888 58.648 63.9608 58.152C64.2408 57.656 64.6208 57.272 65.1008 57C65.5888 56.72 66.1368 56.58 66.7448 56.58C67.3528 56.58 67.8928 56.72 68.3648 57C68.8448 57.272 69.2168 57.656 69.4808 58.152C69.7528 58.648 69.8888 59.216 69.8888 59.856ZM66.7448 57.552C66.1928 57.552 65.7288 57.72 65.3528 58.056C64.9848 58.392 64.7688 58.832 64.7048 59.376H68.7848C68.7208 58.84 68.5008 58.404 68.1248 58.068C67.7568 57.724 67.2968 57.552 66.7448 57.552ZM77.4885 54.096V63H76.3845V61.992C76.1285 62.344 75.8045 62.612 75.4125 62.796C75.0205 62.98 74.5885 63.072 74.1165 63.072C73.5005 63.072 72.9485 62.936 72.4605 62.664C71.9725 62.392 71.5885 62.012 71.3085 61.524C71.0365 61.028 70.9005 60.46 70.9005 59.82C70.9005 59.18 71.0365 58.616 71.3085 58.128C71.5885 57.64 71.9725 57.26 72.4605 56.988C72.9485 56.716 73.5005 56.58 74.1165 56.58C74.5725 56.58 74.9925 56.668 75.3765 56.844C75.7605 57.012 76.0805 57.264 76.3365 57.6V54.096H77.4885ZM74.2125 62.064C74.6125 62.064 74.9765 61.972 75.3045 61.788C75.6325 61.596 75.8885 61.332 76.0725 60.996C76.2565 60.652 76.3485 60.26 76.3485 59.82C76.3485 59.38 76.2565 58.992 76.0725 58.656C75.8885 58.312 75.6325 58.048 75.3045 57.864C74.9765 57.68 74.6125 57.588 74.2125 57.588C73.8045 57.588 73.4365 57.68 73.1085 57.864C72.7885 58.048 72.5325 58.312 72.3405 58.656C72.1565 58.992 72.0645 59.38 72.0645 59.82C72.0645 60.26 72.1565 60.652 72.3405 60.996C72.5325 61.332 72.7885 61.596 73.1085 61.788C73.4365 61.972 73.8045 62.064 74.2125 62.064ZM11.382 78L11.37 71.88L8.33398 76.98H7.78198L4.74598 71.916V78H3.59398V69.6H4.57798L8.08198 75.504L11.538 69.6H12.522L12.534 78H11.382ZM20.8149 71.64V78H19.7229V77.04C19.4909 77.368 19.1829 77.624 18.7989 77.808C18.4229 77.984 18.0109 78.072 17.5629 78.072C16.7149 78.072 16.0469 77.84 15.5589 77.376C15.0709 76.904 14.8269 76.212 14.8269 75.3V71.64H15.9789V75.168C15.9789 75.784 16.1269 76.252 16.4229 76.572C16.7189 76.884 17.1429 77.04 17.6949 77.04C18.3029 77.04 18.7829 76.856 19.1349 76.488C19.4869 76.12 19.6629 75.6 19.6629 74.928V71.64H20.8149ZM29.008 69.096V78H27.904V76.992C27.648 77.344 27.324 77.612 26.932 77.796C26.54 77.98 26.108 78.072 25.636 78.072C25.02 78.072 24.468 77.936 23.98 77.664C23.492 77.392 23.108 77.012 22.828 76.524C22.556 76.028 22.42 75.46 22.42 74.82C22.42 74.18 22.556 73.616 22.828 73.128C23.108 72.64 23.492 72.26 23.98 71.988C24.468 71.716 25.02 71.58 25.636 71.58C26.092 71.58 26.512 71.668 26.896 71.844C27.28 72.012 27.6 72.264 27.856 72.6V69.096H29.008ZM25.732 77.064C26.132 77.064 26.496 76.972 26.824 76.788C27.152 76.596 27.408 76.332 27.592 75.996C27.776 75.652 27.868 75.26 27.868 74.82C27.868 74.38 27.776 73.992 27.592 73.656C27.408 73.312 27.152 73.048 26.824 72.864C26.496 72.68 26.132 72.588 25.732 72.588C25.324 72.588 24.956 72.68 24.628 72.864C24.308 73.048 24.052 73.312 23.86 73.656C23.676 73.992 23.584 74.38 23.584 74.82C23.584 75.26 23.676 75.652 23.86 75.996C24.052 76.332 24.308 76.596 24.628 76.788C24.956 76.972 25.324 77.064 25.732 77.064ZM34.5784 69.6H38.1184C39.0064 69.6 39.7944 69.776 40.4824 70.128C41.1704 70.48 41.7024 70.976 42.0784 71.616C42.4624 72.248 42.6544 72.976 42.6544 73.8C42.6544 74.624 42.4624 75.356 42.0784 75.996C41.7024 76.628 41.1704 77.12 40.4824 77.472C39.7944 77.824 39.0064 78 38.1184 78H34.5784V69.6ZM38.0464 76.956C38.7264 76.956 39.3224 76.824 39.8344 76.56C40.3544 76.296 40.7544 75.928 41.0344 75.456C41.3144 74.976 41.4544 74.424 41.4544 73.8C41.4544 73.176 41.3144 72.628 41.0344 72.156C40.7544 71.676 40.3544 71.304 39.8344 71.04C39.3224 70.776 38.7264 70.644 38.0464 70.644H35.7784V76.956H38.0464ZM50.0724 74.856C50.0724 74.944 50.0644 75.06 50.0484 75.204H44.8884C44.9604 75.764 45.2044 76.216 45.6204 76.56C46.0444 76.896 46.5684 77.064 47.1924 77.064C47.9524 77.064 48.5644 76.808 49.0284 76.296L49.6644 77.04C49.3764 77.376 49.0164 77.632 48.5844 77.808C48.1604 77.984 47.6844 78.072 47.1564 78.072C46.4844 78.072 45.8884 77.936 45.3684 77.664C44.8484 77.384 44.4444 76.996 44.1564 76.5C43.8764 76.004 43.7364 75.444 43.7364 74.82C43.7364 74.204 43.8724 73.648 44.1444 73.152C44.4244 72.656 44.8044 72.272 45.2844 72C45.7724 71.72 46.3204 71.58 46.9284 71.58C47.5364 71.58 48.0764 71.72 48.5484 72C49.0284 72.272 49.4004 72.656 49.6644 73.152C49.9364 73.648 50.0724 74.216 50.0724 74.856ZM46.9284 72.552C46.3764 72.552 45.9124 72.72 45.5364 73.056C45.1684 73.392 44.9524 73.832 44.8884 74.376H48.9684C48.9044 73.84 48.6844 73.404 48.3084 73.068C47.9404 72.724 47.4804 72.552 46.9284 72.552ZM55.0681 71.58C55.8761 71.58 56.5161 71.816 56.9881 72.288C57.4681 72.752 57.7081 73.436 57.7081 74.34V78H56.5561V74.472C56.5561 73.856 56.4081 73.392 56.1121 73.08C55.8161 72.768 55.3921 72.612 54.8401 72.612C54.2161 72.612 53.7241 72.796 53.3641 73.164C53.0041 73.524 52.8241 74.044 52.8241 74.724V78H51.6721V71.64H52.7761V72.6C53.0081 72.272 53.3201 72.02 53.7121 71.844C54.1121 71.668 54.5641 71.58 55.0681 71.58ZM61.664 78.072C61.144 78.072 60.644 78.004 60.164 77.868C59.684 77.724 59.308 77.544 59.036 77.328L59.516 76.416C59.796 76.616 60.136 76.776 60.536 76.896C60.936 77.016 61.34 77.076 61.748 77.076C62.756 77.076 63.26 76.788 63.26 76.212C63.26 76.02 63.192 75.868 63.056 75.756C62.92 75.644 62.748 75.564 62.54 75.516C62.34 75.46 62.052 75.4 61.676 75.336C61.164 75.256 60.744 75.164 60.416 75.06C60.096 74.956 59.82 74.78 59.588 74.532C59.356 74.284 59.24 73.936 59.24 73.488C59.24 72.912 59.48 72.452 59.96 72.108C60.44 71.756 61.084 71.58 61.892 71.58C62.316 71.58 62.74 71.632 63.164 71.736C63.588 71.84 63.936 71.98 64.208 72.156L63.716 73.068C63.196 72.732 62.584 72.564 61.88 72.564C61.392 72.564 61.02 72.644 60.764 72.804C60.508 72.964 60.38 73.176 60.38 73.44C60.38 73.648 60.452 73.812 60.596 73.932C60.74 74.052 60.916 74.14 61.124 74.196C61.34 74.252 61.64 74.316 62.024 74.388C62.536 74.476 62.948 74.572 63.26 74.676C63.58 74.772 63.852 74.94 64.076 75.18C64.3 75.42 64.412 75.756 64.412 76.188C64.412 76.764 64.164 77.224 63.668 77.568C63.18 77.904 62.512 78.072 61.664 78.072ZM65.8518 71.64H67.0038V78H65.8518V71.64ZM66.4278 70.416C66.2038 70.416 66.0158 70.344 65.8638 70.2C65.7198 70.056 65.6478 69.88 65.6478 69.672C65.6478 69.464 65.7198 69.288 65.8638 69.144C66.0158 68.992 66.2038 68.916 66.4278 68.916C66.6518 68.916 66.8358 68.988 66.9798 69.132C67.1318 69.268 67.2078 69.44 67.2078 69.648C67.2078 69.864 67.1318 70.048 66.9798 70.2C66.8358 70.344 66.6518 70.416 66.4278 70.416ZM72.7793 77.628C72.6113 77.772 72.4033 77.884 72.1553 77.964C71.9073 78.036 71.6513 78.072 71.3873 78.072C70.7473 78.072 70.2513 77.9 69.8993 77.556C69.5473 77.212 69.3713 76.72 69.3713 76.08V72.588H68.2913V71.64H69.3713V70.248H70.5233V71.64H72.3473V72.588H70.5233V76.032C70.5233 76.376 70.6073 76.64 70.7753 76.824C70.9513 77.008 71.1993 77.1 71.5193 77.1C71.8713 77.1 72.1713 77 72.4193 76.8L72.7793 77.628ZM79.6829 71.64L76.5989 78.636C76.3269 79.284 76.0069 79.74 75.6389 80.004C75.2789 80.268 74.8429 80.4 74.3309 80.4C74.0189 80.4 73.7149 80.348 73.4189 80.244C73.1309 80.148 72.8909 80.004 72.6989 79.812L73.1909 78.948C73.5189 79.26 73.8989 79.416 74.3309 79.416C74.6109 79.416 74.8429 79.34 75.0269 79.188C75.2189 79.044 75.3909 78.792 75.5429 78.432L75.7469 77.988L72.9389 71.64H74.1389L76.3589 76.728L78.5549 71.64H79.6829Z" fill="#F9F9F9"/>
<path d="M13.3292 54.6L10.5212 63H9.26117L6.96917 56.292L4.67717 63H3.39317L0.585172 54.6H1.82117L4.08917 61.428L6.45317 54.6H7.55717L9.87317 61.464L12.1892 54.6H13.3292ZM16.4646 56.58C17.3446 56.58 18.0166 56.796 18.4806 57.228C18.9526 57.66 19.1886 58.304 19.1886 59.16V63H18.0966V62.16C17.9046 62.456 17.6286 62.684 17.2686 62.844C16.9166 62.996 16.4966 63.072 16.0086 63.072C15.2966 63.072 14.7246 62.9 14.2926 62.556C13.8686 62.212 13.6566 61.76 13.6566 61.2C13.6566 60.64 13.8606 60.192 14.2686 59.856C14.6766 59.512 15.3246 59.34 16.2126 59.34H18.0366V59.112C18.0366 58.616 17.8926 58.236 17.6046 57.972C17.3166 57.708 16.8926 57.576 16.3326 57.576C15.9566 57.576 15.5886 57.64 15.2286 57.768C14.8686 57.888 14.5646 58.052 14.3166 58.26L13.8366 57.396C14.1646 57.132 14.5566 56.932 15.0126 56.796C15.4686 56.652 15.9526 56.58 16.4646 56.58ZM16.2006 62.184C16.6406 62.184 17.0206 62.088 17.3406 61.896C17.6606 61.696 17.8926 61.416 18.0366 61.056V60.168H16.2606C15.2846 60.168 14.7966 60.496 14.7966 61.152C14.7966 61.472 14.9206 61.724 15.1686 61.908C15.4166 62.092 15.7606 62.184 16.2006 62.184ZM24.8965 62.628C24.7285 62.772 24.5205 62.884 24.2725 62.964C24.0245 63.036 23.7685 63.072 23.5045 63.072C22.8645 63.072 22.3685 62.9 22.0165 62.556C21.6645 62.212 21.4885 61.72 21.4885 61.08V57.588H20.4085V56.64H21.4885V55.248H22.6405V56.64H24.4645V57.588H22.6405V61.032C22.6405 61.376 22.7245 61.64 22.8925 61.824C23.0685 62.008 23.3165 62.1 23.6365 62.1C23.9885 62.1 24.2885 62 24.5365 61.8L24.8965 62.628ZM31.8263 59.856C31.8263 59.944 31.8183 60.06 31.8023 60.204H26.6423C26.7143 60.764 26.9583 61.216 27.3743 61.56C27.7983 61.896 28.3223 62.064 28.9463 62.064C29.7063 62.064 30.3183 61.808 30.7823 61.296L31.4183 62.04C31.1303 62.376 30.7703 62.632 30.3383 62.808C29.9143 62.984 29.4383 63.072 28.9103 63.072C28.2383 63.072 27.6423 62.936 27.1223 62.664C26.6023 62.384 26.1983 61.996 25.9103 61.5C25.6303 61.004 25.4903 60.444 25.4903 59.82C25.4903 59.204 25.6263 58.648 25.8983 58.152C26.1783 57.656 26.5583 57.272 27.0383 57C27.5263 56.72 28.0743 56.58 28.6823 56.58C29.2903 56.58 29.8303 56.72 30.3023 57C30.7823 57.272 31.1543 57.656 31.4183 58.152C31.6903 58.648 31.8263 59.216 31.8263 59.856ZM28.6823 57.552C28.1303 57.552 27.6663 57.72 27.2903 58.056C26.9223 58.392 26.7063 58.832 26.6423 59.376H30.7223C30.6583 58.84 30.4383 58.404 30.0623 58.068C29.6943 57.724 29.2343 57.552 28.6823 57.552ZM34.53 57.708C34.73 57.34 35.026 57.06 35.418 56.868C35.81 56.676 36.286 56.58 36.846 56.58V57.696C36.782 57.688 36.694 57.684 36.582 57.684C35.958 57.684 35.466 57.872 35.106 58.248C34.754 58.616 34.578 59.144 34.578 59.832V63H33.426V56.64H34.53V57.708ZM37.8344 59.208H41.0624V60.204H37.8344V59.208ZM46.2081 56.58C46.8241 56.58 47.3761 56.716 47.8641 56.988C48.3521 57.26 48.7321 57.64 49.0041 58.128C49.2841 58.616 49.4241 59.18 49.4241 59.82C49.4241 60.46 49.2841 61.028 49.0041 61.524C48.7321 62.012 48.3521 62.392 47.8641 62.664C47.3761 62.936 46.8241 63.072 46.2081 63.072C45.7361 63.072 45.3041 62.98 44.9121 62.796C44.5201 62.612 44.1961 62.344 43.9401 61.992V63H42.8361V54.096H43.9881V57.6C44.2441 57.264 44.5641 57.012 44.9481 56.844C45.3321 56.668 45.7521 56.58 46.2081 56.58ZM46.1121 62.064C46.5201 62.064 46.8841 61.972 47.2041 61.788C47.5321 61.596 47.7881 61.332 47.9721 60.996C48.1641 60.652 48.2601 60.26 48.2601 59.82C48.2601 59.38 48.1641 58.992 47.9721 58.656C47.7881 58.312 47.5321 58.048 47.2041 57.864C46.8841 57.68 46.5201 57.588 46.1121 57.588C45.7121 57.588 45.3481 57.68 45.0201 57.864C44.6921 58.048 44.4361 58.312 44.2521 58.656C44.0681 58.992 43.9761 59.38 43.9761 59.82C43.9761 60.26 44.0681 60.652 44.2521 60.996C44.4361 61.332 44.6921 61.596 45.0201 61.788C45.3481 61.972 45.7121 62.064 46.1121 62.064ZM53.2732 56.58C54.1532 56.58 54.8252 56.796 55.2892 57.228C55.7612 57.66 55.9972 58.304 55.9972 59.16V63H54.9052V62.16C54.7132 62.456 54.4372 62.684 54.0772 62.844C53.7252 62.996 53.3052 63.072 52.8172 63.072C52.1052 63.072 51.5332 62.9 51.1012 62.556C50.6772 62.212 50.4652 61.76 50.4652 61.2C50.4652 60.64 50.6692 60.192 51.0772 59.856C51.4852 59.512 52.1332 59.34 53.0212 59.34H54.8452V59.112C54.8452 58.616 54.7012 58.236 54.4132 57.972C54.1252 57.708 53.7012 57.576 53.1412 57.576C52.7652 57.576 52.3972 57.64 52.0372 57.768C51.6772 57.888 51.3732 58.052 51.1252 58.26L50.6452 57.396C50.9732 57.132 51.3652 56.932 51.8212 56.796C52.2772 56.652 52.7612 56.58 53.2732 56.58ZM53.0092 62.184C53.4492 62.184 53.8292 62.088 54.1492 61.896C54.4692 61.696 54.7012 61.416 54.8452 61.056V60.168H53.0692C52.0932 60.168 51.6052 60.496 51.6052 61.152C51.6052 61.472 51.7292 61.724 51.9772 61.908C52.2252 62.092 52.5692 62.184 53.0092 62.184ZM59.9531 63.072C59.4331 63.072 58.9331 63.004 58.4531 62.868C57.9731 62.724 57.5971 62.544 57.3251 62.328L57.8051 61.416C58.0851 61.616 58.4251 61.776 58.8251 61.896C59.2251 62.016 59.6291 62.076 60.0371 62.076C61.0451 62.076 61.5491 61.788 61.5491 61.212C61.5491 61.02 61.4811 60.868 61.3451 60.756C61.2091 60.644 61.0371 60.564 60.8291 60.516C60.6291 60.46 60.3411 60.4 59.9651 60.336C59.4531 60.256 59.0331 60.164 58.7051 60.06C58.3851 59.956 58.1091 59.78 57.8771 59.532C57.6451 59.284 57.5291 58.936 57.5291 58.488C57.5291 57.912 57.7691 57.452 58.2491 57.108C58.7291 56.756 59.3731 56.58 60.1811 56.58C60.6051 56.58 61.0291 56.632 61.4531 56.736C61.8771 56.84 62.2251 56.98 62.4971 57.156L62.0051 58.068C61.4851 57.732 60.8731 57.564 60.1691 57.564C59.6811 57.564 59.3091 57.644 59.0531 57.804C58.7971 57.964 58.6691 58.176 58.6691 58.44C58.6691 58.648 58.7411 58.812 58.8851 58.932C59.0291 59.052 59.2051 59.14 59.4131 59.196C59.6291 59.252 59.9291 59.316 60.3131 59.388C60.8251 59.476 61.2371 59.572 61.5491 59.676C61.8691 59.772 62.1411 59.94 62.3651 60.18C62.5891 60.42 62.7011 60.756 62.7011 61.188C62.7011 61.764 62.4531 62.224 61.9571 62.568C61.4691 62.904 60.8011 63.072 59.9531 63.072ZM69.8888 59.856C69.8888 59.944 69.8808 60.06 69.8648 60.204H64.7048C64.7768 60.764 65.0208 61.216 65.4368 61.56C65.8608 61.896 66.3848 62.064 67.0088 62.064C67.7688 62.064 68.3808 61.808 68.8448 61.296L69.4808 62.04C69.1928 62.376 68.8328 62.632 68.4008 62.808C67.9768 62.984 67.5008 63.072 66.9728 63.072C66.3008 63.072 65.7048 62.936 65.1848 62.664C64.6648 62.384 64.2608 61.996 63.9728 61.5C63.6928 61.004 63.5528 60.444 63.5528 59.82C63.5528 59.204 63.6888 58.648 63.9608 58.152C64.2408 57.656 64.6208 57.272 65.1008 57C65.5888 56.72 66.1368 56.58 66.7448 56.58C67.3528 56.58 67.8928 56.72 68.3648 57C68.8448 57.272 69.2168 57.656 69.4808 58.152C69.7528 58.648 69.8888 59.216 69.8888 59.856ZM66.7448 57.552C66.1928 57.552 65.7288 57.72 65.3528 58.056C64.9848 58.392 64.7688 58.832 64.7048 59.376H68.7848C68.7208 58.84 68.5008 58.404 68.1248 58.068C67.7568 57.724 67.2968 57.552 66.7448 57.552ZM77.4885 54.096V63H76.3845V61.992C76.1285 62.344 75.8045 62.612 75.4125 62.796C75.0205 62.98 74.5885 63.072 74.1165 63.072C73.5005 63.072 72.9485 62.936 72.4605 62.664C71.9725 62.392 71.5885 62.012 71.3085 61.524C71.0365 61.028 70.9005 60.46 70.9005 59.82C70.9005 59.18 71.0365 58.616 71.3085 58.128C71.5885 57.64 71.9725 57.26 72.4605 56.988C72.9485 56.716 73.5005 56.58 74.1165 56.58C74.5725 56.58 74.9925 56.668 75.3765 56.844C75.7605 57.012 76.0805 57.264 76.3365 57.6V54.096H77.4885ZM74.2125 62.064C74.6125 62.064 74.9765 61.972 75.3045 61.788C75.6325 61.596 75.8885 61.332 76.0725 60.996C76.2565 60.652 76.3485 60.26 76.3485 59.82C76.3485 59.38 76.2565 58.992 76.0725 58.656C75.8885 58.312 75.6325 58.048 75.3045 57.864C74.9765 57.68 74.6125 57.588 74.2125 57.588C73.8045 57.588 73.4365 57.68 73.1085 57.864C72.7885 58.048 72.5325 58.312 72.3405 58.656C72.1565 58.992 72.0645 59.38 72.0645 59.82C72.0645 60.26 72.1565 60.652 72.3405 60.996C72.5325 61.332 72.7885 61.596 73.1085 61.788C73.4365 61.972 73.8045 62.064 74.2125 62.064ZM11.382 78L11.37 71.88L8.33398 76.98H7.78198L4.74598 71.916V78H3.59398V69.6H4.57798L8.08198 75.504L11.538 69.6H12.522L12.534 78H11.382ZM20.8149 71.64V78H19.7229V77.04C19.4909 77.368 19.1829 77.624 18.7989 77.808C18.4229 77.984 18.0109 78.072 17.5629 78.072C16.7149 78.072 16.0469 77.84 15.5589 77.376C15.0709 76.904 14.8269 76.212 14.8269 75.3V71.64H15.9789V75.168C15.9789 75.784 16.1269 76.252 16.4229 76.572C16.7189 76.884 17.1429 77.04 17.6949 77.04C18.3029 77.04 18.7829 76.856 19.1349 76.488C19.4869 76.12 19.6629 75.6 19.6629 74.928V71.64H20.8149ZM29.008 69.096V78H27.904V76.992C27.648 77.344 27.324 77.612 26.932 77.796C26.54 77.98 26.108 78.072 25.636 78.072C25.02 78.072 24.468 77.936 23.98 77.664C23.492 77.392 23.108 77.012 22.828 76.524C22.556 76.028 22.42 75.46 22.42 74.82C22.42 74.18 22.556 73.616 22.828 73.128C23.108 72.64 23.492 72.26 23.98 71.988C24.468 71.716 25.02 71.58 25.636 71.58C26.092 71.58 26.512 71.668 26.896 71.844C27.28 72.012 27.6 72.264 27.856 72.6V69.096H29.008ZM25.732 77.064C26.132 77.064 26.496 76.972 26.824 76.788C27.152 76.596 27.408 76.332 27.592 75.996C27.776 75.652 27.868 75.26 27.868 74.82C27.868 74.38 27.776 73.992 27.592 73.656C27.408 73.312 27.152 73.048 26.824 72.864C26.496 72.68 26.132 72.588 25.732 72.588C25.324 72.588 24.956 72.68 24.628 72.864C24.308 73.048 24.052 73.312 23.86 73.656C23.676 73.992 23.584 74.38 23.584 74.82C23.584 75.26 23.676 75.652 23.86 75.996C24.052 76.332 24.308 76.596 24.628 76.788C24.956 76.972 25.324 77.064 25.732 77.064ZM34.5784 69.6H38.1184C39.0064 69.6 39.7944 69.776 40.4824 70.128C41.1704 70.48 41.7024 70.976 42.0784 71.616C42.4624 72.248 42.6544 72.976 42.6544 73.8C42.6544 74.624 42.4624 75.356 42.0784 75.996C41.7024 76.628 41.1704 77.12 40.4824 77.472C39.7944 77.824 39.0064 78 38.1184 78H34.5784V69.6ZM38.0464 76.956C38.7264 76.956 39.3224 76.824 39.8344 76.56C40.3544 76.296 40.7544 75.928 41.0344 75.456C41.3144 74.976 41.4544 74.424 41.4544 73.8C41.4544 73.176 41.3144 72.628 41.0344 72.156C40.7544 71.676 40.3544 71.304 39.8344 71.04C39.3224 70.776 38.7264 70.644 38.0464 70.644H35.7784V76.956H38.0464ZM50.0724 74.856C50.0724 74.944 50.0644 75.06 50.0484 75.204H44.8884C44.9604 75.764 45.2044 76.216 45.6204 76.56C46.0444 76.896 46.5684 77.064 47.1924 77.064C47.9524 77.064 48.5644 76.808 49.0284 76.296L49.6644 77.04C49.3764 77.376 49.0164 77.632 48.5844 77.808C48.1604 77.984 47.6844 78.072 47.1564 78.072C46.4844 78.072 45.8884 77.936 45.3684 77.664C44.8484 77.384 44.4444 76.996 44.1564 76.5C43.8764 76.004 43.7364 75.444 43.7364 74.82C43.7364 74.204 43.8724 73.648 44.1444 73.152C44.4244 72.656 44.8044 72.272 45.2844 72C45.7724 71.72 46.3204 71.58 46.9284 71.58C47.5364 71.58 48.0764 71.72 48.5484 72C49.0284 72.272 49.4004 72.656 49.6644 73.152C49.9364 73.648 50.0724 74.216 50.0724 74.856ZM46.9284 72.552C46.3764 72.552 45.9124 72.72 45.5364 73.056C45.1684 73.392 44.9524 73.832 44.8884 74.376H48.9684C48.9044 73.84 48.6844 73.404 48.3084 73.068C47.9404 72.724 47.4804 72.552 46.9284 72.552ZM55.0681 71.58C55.8761 71.58 56.5161 71.816 56.9881 72.288C57.4681 72.752 57.7081 73.436 57.7081 74.34V78H56.5561V74.472C56.5561 73.856 56.4081 73.392 56.1121 73.08C55.8161 72.768 55.3921 72.612 54.8401 72.612C54.2161 72.612 53.7241 72.796 53.3641 73.164C53.0041 73.524 52.8241 74.044 52.8241 74.724V78H51.6721V71.64H52.7761V72.6C53.0081 72.272 53.3201 72.02 53.7121 71.844C54.1121 71.668 54.5641 71.58 55.0681 71.58ZM61.664 78.072C61.144 78.072 60.644 78.004 60.164 77.868C59.684 77.724 59.308 77.544 59.036 77.328L59.516 76.416C59.796 76.616 60.136 76.776 60.536 76.896C60.936 77.016 61.34 77.076 61.748 77.076C62.756 77.076 63.26 76.788 63.26 76.212C63.26 76.02 63.192 75.868 63.056 75.756C62.92 75.644 62.748 75.564 62.54 75.516C62.34 75.46 62.052 75.4 61.676 75.336C61.164 75.256 60.744 75.164 60.416 75.06C60.096 74.956 59.82 74.78 59.588 74.532C59.356 74.284 59.24 73.936 59.24 73.488C59.24 72.912 59.48 72.452 59.96 72.108C60.44 71.756 61.084 71.58 61.892 71.58C62.316 71.58 62.74 71.632 63.164 71.736C63.588 71.84 63.936 71.98 64.208 72.156L63.716 73.068C63.196 72.732 62.584 72.564 61.88 72.564C61.392 72.564 61.02 72.644 60.764 72.804C60.508 72.964 60.38 73.176 60.38 73.44C60.38 73.648 60.452 73.812 60.596 73.932C60.74 74.052 60.916 74.14 61.124 74.196C61.34 74.252 61.64 74.316 62.024 74.388C62.536 74.476 62.948 74.572 63.26 74.676C63.58 74.772 63.852 74.94 64.076 75.18C64.3 75.42 64.412 75.756 64.412 76.188C64.412 76.764 64.164 77.224 63.668 77.568C63.18 77.904 62.512 78.072 61.664 78.072ZM65.8518 71.64H67.0038V78H65.8518V71.64ZM66.4278 70.416C66.2038 70.416 66.0158 70.344 65.8638 70.2C65.7198 70.056 65.6478 69.88 65.6478 69.672C65.6478 69.464 65.7198 69.288 65.8638 69.144C66.0158 68.992 66.2038 68.916 66.4278 68.916C66.6518 68.916 66.8358 68.988 66.9798 69.132C67.1318 69.268 67.2078 69.44 67.2078 69.648C67.2078 69.864 67.1318 70.048 66.9798 70.2C66.8358 70.344 66.6518 70.416 66.4278 70.416ZM72.7793 77.628C72.6113 77.772 72.4033 77.884 72.1553 77.964C71.9073 78.036 71.6513 78.072 71.3873 78.072C70.7473 78.072 70.2513 77.9 69.8993 77.556C69.5473 77.212 69.3713 76.72 69.3713 76.08V72.588H68.2913V71.64H69.3713V70.248H70.5233V71.64H72.3473V72.588H70.5233V76.032C70.5233 76.376 70.6073 76.64 70.7753 76.824C70.9513 77.008 71.1993 77.1 71.5193 77.1C71.8713 77.1 72.1713 77 72.4193 76.8L72.7793 77.628ZM79.6829 71.64L76.5989 78.636C76.3269 79.284 76.0069 79.74 75.6389 80.004C75.2789 80.268 74.8429 80.4 74.3309 80.4C74.0189 80.4 73.7149 80.348 73.4189 80.244C73.1309 80.148 72.8909 80.004 72.6989 79.812L73.1909 78.948C73.5189 79.26 73.8989 79.416 74.3309 79.416C74.6109 79.416 74.8429 79.34 75.0269 79.188C75.2189 79.044 75.3909 78.792 75.5429 78.432L75.7469 77.988L72.9389 71.64H74.1389L76.3589 76.728L78.5549 71.64H79.6829Z" fill="#F9F9F9"/>
<path d="M39 46C27.5706 46 16 42.8829 16 36.9276C16 35.5019 16.7174 33.4064 20.1362 31.5232C20.9368 31.0866 21.9296 31.3797 22.3677 32.1759C22.8042 32.9748 22.5123 33.9783 21.7177 34.4165C20.1953 35.2539 19.2857 36.193 19.2857 36.9276C19.2857 39.2809 26.9655 42.701 39 42.701C51.0345 42.701 58.7143 39.2809 58.7143 36.9276C58.7143 36.193 57.8047 35.2539 56.2807 34.4165C55.485 33.9783 55.1931 32.9764 55.6295 32.1775C56.0644 31.3803 57.0638 31.0822 57.8595 31.5238C61.281 33.4048 62 35.5002 62 36.9276C62 42.8829 50.4294 46 39 46Z" fill="#F9F9F9"/>
<path d="M39 0C39 0 26 11.1441 26 22.4217C26 29.4978 31.8202 35.234 39 35.234C46.1798 35.234 52 29.4978 52 22.4217C52 11.1441 39 0 39 0ZM45.0938 27.7126C44.4947 28.3816 43.466 28.4365 42.8009 27.8552C42.1265 27.2701 42.0631 26.2584 42.6562 25.5954C43.4417 24.7161 43.875 23.5897 43.875 22.4217C43.875 21.5851 43.7228 20.6589 43.4243 19.6707C43.167 18.823 43.6562 17.9299 44.5163 17.6784C45.3765 17.428 46.2827 17.9069 46.5378 18.7547C46.9284 20.0396 47.125 21.2739 47.125 22.4217C47.125 24.3702 46.403 26.2504 45.0938 27.7126Z" fill="#F9F9F9"/>
</svg>
